{"glyphs":{"0":{"ha":1012,"x_min":65,"x_max":947,"o":"m 506 -14 q 269 44 367 -14 q 118 220 171 102 q 65 514 65 338 q 118 808 65 690 q 269 984 171 926 q 506 1042 367 1042 q 742 984 644 1042 q 894 808 841 926 q 947 514 947 690 q 893 220 947 338 q 742 44 840 102 q 506 -14 643 -14 m 506 210 q 599 239 562 210 q 655 334 635 267 q 675 513 675 401 q 655 693 675 626 q 599 789 635 760 q 506 817 562 817 q 414 789 451 817 q 357 694 376 760 q 337 515 337 627 q 356 334 337 401 q 413 239 376 267 q 506 210 450 210 z "},"1":{"ha":658,"x_min":25,"x_max":560,"o":"m 378 1032 l 560 1032 l 560 0 l 282 0 l 282 707 l 25 528 l 25 785 l 378 1032 z "},"2":{"ha":819,"x_min":21,"x_max":781,"o":"m 781 223 l 781 0 l 34 0 l 34 146 l 339 488 q 431 611 404 561 q 457 705 457 660 q 414 794 457 765 q 272 823 372 823 q 139 811 206 823 q 21 781 72 800 l 21 1001 q 151 1030 72 1018 q 298 1042 230 1042 q 624 967 518 1042 q 731 734 731 892 q 695 575 731 652 q 576 407 660 498 l 406 223 l 781 223 z "},"3":{"ha":824,"x_min":33,"x_max":780,"o":"m 574 531 q 726 450 673 510 q 780 291 780 390 q 668 66 780 146 q 329 -14 557 -14 q 33 23 173 -14 l 33 223 q 174 196 99 206 q 316 186 249 186 q 472 217 424 186 q 521 308 521 247 q 475 395 521 367 q 322 424 430 424 l 142 424 l 142 626 l 290 626 q 435 653 392 626 q 479 733 479 680 q 437 814 479 786 q 303 842 394 842 q 174 831 241 842 q 51 801 106 820 l 51 1002 q 184 1031 106 1019 q 332 1042 261 1042 q 641 968 537 1042 q 744 757 744 894 q 699 614 744 674 q 574 531 653 555 z "},"4":{"ha":960,"x_min":24,"x_max":938,"o":"m 938 407 l 938 194 l 803 194 l 803 0 l 554 0 l 554 194 l 24 194 l 24 344 l 387 1028 l 653 1028 l 328 407 l 554 407 l 580 681 l 803 681 l 803 407 l 938 407 z "},"5":{"ha":833,"x_min":51,"x_max":798,"o":"m 353 635 q 611 585 513 624 q 753 480 709 547 q 798 315 798 413 q 685 70 798 155 q 347 -14 573 -14 q 51 27 198 -14 l 51 227 q 191 200 116 210 q 334 190 266 190 q 489 220 440 190 q 538 309 538 250 q 513 376 538 350 q 423 417 488 401 q 234 440 357 433 l 83 447 l 121 1028 l 755 1028 l 755 822 l 367 822 l 353 635 z "},"6":{"ha":947,"x_min":72,"x_max":906,"o":"m 556 629 q 740 595 661 629 q 862 491 818 562 q 906 314 906 421 q 859 141 906 215 q 724 26 813 67 q 513 -14 635 -14 q 279 40 378 -14 q 126 204 180 94 q 72 478 72 314 q 134 788 72 662 q 317 977 196 913 q 613 1042 438 1042 q 741 1034 683 1042 q 849 1007 799 1026 l 849 801 q 744 828 801 819 q 630 837 688 837 q 340 578 352 837 q 441 616 383 602 q 556 629 498 629 m 513 179 q 619 212 581 179 q 657 307 657 244 q 616 405 657 372 q 499 437 575 437 q 340 397 411 437 q 390 228 347 277 q 513 179 433 179 z "},"7":{"ha":778,"x_min":8,"x_max":738,"o":"m 8 1028 l 738 1028 l 738 882 l 404 0 l 120 0 l 444 805 l 8 805 l 8 1028 z "},"8":{"ha":1012,"x_min":56,"x_max":953,"o":"m 765 550 q 910 441 867 503 q 953 292 953 379 q 904 135 953 204 q 756 26 856 66 q 508 -14 656 -14 q 251 20 352 -14 q 103 114 151 54 q 56 254 56 174 q 105 397 56 335 q 244 495 153 459 q 123 604 160 541 q 85 747 85 667 q 134 901 85 835 q 281 1005 183 967 q 525 1042 380 1042 q 741 1010 651 1042 q 877 921 831 979 q 924 782 924 863 q 765 550 924 626 m 519 857 q 388 830 431 857 q 346 758 346 802 q 364 700 346 723 q 433 655 383 676 q 584 609 484 633 q 661 674 637 640 q 685 752 685 709 q 643 830 685 803 q 519 857 602 857 m 509 171 q 696 275 696 171 q 675 335 696 310 q 602 380 655 360 q 453 422 550 401 q 419 430 413 432 q 340 367 366 404 q 315 290 315 331 q 363 201 315 232 q 509 171 410 171 z "},"9":{"ha":947,"x_min":40,"x_max":875,"o":"m 434 1042 q 668 988 569 1042 q 821 824 767 934 q 875 549 875 714 q 813 240 875 366 q 630 50 751 115 q 333 -14 508 -14 q 205 -6 263 -14 q 97 21 147 2 l 97 226 q 202 200 146 208 q 317 191 259 191 q 606 449 594 191 q 506 412 563 426 q 391 399 449 399 q 207 432 285 399 q 84 536 128 466 q 40 714 40 607 q 87 887 40 813 q 223 1001 134 961 q 434 1042 311 1042 m 290 721 q 331 623 290 656 q 447 591 372 591 q 606 631 535 591 q 557 800 600 751 q 433 849 513 849 q 328 816 366 849 q 290 721 290 783 z "},"\u0000":{"ha":0,"x_min":0,"x_max":0,"o":""},"\r":{"ha":377,"x_min":0,"x_max":0,"o":""}," ":{"ha":377,"x_min":0,"x_max":0,"o":""},"A":{"ha":1113,"x_min":10,"x_max":1103,"o":"m 831 0 l 751 251 l 359 251 l 280 0 l 10 0 l 354 1028 l 759 1028 l 1103 0 l 831 0 m 427 465 l 683 465 l 555 870 l 427 465 z "},"Á":{"ha":1113,"x_min":10,"x_max":1103,"o":"m 831 0 l 751 251 l 359 251 l 280 0 l 10 0 l 354 1028 l 759 1028 l 1103 0 l 831 0 m 427 465 l 683 465 l 555 870 l 427 465 m 431 1104 l 567 1319 l 853 1319 l 677 1104 l 431 1104 z "},"Ă":{"ha":1113,"x_min":10,"x_max":1103,"o":"m 831 0 l 751 251 l 359 251 l 280 0 l 10 0 l 354 1028 l 759 1028 l 1103 0 l 831 0 m 427 465 l 683 465 l 555 870 l 427 465 m 556 1106 q 344 1163 419 1106 q 255 1317 269 1220 l 418 1317 q 556 1232 438 1232 q 650 1254 617 1232 q 693 1317 683 1276 l 856 1317 q 768 1163 842 1220 q 556 1106 693 1106 z "},"Ắ":{"ha":1113,"x_min":10,"x_max":1103,"o":"m 831 0 l 751 251 l 359 251 l 280 0 l 10 0 l 354 1028 l 759 1028 l 1103 0 l 831 0 m 427 465 l 683 465 l 555 870 l 427 465 m 481 1271 l 562 1436 l 746 1436 l 631 1271 l 481 1271 m 556 1106 q 361 1155 430 1106 q 277 1290 292 1204 l 416 1290 q 457 1231 427 1250 q 556 1211 487 1211 q 631 1220 603 1211 q 675 1247 660 1230 q 701 1290 690 1263 l 834 1290 q 750 1155 819 1204 q 556 1106 681 1106 z "},"Ặ":{"ha":1113,"x_min":10,"x_max":1103,"o":"m 831 0 l 751 251 l 359 251 l 280 0 l 10 0 l 354 1028 l 759 1028 l 1103 0 l 831 0 m 427 465 l 683 465 l 555 870 l 427 465 m 557 -308 q 435 -278 476 -308 q 395 -194 395 -248 q 435 -110 395 -140 q 557 -80 476 -80 q 678 -110 638 -80 q 719 -194 719 -140 q 678 -278 719 -248 q 557 -308 638 -308 m 556 1106 q 344 1163 419 1106 q 255 1317 269 1220 l 418 1317 q 556 1232 438 1232 q 650 1254 617 1232 q 693 1317 683 1276 l 856 1317 q 768 1163 842 1220 q 556 1106 693 1106 z "},"Ằ":{"ha":1113,"x_min":10,"x_max":1103,"o":"m 831 0 l 751 251 l 359 251 l 280 0 l 10 0 l 354 1028 l 759 1028 l 1103 0 l 831 0 m 427 465 l 683 465 l 555 870 l 427 465 m 481 1271 l 365 1436 l 549 1436 l 631 1271 l 481 1271 m 556 1106 q 361 1155 430 1106 q 277 1290 292 1204 l 410 1290 q 436 1247 421 1263 q 480 1220 451 1230 q 556 1211 508 1211 q 654 1231 624 1211 q 695 1290 684 1250 l 834 1290 q 750 1155 819 1204 q 556 1106 681 1106 z "},"Ẳ":{"ha":1113,"x_min":10,"x_max":1103,"o":"m 831 0 l 751 251 l 359 251 l 280 0 l 10 0 l 354 1028 l 759 1028 l 1103 0 l 831 0 m 427 465 l 683 465 l 555 870 l 427 465 m 490 1271 q 512 1312 492 1297 q 569 1342 532 1326 q 601 1357 592 1351 q 611 1372 611 1363 q 533 1392 611 1392 q 394 1378 463 1392 l 394 1459 q 471 1470 427 1466 q 553 1474 515 1474 q 701 1452 653 1474 q 749 1388 749 1431 q 729 1344 749 1360 q 673 1311 710 1328 q 635 1291 648 1299 q 621 1271 623 1282 l 490 1271 m 556 1106 q 361 1155 430 1106 q 277 1290 292 1204 l 416 1290 q 457 1231 427 1250 q 556 1211 487 1211 q 631 1220 603 1211 q 675 1247 660 1230 q 701 1290 690 1263 l 834 1290 q 750 1155 819 1204 q 556 1106 681 1106 z "},"Ẵ":{"ha":1113,"x_min":10,"x_max":1103,"o":"m 831 0 l 751 251 l 359 251 l 280 0 l 10 0 l 354 1028 l 759 1028 l 1103 0 l 831 0 m 427 465 l 683 465 l 555 870 l 427 465 m 669 1323 q 610 1328 638 1323 q 541 1344 581 1334 q 484 1359 506 1354 q 440 1363 462 1363 q 364 1353 400 1363 q 277 1317 328 1343 l 277 1426 q 358 1460 322 1451 q 442 1469 395 1469 q 502 1464 474 1469 q 570 1447 530 1458 q 627 1432 605 1437 q 672 1428 649 1428 q 747 1438 711 1428 q 834 1474 783 1448 l 834 1365 q 753 1331 790 1340 q 669 1323 717 1323 m 556 1106 q 361 1155 430 1106 q 277 1290 292 1204 l 416 1290 q 457 1231 427 1250 q 556 1211 487 1211 q 654 1231 624 1211 q 695 1290 684 1250 l 834 1290 q 750 1155 819 1204 q 556 1106 681 1106 z "},"Â":{"ha":1113,"x_min":10,"x_max":1103,"o":"m 831 0 l 751 251 l 359 251 l 280 0 l 10 0 l 354 1028 l 759 1028 l 1103 0 l 831 0 m 427 465 l 683 465 l 555 870 l 427 465 m 872 1104 l 663 1104 l 556 1223 l 449 1104 l 240 1104 l 442 1319 l 669 1319 l 872 1104 z "},"Ấ":{"ha":1113,"x_min":10,"x_max":1103,"o":"m 831 0 l 751 251 l 359 251 l 280 0 l 10 0 l 354 1028 l 759 1028 l 1103 0 l 831 0 m 427 465 l 683 465 l 555 870 l 427 465 m 825 1433 l 1010 1433 l 894 1266 l 744 1266 l 825 1433 m 442 1293 l 669 1293 l 872 1104 l 663 1104 l 556 1210 l 449 1104 l 240 1104 l 442 1293 z "},"Ậ":{"ha":1113,"x_min":10,"x_max":1103,"o":"m 831 0 l 751 251 l 359 251 l 280 0 l 10 0 l 354 1028 l 759 1028 l 1103 0 l 831 0 m 427 465 l 683 465 l 555 870 l 427 465 m 557 -308 q 435 -278 476 -308 q 395 -194 395 -248 q 435 -110 395 -140 q 557 -80 476 -80 q 678 -110 638 -80 q 719 -194 719 -140 q 678 -278 719 -248 q 557 -308 638 -308 m 872 1104 l 663 1104 l 556 1223 l 449 1104 l 240 1104 l 442 1319 l 669 1319 l 872 1104 z "},"Ầ":{"ha":1113,"x_min":10,"x_max":1103,"o":"m 831 0 l 751 251 l 359 251 l 280 0 l 10 0 l 354 1028 l 759 1028 l 1103 0 l 831 0 m 427 465 l 683 465 l 555 870 l 427 465 m 919 1266 l 770 1266 l 655 1433 l 839 1433 l 919 1266 m 442 1293 l 669 1293 l 872 1104 l 663 1104 l 556 1210 l 449 1104 l 240 1104 l 442 1293 z "},"Ẩ":{"ha":1113,"x_min":10,"x_max":1103,"o":"m 831 0 l 751 251 l 359 251 l 280 0 l 10 0 l 354 1028 l 759 1028 l 1103 0 l 831 0 m 427 465 l 683 465 l 555 870 l 427 465 m 808 1469 q 955 1448 908 1469 q 1002 1383 1002 1426 q 983 1340 1002 1356 q 926 1306 963 1324 q 889 1285 901 1294 q 875 1266 877 1277 l 744 1266 q 766 1307 746 1292 q 823 1337 786 1322 q 856 1352 846 1347 q 865 1367 865 1358 q 788 1387 865 1387 q 649 1373 717 1387 l 649 1454 q 725 1465 681 1461 q 808 1469 769 1469 m 442 1293 l 669 1293 l 872 1104 l 663 1104 l 556 1210 l 449 1104 l 240 1104 l 442 1293 z "},"Ẫ":{"ha":1113,"x_min":10,"x_max":1103,"o":"m 831 0 l 751 251 l 359 251 l 280 0 l 10 0 l 354 1028 l 759 1028 l 1103 0 l 831 0 m 427 465 l 683 465 l 555 870 l 427 465 m 695 1428 q 780 1438 741 1428 q 872 1474 819 1449 l 872 1365 q 787 1332 827 1340 q 693 1323 747 1323 q 620 1328 655 1323 q 539 1344 586 1334 q 470 1359 497 1354 q 416 1363 443 1363 q 331 1353 370 1363 q 240 1317 292 1342 l 240 1426 q 325 1460 285 1451 q 418 1469 365 1469 q 491 1464 456 1469 q 572 1447 525 1458 q 641 1432 614 1437 q 695 1428 668 1428 m 442 1293 l 669 1293 l 872 1104 l 663 1104 l 556 1210 l 449 1104 l 240 1104 l 442 1293 z "},"Ȁ":{"ha":1113,"x_min":10,"x_max":1103,"o":"m 831 0 l 751 251 l 359 251 l 280 0 l 10 0 l 354 1028 l 759 1028 l 1103 0 l 831 0 m 427 465 l 683 465 l 555 870 l 427 465 m 303 1104 l 184 1319 l 394 1319 l 500 1104 l 303 1104 m 611 1104 l 492 1319 l 702 1319 l 808 1104 l 611 1104 z "},"Ä":{"ha":1113,"x_min":10,"x_max":1103,"o":"m 831 0 l 751 251 l 359 251 l 280 0 l 10 0 l 354 1028 l 759 1028 l 1103 0 l 831 0 m 427 465 l 683 465 l 555 870 l 427 465 m 361 1101 q 257 1131 292 1101 q 222 1215 222 1160 q 257 1300 222 1270 q 361 1330 292 1330 q 466 1300 431 1330 q 501 1215 501 1270 q 466 1131 501 1160 q 361 1101 431 1101 m 750 1101 q 645 1131 680 1101 q 610 1215 610 1160 q 645 1300 610 1270 q 750 1330 680 1330 q 855 1300 819 1330 q 890 1215 890 1270 q 855 1131 890 1160 q 750 1101 819 1101 z "},"Ạ":{"ha":1113,"x_min":10,"x_max":1103,"o":"m 831 0 l 751 251 l 359 251 l 280 0 l 10 0 l 354 1028 l 759 1028 l 1103 0 l 831 0 m 427 465 l 683 465 l 555 870 l 427 465 m 557 -308 q 435 -278 476 -308 q 395 -194 395 -248 q 435 -110 395 -140 q 557 -80 476 -80 q 678 -110 638 -80 q 719 -194 719 -140 q 678 -278 719 -248 q 557 -308 638 -308 z "},"À":{"ha":1113,"x_min":10,"x_max":1103,"o":"m 831 0 l 751 251 l 359 251 l 280 0 l 10 0 l 354 1028 l 759 1028 l 1103 0 l 831 0 m 427 465 l 683 465 l 555 870 l 427 465 m 433 1104 l 256 1319 l 543 1319 l 678 1104 l 433 1104 z "},"Ả":{"ha":1113,"x_min":10,"x_max":1103,"o":"m 831 0 l 751 251 l 359 251 l 280 0 l 10 0 l 354 1028 l 759 1028 l 1103 0 l 831 0 m 427 465 l 683 465 l 555 870 l 427 465 m 490 1104 q 512 1151 492 1135 q 569 1185 533 1168 q 601 1202 592 1196 q 611 1218 611 1209 q 592 1235 611 1230 q 533 1241 573 1241 q 394 1226 465 1241 l 394 1320 q 470 1332 426 1328 q 553 1336 514 1336 q 701 1311 653 1336 q 749 1238 749 1286 q 738 1200 749 1216 q 712 1174 727 1184 q 672 1150 697 1163 q 635 1127 647 1137 q 621 1104 623 1117 l 490 1104 z "},"Ȃ":{"ha":1113,"x_min":10,"x_max":1103,"o":"m 831 0 l 751 251 l 359 251 l 280 0 l 10 0 l 354 1028 l 759 1028 l 1103 0 l 831 0 m 427 465 l 683 465 l 555 870 l 427 465 m 255 1107 q 343 1261 269 1204 q 556 1319 418 1319 q 767 1261 692 1319 q 856 1107 842 1203 l 693 1107 q 556 1192 673 1192 q 461 1170 494 1192 q 418 1107 428 1148 l 255 1107 z "},"Ā":{"ha":1113,"x_min":10,"x_max":1103,"o":"m 831 0 l 751 251 l 359 251 l 280 0 l 10 0 l 354 1028 l 759 1028 l 1103 0 l 831 0 m 427 465 l 683 465 l 555 870 l 427 465 m 272 1135 l 272 1290 l 839 1290 l 839 1135 l 272 1135 z "},"Ą":{"ha":1113,"x_min":10,"x_max":1133,"o":"m 1036 -211 q 1133 -192 1080 -211 l 1133 -292 q 997 -314 1068 -314 q 837 -274 891 -314 q 783 -162 783 -233 q 810 -73 783 -114 q 896 0 836 -33 l 831 0 l 751 251 l 359 251 l 280 0 l 10 0 l 354 1028 l 759 1028 l 1103 0 q 973 -67 1010 -33 q 935 -142 935 -101 q 960 -193 935 -175 q 1036 -211 985 -211 m 427 465 l 683 465 l 555 870 l 427 465 z "},"Å":{"ha":1113,"x_min":10,"x_max":1103,"o":"m 831 0 l 751 251 l 359 251 l 280 0 l 10 0 l 354 1028 l 759 1028 l 1103 0 l 831 0 m 427 465 l 683 465 l 555 870 l 427 465 m 556 1094 q 476 1114 511 1094 q 421 1167 441 1133 q 401 1244 401 1201 q 421 1321 401 1287 q 476 1374 441 1355 q 556 1393 511 1393 q 635 1374 600 1393 q 690 1321 670 1355 q 710 1244 710 1287 q 690 1167 710 1201 q 635 1114 670 1133 q 556 1094 600 1094 m 556 1182 q 598 1199 582 1182 q 615 1244 615 1216 q 598 1288 615 1272 q 556 1305 582 1305 q 513 1288 529 1305 q 497 1244 497 1272 q 513 1199 497 1216 q 556 1182 529 1182 z "},"Ǻ":{"ha":1113,"x_min":10,"x_max":1103,"o":"m 831 0 l 751 251 l 359 251 l 280 0 l 10 0 l 354 1028 l 759 1028 l 1103 0 l 831 0 m 427 465 l 683 465 l 555 870 l 427 465 m 692 1316 q 710 1244 710 1283 q 690 1167 710 1201 q 635 1114 670 1133 q 556 1094 600 1094 q 476 1114 511 1094 q 421 1167 441 1133 q 401 1244 401 1201 q 421 1321 401 1287 q 476 1374 441 1355 q 556 1393 511 1393 q 579 1392 564 1393 l 649 1479 l 835 1479 l 692 1316 m 556 1182 q 598 1199 582 1182 q 615 1244 615 1216 q 598 1288 615 1272 q 556 1305 582 1305 q 513 1288 529 1305 q 497 1244 497 1272 q 513 1199 497 1216 q 556 1182 529 1182 z "},"Ã":{"ha":1113,"x_min":10,"x_max":1103,"o":"m 831 0 l 751 251 l 359 251 l 280 0 l 10 0 l 354 1028 l 759 1028 l 1103 0 l 831 0 m 427 465 l 683 465 l 555 870 l 427 465 m 685 1112 q 618 1118 649 1112 q 544 1139 588 1125 q 477 1157 505 1151 q 421 1163 450 1163 q 341 1152 376 1163 q 269 1116 306 1141 l 269 1263 q 338 1302 300 1290 q 426 1314 375 1314 q 494 1307 463 1314 q 567 1286 525 1300 q 635 1267 608 1274 q 690 1261 661 1261 q 770 1272 735 1261 q 842 1308 806 1283 l 842 1162 q 774 1124 811 1135 q 685 1112 737 1112 z "},"Æ":{"ha":1522,"x_min":10,"x_max":1465,"o":"m 985 214 l 1465 214 l 1465 0 l 727 0 l 706 251 l 362 251 l 281 0 l 10 0 l 355 1028 l 1458 1028 l 1458 814 l 929 814 l 947 632 l 1385 632 l 1385 418 l 966 418 l 985 214 m 430 465 l 688 465 l 660 814 l 541 814 l 430 465 z "},"Ǽ":{"ha":1522,"x_min":10,"x_max":1465,"o":"m 985 214 l 1465 214 l 1465 0 l 727 0 l 706 251 l 362 251 l 281 0 l 10 0 l 355 1028 l 1458 1028 l 1458 814 l 929 814 l 947 632 l 1385 632 l 1385 418 l 966 418 l 985 214 m 430 465 l 688 465 l 660 814 l 541 814 l 430 465 m 656 1104 l 792 1319 l 1079 1319 l 903 1104 l 656 1104 z "},"B":{"ha":992,"x_min":91,"x_max":956,"o":"m 767 530 q 905 452 854 511 q 956 294 956 392 q 903 126 956 194 q 729 23 850 58 q 409 -13 608 -13 q 251 -7 340 -13 q 91 9 161 -1 l 91 999 q 270 1030 171 1018 q 458 1041 369 1041 q 815 968 702 1041 q 928 749 928 895 q 884 610 928 669 q 767 530 841 551 m 492 846 q 363 833 426 846 l 363 625 l 503 625 q 630 652 592 625 q 668 735 668 678 q 651 798 668 774 q 596 834 634 822 q 492 846 558 846 m 485 183 q 616 196 568 183 q 683 235 663 209 q 702 304 702 262 q 685 374 702 347 q 629 413 667 400 q 526 425 590 425 l 363 425 l 363 188 q 485 183 415 183 z "},"C":{"ha":947,"x_min":58,"x_max":905,"o":"m 659 -14 q 211 116 363 -14 q 58 511 58 247 q 128 799 58 681 q 335 980 199 918 q 669 1042 472 1042 q 905 1017 796 1042 l 905 793 q 692 815 798 815 q 432 742 515 815 q 349 514 349 669 q 430 285 349 358 q 682 213 511 213 q 905 242 787 213 l 905 18 q 787 -6 851 3 q 659 -14 723 -14 z "},"Ć":{"ha":947,"x_min":58,"x_max":905,"o":"m 659 -14 q 211 116 363 -14 q 58 511 58 247 q 128 799 58 681 q 335 980 199 918 q 669 1042 472 1042 q 905 1017 796 1042 l 905 793 q 692 815 798 815 q 432 742 515 815 q 349 514 349 669 q 430 285 349 358 q 682 213 511 213 q 905 242 787 213 l 905 18 q 787 -6 851 3 q 659 -14 723 -14 m 442 1104 l 578 1319 l 865 1319 l 688 1104 l 442 1104 z "},"Č":{"ha":947,"x_min":58,"x_max":905,"o":"m 659 -14 q 211 116 363 -14 q 58 511 58 247 q 128 799 58 681 q 335 980 199 918 q 669 1042 472 1042 q 905 1017 796 1042 l 905 793 q 692 815 798 815 q 432 742 515 815 q 349 514 349 669 q 430 285 349 358 q 682 213 511 213 q 905 242 787 213 l 905 18 q 787 -6 851 3 q 659 -14 723 -14 m 674 1319 l 883 1319 l 681 1104 l 453 1104 l 251 1319 l 460 1319 l 567 1201 l 674 1319 z "},"Ç":{"ha":947,"x_min":58,"x_max":905,"o":"m 692 815 q 432 742 515 815 q 349 514 349 669 q 430 285 349 358 q 682 213 511 213 q 905 242 787 213 l 905 18 q 787 -6 851 3 q 659 -14 723 -14 q 615 -13 629 -14 l 615 -55 q 715 -97 681 -65 q 748 -181 748 -128 q 696 -279 748 -244 q 541 -314 644 -314 q 392 -292 462 -314 l 392 -194 q 459 -211 423 -206 q 528 -216 494 -216 q 591 -206 570 -216 q 611 -172 611 -195 q 590 -136 611 -147 q 528 -125 569 -125 l 490 -125 l 490 -1 q 168 160 277 33 q 58 511 58 288 q 128 799 58 681 q 335 980 199 918 q 669 1042 472 1042 q 905 1017 796 1042 l 905 793 q 692 815 798 815 z "},"Ḉ":{"ha":947,"x_min":58,"x_max":905,"o":"m 865 1319 l 688 1104 l 442 1104 l 578 1319 l 865 1319 m 692 815 q 432 742 515 815 q 349 514 349 669 q 430 285 349 358 q 682 213 511 213 q 905 242 787 213 l 905 18 q 787 -6 851 3 q 659 -14 723 -14 q 615 -13 629 -14 l 615 -55 q 715 -97 681 -65 q 748 -181 748 -128 q 696 -279 748 -244 q 541 -314 644 -314 q 392 -292 462 -314 l 392 -194 q 459 -211 423 -206 q 528 -216 494 -216 q 591 -206 570 -216 q 611 -172 611 -195 q 590 -136 611 -147 q 528 -125 569 -125 l 490 -125 l 490 -1 q 168 160 277 33 q 58 511 58 288 q 128 799 58 681 q 335 980 199 918 q 669 1042 472 1042 q 905 1017 796 1042 l 905 793 q 692 815 798 815 z "},"Ĉ":{"ha":947,"x_min":58,"x_max":905,"o":"m 659 -14 q 211 116 363 -14 q 58 511 58 247 q 128 799 58 681 q 335 980 199 918 q 669 1042 472 1042 q 905 1017 796 1042 l 905 793 q 692 815 798 815 q 432 742 515 815 q 349 514 349 669 q 430 285 349 358 q 682 213 511 213 q 905 242 787 213 l 905 18 q 787 -6 851 3 q 659 -14 723 -14 m 883 1104 l 674 1104 l 567 1223 l 460 1104 l 251 1104 l 453 1319 l 681 1319 l 883 1104 z "},"Ċ":{"ha":947,"x_min":58,"x_max":905,"o":"m 659 -14 q 211 116 363 -14 q 58 511 58 247 q 128 799 58 681 q 335 980 199 918 q 669 1042 472 1042 q 905 1017 796 1042 l 905 793 q 692 815 798 815 q 432 742 515 815 q 349 514 349 669 q 430 285 349 358 q 682 213 511 213 q 905 242 787 213 l 905 18 q 787 -6 851 3 q 659 -14 723 -14 m 567 1101 q 445 1131 485 1101 q 405 1215 405 1161 q 445 1300 405 1269 q 567 1330 485 1330 q 688 1300 648 1330 q 728 1215 728 1269 q 688 1131 728 1161 q 567 1101 648 1101 z "},"D":{"ha":1144,"x_min":91,"x_max":1086,"o":"m 408 -10 q 250 -6 334 -10 q 91 8 165 -1 l 91 999 q 271 1028 170 1017 q 465 1039 372 1039 q 930 910 774 1039 q 1086 514 1086 781 q 1012 214 1086 330 q 788 44 938 99 q 408 -10 639 -10 m 483 211 q 664 242 594 211 q 767 340 733 273 q 801 515 801 406 q 723 747 801 674 q 483 819 644 819 q 426 816 457 819 q 369 808 395 813 l 369 215 q 483 211 413 211 z "},"Ǳ":{"ha":2051,"x_min":91,"x_max":2002,"o":"m 408 -10 q 250 -6 334 -10 q 91 8 165 -1 l 91 999 q 271 1028 170 1017 q 465 1039 372 1039 q 930 910 774 1039 q 1086 514 1086 781 q 1012 214 1086 330 q 788 44 938 99 q 408 -10 639 -10 m 483 211 q 664 242 594 211 q 767 340 733 273 q 801 515 801 406 q 723 747 801 674 q 483 819 644 819 q 426 816 457 819 q 369 808 395 813 l 369 215 q 483 211 413 211 m 1514 224 l 2002 224 l 2002 0 l 1154 0 l 1154 151 l 1635 804 l 1162 804 l 1162 1028 l 1995 1028 l 1995 877 l 1514 224 z "},"Ǆ":{"ha":2051,"x_min":91,"x_max":2002,"o":"m 408 -10 q 250 -6 334 -10 q 91 8 165 -1 l 91 999 q 271 1028 170 1017 q 465 1039 372 1039 q 930 910 774 1039 q 1086 514 1086 781 q 1012 214 1086 330 q 788 44 938 99 q 408 -10 639 -10 m 483 211 q 664 242 594 211 q 767 340 733 273 q 801 515 801 406 q 723 747 801 674 q 483 819 644 819 q 426 816 457 819 q 369 808 395 813 l 369 215 q 483 211 413 211 m 1514 224 l 2002 224 l 2002 0 l 1154 0 l 1154 151 l 1635 804 l 1162 804 l 1162 1028 l 1995 1028 l 1995 877 l 1514 224 m 1686 1319 l 1895 1319 l 1693 1104 l 1465 1104 l 1263 1319 l 1472 1319 l 1579 1201 l 1686 1319 z "},"Ð":{"ha":1144,"x_min":4,"x_max":1086,"o":"m 465 1039 q 930 910 774 1039 q 1086 514 1086 781 q 1012 214 1086 330 q 788 44 938 99 q 408 -10 639 -10 q 250 -6 334 -10 q 91 8 165 -1 l 91 444 l 4 444 l 4 615 l 91 615 l 91 999 q 271 1028 170 1017 q 465 1039 372 1039 m 483 211 q 664 242 594 211 q 767 340 733 273 q 801 515 801 406 q 723 747 801 674 q 483 819 644 819 q 426 816 457 819 q 369 808 395 813 l 369 615 l 560 615 l 560 444 l 369 444 l 369 215 q 483 211 413 211 z "},"Ď":{"ha":1144,"x_min":91,"x_max":1086,"o":"m 408 -10 q 250 -6 334 -10 q 91 8 165 -1 l 91 999 q 271 1028 170 1017 q 465 1039 372 1039 q 930 910 774 1039 q 1086 514 1086 781 q 1012 214 1086 330 q 788 44 938 99 q 408 -10 639 -10 m 483 211 q 664 242 594 211 q 767 340 733 273 q 801 515 801 406 q 723 747 801 674 q 483 819 644 819 q 426 816 457 819 q 369 808 395 813 l 369 215 q 483 211 413 211 m 611 1319 l 820 1319 l 618 1104 l 390 1104 l 188 1319 l 397 1319 l 504 1201 l 611 1319 z "},"Đ":{"ha":1144,"x_min":4,"x_max":1086,"o":"m 465 1039 q 930 910 774 1039 q 1086 514 1086 781 q 1012 214 1086 330 q 788 44 938 99 q 408 -10 639 -10 q 250 -6 334 -10 q 91 8 165 -1 l 91 444 l 4 444 l 4 615 l 91 615 l 91 999 q 271 1028 170 1017 q 465 1039 372 1039 m 483 211 q 664 242 594 211 q 767 340 733 273 q 801 515 801 406 q 723 747 801 674 q 483 819 644 819 q 426 816 457 819 q 369 808 395 813 l 369 615 l 560 615 l 560 444 l 369 444 l 369 215 q 483 211 413 211 z "},"Ḍ":{"ha":1144,"x_min":91,"x_max":1086,"o":"m 408 -10 q 250 -6 334 -10 q 91 8 165 -1 l 91 999 q 271 1028 170 1017 q 465 1039 372 1039 q 930 910 774 1039 q 1086 514 1086 781 q 1012 214 1086 330 q 788 44 938 99 q 408 -10 639 -10 m 483 211 q 664 242 594 211 q 767 340 733 273 q 801 515 801 406 q 723 747 801 674 q 483 819 644 819 q 426 816 457 819 q 369 808 395 813 l 369 215 q 483 211 413 211 m 516 -308 q 394 -278 435 -308 q 354 -194 354 -248 q 394 -110 354 -140 q 516 -80 435 -80 q 638 -110 597 -80 q 678 -194 678 -140 q 638 -278 678 -248 q 516 -308 597 -308 z "},"Ḏ":{"ha":1144,"x_min":91,"x_max":1086,"o":"m 408 -10 q 250 -6 334 -10 q 91 8 165 -1 l 91 999 q 271 1028 170 1017 q 465 1039 372 1039 q 930 910 774 1039 q 1086 514 1086 781 q 1012 214 1086 330 q 788 44 938 99 q 408 -10 639 -10 m 483 211 q 664 242 594 211 q 767 340 733 273 q 801 515 801 406 q 723 747 801 674 q 483 819 644 819 q 426 816 457 819 q 369 808 395 813 l 369 215 q 483 211 413 211 m 233 -265 l 233 -110 l 799 -110 l 799 -265 l 233 -265 z "},"ǲ":{"ha":1933,"x_min":91,"x_max":1894,"o":"m 408 -10 q 250 -6 334 -10 q 91 8 165 -1 l 91 999 q 271 1028 170 1017 q 465 1039 372 1039 q 930 910 774 1039 q 1086 514 1086 781 q 1012 214 1086 330 q 788 44 938 99 q 408 -10 639 -10 m 483 211 q 664 242 594 211 q 767 340 733 273 q 801 515 801 406 q 723 747 801 674 q 483 819 644 819 q 426 816 457 819 q 369 808 395 813 l 369 215 q 483 211 413 211 m 1546 213 l 1894 213 l 1894 0 l 1197 0 l 1197 174 l 1538 550 l 1204 550 l 1204 762 l 1886 762 l 1886 588 l 1546 213 z "},"ǅ":{"ha":1933,"x_min":91,"x_max":1894,"o":"m 408 -10 q 250 -6 334 -10 q 91 8 165 -1 l 91 999 q 271 1028 170 1017 q 465 1039 372 1039 q 930 910 774 1039 q 1086 514 1086 781 q 1012 214 1086 330 q 788 44 938 99 q 408 -10 639 -10 m 483 211 q 664 242 594 211 q 767 340 733 273 q 801 515 801 406 q 723 747 801 674 q 483 819 644 819 q 426 816 457 819 q 369 808 395 813 l 369 215 q 483 211 413 211 m 1546 213 l 1894 213 l 1894 0 l 1197 0 l 1197 174 l 1538 550 l 1204 550 l 1204 762 l 1886 762 l 1886 588 l 1546 213 m 1653 1097 l 1862 1097 l 1660 882 l 1432 882 l 1230 1097 l 1439 1097 l 1546 978 l 1653 1097 z "},"E":{"ha":956,"x_min":91,"x_max":899,"o":"m 366 214 l 899 214 l 899 0 l 91 0 l 91 1028 l 892 1028 l 892 814 l 366 814 l 366 632 l 820 632 l 820 418 l 366 418 l 366 214 z "},"É":{"ha":956,"x_min":91,"x_max":899,"o":"m 366 214 l 899 214 l 899 0 l 91 0 l 91 1028 l 892 1028 l 892 814 l 366 814 l 366 632 l 820 632 l 820 418 l 366 418 l 366 214 m 382 1104 l 518 1319 l 805 1319 l 628 1104 l 382 1104 z "},"Ĕ":{"ha":956,"x_min":91,"x_max":899,"o":"m 366 214 l 899 214 l 899 0 l 91 0 l 91 1028 l 892 1028 l 892 814 l 366 814 l 366 632 l 820 632 l 820 418 l 366 418 l 366 214 m 507 1106 q 295 1163 370 1106 q 206 1317 220 1220 l 369 1317 q 507 1232 390 1232 q 602 1254 569 1232 q 644 1317 635 1276 l 808 1317 q 719 1163 794 1220 q 507 1106 644 1106 z "},"Ě":{"ha":956,"x_min":91,"x_max":899,"o":"m 366 214 l 899 214 l 899 0 l 91 0 l 91 1028 l 892 1028 l 892 814 l 366 814 l 366 632 l 820 632 l 820 418 l 366 418 l 366 214 m 614 1319 l 823 1319 l 621 1104 l 393 1104 l 191 1319 l 400 1319 l 507 1201 l 614 1319 z "},"Ḝ":{"ha":956,"x_min":91,"x_max":899,"o":"m 507 1106 q 295 1163 370 1106 q 206 1317 220 1220 l 369 1317 q 507 1232 390 1232 q 602 1254 569 1232 q 644 1317 635 1276 l 808 1317 q 719 1163 794 1220 q 507 1106 644 1106 m 553 0 l 553 -55 q 653 -97 619 -65 q 686 -181 686 -128 q 634 -279 686 -244 q 479 -314 582 -314 q 330 -292 400 -314 l 330 -194 q 397 -211 361 -206 q 466 -216 433 -216 q 529 -206 508 -216 q 549 -172 549 -195 q 528 -136 549 -147 q 466 -125 508 -125 l 428 -125 l 428 0 l 91 0 l 91 1028 l 892 1028 l 892 814 l 366 814 l 366 632 l 820 632 l 820 418 l 366 418 l 366 214 l 899 214 l 899 0 l 553 0 z "},"Ê":{"ha":956,"x_min":91,"x_max":899,"o":"m 366 214 l 899 214 l 899 0 l 91 0 l 91 1028 l 892 1028 l 892 814 l 366 814 l 366 632 l 820 632 l 820 418 l 366 418 l 366 214 m 823 1104 l 614 1104 l 507 1223 l 400 1104 l 191 1104 l 393 1319 l 621 1319 l 823 1104 z "},"Ế":{"ha":956,"x_min":91,"x_max":961,"o":"m 366 214 l 899 214 l 899 0 l 91 0 l 91 1028 l 892 1028 l 892 814 l 366 814 l 366 632 l 820 632 l 820 418 l 366 418 l 366 214 m 776 1433 l 961 1433 l 845 1266 l 696 1266 l 776 1433 m 393 1293 l 621 1293 l 823 1104 l 614 1104 l 507 1210 l 400 1104 l 191 1104 l 393 1293 z "},"Ệ":{"ha":956,"x_min":91,"x_max":899,"o":"m 366 214 l 899 214 l 899 0 l 91 0 l 91 1028 l 892 1028 l 892 814 l 366 814 l 366 632 l 820 632 l 820 418 l 366 418 l 366 214 m 507 -308 q 385 -278 426 -308 q 345 -194 345 -248 q 385 -110 345 -140 q 507 -80 426 -80 q 628 -110 588 -80 q 669 -194 669 -140 q 628 -278 669 -248 q 507 -308 588 -308 m 823 1104 l 614 1104 l 507 1223 l 400 1104 l 191 1104 l 393 1319 l 621 1319 l 823 1104 z "},"Ề":{"ha":956,"x_min":91,"x_max":899,"o":"m 366 214 l 899 214 l 899 0 l 91 0 l 91 1028 l 892 1028 l 892 814 l 366 814 l 366 632 l 820 632 l 820 418 l 366 418 l 366 214 m 871 1266 l 722 1266 l 606 1433 l 790 1433 l 871 1266 m 393 1293 l 621 1293 l 823 1104 l 614 1104 l 507 1210 l 400 1104 l 191 1104 l 393 1293 z "},"Ể":{"ha":956,"x_min":91,"x_max":953,"o":"m 366 214 l 899 214 l 899 0 l 91 0 l 91 1028 l 892 1028 l 892 814 l 366 814 l 366 632 l 820 632 l 820 418 l 366 418 l 366 214 m 759 1469 q 906 1448 859 1469 q 953 1383 953 1426 q 934 1340 953 1356 q 878 1306 915 1324 q 841 1285 853 1294 q 826 1266 828 1277 l 695 1266 q 717 1307 697 1292 q 774 1337 738 1322 q 807 1352 797 1347 q 817 1367 817 1358 q 739 1387 817 1387 q 600 1373 669 1387 l 600 1454 q 676 1465 632 1461 q 759 1469 721 1469 m 393 1293 l 621 1293 l 823 1104 l 614 1104 l 507 1210 l 400 1104 l 191 1104 l 393 1293 z "},"Ễ":{"ha":956,"x_min":91,"x_max":899,"o":"m 366 214 l 899 214 l 899 0 l 91 0 l 91 1028 l 892 1028 l 892 814 l 366 814 l 366 632 l 820 632 l 820 418 l 366 418 l 366 214 m 647 1428 q 732 1438 692 1428 q 823 1474 771 1449 l 823 1365 q 739 1332 778 1340 q 644 1323 699 1323 q 572 1328 606 1323 q 490 1344 538 1334 q 422 1359 449 1354 q 367 1363 394 1363 q 282 1353 322 1363 q 191 1317 243 1342 l 191 1426 q 276 1460 236 1451 q 369 1469 317 1469 q 442 1464 408 1469 q 524 1447 476 1458 q 592 1432 565 1437 q 647 1428 619 1428 m 393 1293 l 621 1293 l 823 1104 l 614 1104 l 507 1210 l 400 1104 l 191 1104 l 393 1293 z "},"Ȅ":{"ha":956,"x_min":91,"x_max":899,"o":"m 366 214 l 899 214 l 899 0 l 91 0 l 91 1028 l 892 1028 l 892 814 l 366 814 l 366 632 l 820 632 l 820 418 l 366 418 l 366 214 m 254 1104 l 135 1319 l 345 1319 l 451 1104 l 254 1104 m 563 1104 l 444 1319 l 653 1319 l 760 1104 l 563 1104 z "},"Ë":{"ha":956,"x_min":91,"x_max":899,"o":"m 366 214 l 899 214 l 899 0 l 91 0 l 91 1028 l 892 1028 l 892 814 l 366 814 l 366 632 l 820 632 l 820 418 l 366 418 l 366 214 m 313 1101 q 208 1131 243 1101 q 173 1215 173 1160 q 208 1300 173 1270 q 313 1330 243 1330 q 417 1300 383 1330 q 452 1215 452 1270 q 417 1131 452 1160 q 313 1101 383 1101 m 701 1101 q 597 1131 631 1101 q 562 1215 562 1160 q 597 1300 562 1270 q 701 1330 631 1330 q 806 1300 771 1330 q 841 1215 841 1270 q 806 1131 841 1160 q 701 1101 771 1101 z "},"Ė":{"ha":956,"x_min":91,"x_max":899,"o":"m 366 214 l 899 214 l 899 0 l 91 0 l 91 1028 l 892 1028 l 892 814 l 366 814 l 366 632 l 820 632 l 820 418 l 366 418 l 366 214 m 507 1101 q 385 1131 426 1101 q 345 1215 345 1161 q 385 1300 345 1269 q 507 1330 426 1330 q 628 1300 588 1330 q 669 1215 669 1269 q 628 1131 669 1161 q 507 1101 588 1101 z "},"Ẹ":{"ha":956,"x_min":91,"x_max":899,"o":"m 366 214 l 899 214 l 899 0 l 91 0 l 91 1028 l 892 1028 l 892 814 l 366 814 l 366 632 l 820 632 l 820 418 l 366 418 l 366 214 m 507 -308 q 385 -278 426 -308 q 345 -194 345 -248 q 385 -110 345 -140 q 507 -80 426 -80 q 628 -110 588 -80 q 669 -194 669 -140 q 628 -278 669 -248 q 507 -308 588 -308 z "},"È":{"ha":956,"x_min":91,"x_max":899,"o":"m 366 214 l 899 214 l 899 0 l 91 0 l 91 1028 l 892 1028 l 892 814 l 366 814 l 366 632 l 820 632 l 820 418 l 366 418 l 366 214 m 384 1104 l 208 1319 l 494 1319 l 630 1104 l 384 1104 z "},"Ẻ":{"ha":956,"x_min":91,"x_max":899,"o":"m 366 214 l 899 214 l 899 0 l 91 0 l 91 1028 l 892 1028 l 892 814 l 366 814 l 366 632 l 820 632 l 820 418 l 366 418 l 366 214 m 441 1104 q 464 1151 443 1135 q 520 1185 484 1168 q 553 1202 543 1196 q 563 1218 563 1209 q 543 1235 563 1230 q 485 1241 524 1241 q 346 1226 417 1241 l 346 1320 q 422 1332 378 1328 q 505 1336 465 1336 q 652 1311 605 1336 q 700 1238 700 1286 q 689 1200 700 1216 q 664 1174 678 1184 q 624 1150 649 1163 q 586 1127 599 1137 q 572 1104 574 1117 l 441 1104 z "},"Ȇ":{"ha":956,"x_min":91,"x_max":899,"o":"m 366 214 l 899 214 l 899 0 l 91 0 l 91 1028 l 892 1028 l 892 814 l 366 814 l 366 632 l 820 632 l 820 418 l 366 418 l 366 214 m 206 1107 q 295 1261 220 1204 q 507 1319 369 1319 q 719 1261 644 1319 q 808 1107 794 1203 l 644 1107 q 507 1192 624 1192 q 412 1170 445 1192 q 369 1107 379 1148 l 206 1107 z "},"Ē":{"ha":956,"x_min":91,"x_max":899,"o":"m 366 214 l 899 214 l 899 0 l 91 0 l 91 1028 l 892 1028 l 892 814 l 366 814 l 366 632 l 820 632 l 820 418 l 366 418 l 366 214 m 224 1135 l 224 1290 l 790 1290 l 790 1135 l 224 1135 z "},"Ḗ":{"ha":956,"x_min":91,"x_max":899,"o":"m 366 214 l 899 214 l 899 0 l 91 0 l 91 1028 l 892 1028 l 892 814 l 366 814 l 366 632 l 820 632 l 820 418 l 366 418 l 366 214 m 368 1369 l 503 1531 l 822 1531 l 647 1369 l 368 1369 m 224 1135 l 224 1290 l 790 1290 l 790 1135 l 224 1135 z "},"Ḕ":{"ha":956,"x_min":91,"x_max":899,"o":"m 366 214 l 899 214 l 899 0 l 91 0 l 91 1028 l 892 1028 l 892 814 l 366 814 l 366 632 l 820 632 l 820 418 l 366 418 l 366 214 m 368 1369 l 192 1531 l 510 1531 l 646 1369 l 368 1369 m 224 1135 l 224 1290 l 790 1290 l 790 1135 l 224 1135 z "},"Ę":{"ha":956,"x_min":91,"x_max":899,"o":"m 835 0 q 705 -67 742 -33 q 667 -142 667 -101 q 692 -193 667 -175 q 768 -211 717 -211 q 865 -192 812 -211 l 865 -292 q 728 -314 800 -314 q 569 -274 623 -314 q 515 -162 515 -233 q 542 -73 515 -114 q 628 0 568 -33 l 91 0 l 91 1028 l 892 1028 l 892 814 l 366 814 l 366 632 l 820 632 l 820 418 l 366 418 l 366 214 l 899 214 l 899 0 l 835 0 z "},"Ẽ":{"ha":956,"x_min":91,"x_max":899,"o":"m 366 214 l 899 214 l 899 0 l 91 0 l 91 1028 l 892 1028 l 892 814 l 366 814 l 366 632 l 820 632 l 820 418 l 366 418 l 366 214 m 636 1112 q 570 1118 600 1112 q 495 1139 540 1125 q 429 1157 456 1151 q 372 1163 401 1163 q 292 1152 327 1163 q 220 1116 257 1141 l 220 1263 q 289 1302 251 1290 q 378 1314 326 1314 q 445 1307 414 1314 q 519 1286 476 1300 q 586 1267 560 1274 q 642 1261 613 1261 q 722 1272 687 1261 q 794 1308 757 1283 l 794 1162 q 725 1124 763 1135 q 636 1112 688 1112 z "},"F":{"ha":932,"x_min":91,"x_max":892,"o":"m 892 808 l 369 808 l 369 605 l 817 605 l 817 386 l 369 386 l 369 0 l 91 0 l 91 1028 l 892 1028 l 892 808 z "},"G":{"ha":1079,"x_min":58,"x_max":987,"o":"m 987 500 l 987 13 q 702 -13 833 -13 q 218 118 378 -13 q 58 510 58 249 q 131 799 58 681 q 350 980 205 918 q 708 1042 495 1042 q 952 1017 833 1042 l 952 792 q 732 815 844 815 q 512 782 597 815 q 387 681 427 749 q 348 506 347 613 q 430 285 348 359 q 683 211 513 211 q 728 212 713 211 l 728 500 l 987 500 z "},"Ǵ":{"ha":1079,"x_min":58,"x_max":987,"o":"m 987 500 l 987 13 q 702 -13 833 -13 q 218 118 378 -13 q 58 510 58 249 q 131 799 58 681 q 350 980 205 918 q 708 1042 495 1042 q 952 1017 833 1042 l 952 792 q 732 815 844 815 q 512 782 597 815 q 387 681 427 749 q 348 506 347 613 q 430 285 348 359 q 683 211 513 211 q 728 212 713 211 l 728 500 l 987 500 m 482 1104 l 618 1319 l 905 1319 l 728 1104 l 482 1104 z "},"Ğ":{"ha":1079,"x_min":58,"x_max":987,"o":"m 987 500 l 987 13 q 702 -13 833 -13 q 218 118 378 -13 q 58 510 58 249 q 131 799 58 681 q 350 980 205 918 q 708 1042 495 1042 q 952 1017 833 1042 l 952 792 q 732 815 844 815 q 512 782 597 815 q 387 681 427 749 q 348 506 347 613 q 430 285 348 359 q 683 211 513 211 q 728 212 713 211 l 728 500 l 987 500 m 607 1106 q 395 1163 470 1106 q 306 1317 320 1220 l 469 1317 q 607 1232 490 1232 q 702 1254 669 1232 q 744 1317 735 1276 l 908 1317 q 819 1163 894 1220 q 607 1106 744 1106 z "},"Ǧ":{"ha":1079,"x_min":58,"x_max":987,"o":"m 987 500 l 987 13 q 702 -13 833 -13 q 218 118 378 -13 q 58 510 58 249 q 131 799 58 681 q 350 980 205 918 q 708 1042 495 1042 q 952 1017 833 1042 l 952 792 q 732 815 844 815 q 512 782 597 815 q 387 681 427 749 q 348 506 347 613 q 430 285 348 359 q 683 211 513 211 q 728 212 713 211 l 728 500 l 987 500 m 714 1319 l 923 1319 l 721 1104 l 493 1104 l 291 1319 l 500 1319 l 607 1201 l 714 1319 z "},"Ĝ":{"ha":1079,"x_min":58,"x_max":987,"o":"m 987 500 l 987 13 q 702 -13 833 -13 q 218 118 378 -13 q 58 510 58 249 q 131 799 58 681 q 350 980 205 918 q 708 1042 495 1042 q 952 1017 833 1042 l 952 792 q 732 815 844 815 q 512 782 597 815 q 387 681 427 749 q 348 506 347 613 q 430 285 348 359 q 683 211 513 211 q 728 212 713 211 l 728 500 l 987 500 m 923 1104 l 714 1104 l 607 1223 l 500 1104 l 291 1104 l 493 1319 l 721 1319 l 923 1104 z "},"Ģ":{"ha":1079,"x_min":58,"x_max":987,"o":"m 987 500 l 987 13 q 702 -13 833 -13 q 218 118 378 -13 q 58 510 58 249 q 131 799 58 681 q 350 980 205 918 q 708 1042 495 1042 q 952 1017 833 1042 l 952 792 q 732 815 844 815 q 512 782 597 815 q 387 681 427 749 q 348 506 347 613 q 430 285 348 359 q 683 211 513 211 q 728 212 713 211 l 728 500 l 987 500 m 606 -80 q 755 -194 755 -80 q 738 -278 755 -234 q 694 -353 722 -322 l 528 -353 q 569 -252 562 -294 q 485 -225 512 -247 q 459 -167 459 -203 q 606 -80 459 -80 z "},"Ġ":{"ha":1079,"x_min":58,"x_max":987,"o":"m 987 500 l 987 13 q 702 -13 833 -13 q 218 118 378 -13 q 58 510 58 249 q 131 799 58 681 q 350 980 205 918 q 708 1042 495 1042 q 952 1017 833 1042 l 952 792 q 732 815 844 815 q 512 782 597 815 q 387 681 427 749 q 348 506 347 613 q 430 285 348 359 q 683 211 513 211 q 728 212 713 211 l 728 500 l 987 500 m 607 1101 q 485 1131 526 1101 q 445 1215 445 1161 q 485 1300 445 1269 q 607 1330 526 1330 q 728 1300 688 1330 q 769 1215 769 1269 q 728 1131 769 1161 q 607 1101 688 1101 z "},"Ḡ":{"ha":1079,"x_min":58,"x_max":987,"o":"m 987 500 l 987 13 q 702 -13 833 -13 q 218 118 378 -13 q 58 510 58 249 q 131 799 58 681 q 350 980 205 918 q 708 1042 495 1042 q 952 1017 833 1042 l 952 792 q 732 815 844 815 q 512 782 597 815 q 387 681 427 749 q 348 506 347 613 q 430 285 348 359 q 683 211 513 211 q 728 212 713 211 l 728 500 l 987 500 m 324 1135 l 324 1290 l 890 1290 l 890 1135 l 324 1135 z "},"H":{"ha":1151,"x_min":91,"x_max":1060,"o":"m 91 0 l 91 1028 l 369 1028 l 369 645 l 782 645 l 782 1028 l 1060 1028 l 1060 0 l 782 0 l 782 405 l 369 405 l 369 0 l 91 0 z "},"Ħ":{"ha":1151,"x_min":4,"x_max":1147,"o":"m 1147 921 l 1147 753 l 1060 753 l 1060 0 l 782 0 l 782 405 l 369 405 l 369 0 l 91 0 l 91 753 l 4 753 l 4 921 l 91 921 l 91 1028 l 369 1028 l 369 921 l 782 921 l 782 1028 l 1060 1028 l 1060 921 l 1147 921 m 782 645 l 782 753 l 369 753 l 369 645 l 782 645 z "},"Ḫ":{"ha":1151,"x_min":91,"x_max":1060,"o":"m 91 0 l 91 1028 l 369 1028 l 369 645 l 782 645 l 782 1028 l 1060 1028 l 1060 0 l 782 0 l 782 405 l 369 405 l 369 0 l 91 0 m 576 -309 q 364 -251 439 -309 q 276 -97 289 -194 l 439 -97 q 576 -182 457 -182 q 714 -97 696 -182 l 877 -97 q 789 -251 864 -194 q 576 -309 714 -309 z "},"Ĥ":{"ha":1151,"x_min":91,"x_max":1060,"o":"m 91 0 l 91 1028 l 369 1028 l 369 645 l 782 645 l 782 1028 l 1060 1028 l 1060 0 l 782 0 l 782 405 l 369 405 l 369 0 l 91 0 m 892 1104 l 683 1104 l 576 1223 l 469 1104 l 260 1104 l 463 1319 l 690 1319 l 892 1104 z "},"Ḥ":{"ha":1151,"x_min":91,"x_max":1060,"o":"m 91 0 l 91 1028 l 369 1028 l 369 645 l 782 645 l 782 1028 l 1060 1028 l 1060 0 l 782 0 l 782 405 l 369 405 l 369 0 l 91 0 m 576 -308 q 455 -278 495 -308 q 415 -194 415 -248 q 455 -110 415 -140 q 576 -80 495 -80 q 698 -110 658 -80 q 738 -194 738 -140 q 698 -278 738 -248 q 576 -308 658 -308 z "},"I":{"ha":460,"x_min":91,"x_max":369,"o":"m 91 0 l 91 1028 l 369 1028 l 369 0 l 91 0 z "},"Í":{"ha":460,"x_min":91,"x_max":528,"o":"m 91 0 l 91 1028 l 369 1028 l 369 0 l 91 0 m 105 1104 l 241 1319 l 528 1319 l 351 1104 l 105 1104 z "},"Ĭ":{"ha":460,"x_min":-71,"x_max":531,"o":"m 91 0 l 91 1028 l 369 1028 l 369 0 l 91 0 m 230 1106 q 18 1163 93 1106 q -71 1317 -57 1220 l 92 1317 q 230 1232 113 1232 q 325 1254 292 1232 q 367 1317 358 1276 l 531 1317 q 442 1163 517 1220 q 230 1106 367 1106 z "},"Î":{"ha":460,"x_min":-86,"x_max":546,"o":"m 91 0 l 91 1028 l 369 1028 l 369 0 l 91 0 m 546 1104 l 337 1104 l 230 1223 l 123 1104 l -86 1104 l 116 1319 l 344 1319 l 546 1104 z "},"Ȉ":{"ha":460,"x_min":-142,"x_max":483,"o":"m 91 0 l 91 1028 l 369 1028 l 369 0 l 91 0 m -23 1104 l -142 1319 l 68 1319 l 174 1104 l -23 1104 m 285 1104 l 167 1319 l 376 1319 l 483 1104 l 285 1104 z "},"Ï":{"ha":460,"x_min":-104,"x_max":564,"o":"m 91 0 l 91 1028 l 369 1028 l 369 0 l 91 0 m 35 1101 q -69 1131 -34 1101 q -104 1215 -104 1160 q -69 1300 -104 1270 q 35 1330 -34 1330 q 140 1300 106 1330 q 175 1215 175 1270 q 140 1131 175 1160 q 35 1101 106 1101 m 424 1101 q 319 1131 354 1101 q 285 1215 285 1160 q 319 1300 285 1270 q 424 1330 354 1330 q 529 1300 494 1330 q 564 1215 564 1270 q 529 1131 564 1160 q 424 1101 494 1101 z "},"Ḯ":{"ha":460,"x_min":-104,"x_max":564,"o":"m 91 0 l 91 1028 l 369 1028 l 369 0 l 91 0 m 91 1369 l 226 1531 l 545 1531 l 369 1369 l 91 1369 m 35 1101 q -69 1131 -34 1101 q -104 1215 -104 1160 q -69 1300 -104 1270 q 35 1330 -34 1330 q 140 1300 106 1330 q 175 1215 175 1270 q 140 1131 175 1160 q 35 1101 106 1101 m 424 1101 q 319 1131 354 1101 q 285 1215 285 1160 q 319 1300 285 1270 q 424 1330 354 1330 q 529 1300 494 1330 q 564 1215 564 1270 q 529 1131 564 1160 q 424 1101 494 1101 z "},"İ":{"ha":460,"x_min":68,"x_max":392,"o":"m 91 0 l 91 1028 l 369 1028 l 369 0 l 91 0 m 230 1101 q 108 1131 149 1101 q 68 1215 68 1161 q 108 1300 68 1269 q 230 1330 149 1330 q 351 1300 311 1330 q 392 1215 392 1269 q 351 1131 392 1161 q 230 1101 311 1101 z "},"Ị":{"ha":460,"x_min":67,"x_max":391,"o":"m 91 0 l 91 1028 l 369 1028 l 369 0 l 91 0 m 229 -308 q 108 -278 148 -308 q 67 -194 67 -248 q 108 -110 67 -140 q 229 -80 148 -80 q 351 -110 310 -80 q 391 -194 391 -140 q 351 -278 391 -248 q 229 -308 310 -308 z "},"Ì":{"ha":460,"x_min":-69,"x_max":369,"o":"m 91 0 l 91 1028 l 369 1028 l 369 0 l 91 0 m 107 1104 l -69 1319 l 217 1319 l 353 1104 l 107 1104 z "},"Ỉ":{"ha":460,"x_min":69,"x_max":423,"o":"m 91 0 l 91 1028 l 369 1028 l 369 0 l 91 0 m 164 1104 q 186 1151 166 1135 q 243 1185 207 1168 q 276 1202 266 1196 q 285 1218 285 1209 q 266 1235 285 1230 q 208 1241 247 1241 q 69 1226 140 1241 l 69 1320 q 144 1332 101 1328 q 228 1336 188 1336 q 375 1311 328 1336 q 423 1238 423 1286 q 412 1200 423 1216 q 386 1174 401 1184 q 347 1150 372 1163 q 309 1127 322 1137 q 295 1104 297 1117 l 164 1104 z "},"Ȋ":{"ha":460,"x_min":-71,"x_max":531,"o":"m 91 0 l 91 1028 l 369 1028 l 369 0 l 91 0 m -71 1107 q 18 1261 -57 1204 q 230 1319 92 1319 q 442 1261 367 1319 q 531 1107 517 1203 l 367 1107 q 230 1192 347 1192 q 135 1170 168 1192 q 92 1107 102 1148 l -71 1107 z "},"Ī":{"ha":460,"x_min":-53,"x_max":513,"o":"m 91 0 l 91 1028 l 369 1028 l 369 0 l 91 0 m -53 1135 l -53 1290 l 513 1290 l 513 1135 l -53 1135 z "},"Į":{"ha":460,"x_min":49,"x_max":399,"o":"m 302 -211 q 399 -192 346 -211 l 399 -292 q 263 -314 334 -314 q 103 -274 157 -314 q 49 -162 49 -233 q 76 -73 49 -114 q 162 0 102 -33 l 91 0 l 91 1028 l 369 1028 l 369 0 q 239 -67 276 -33 q 201 -142 201 -101 q 226 -193 201 -175 q 302 -211 251 -211 z "},"Ĩ":{"ha":460,"x_min":-57,"x_max":517,"o":"m 91 0 l 91 1028 l 369 1028 l 369 0 l 91 0 m 359 1112 q 293 1118 323 1112 q 218 1139 263 1125 q 152 1157 179 1151 q 95 1163 124 1163 q 15 1152 50 1163 q -57 1116 -20 1141 l -57 1263 q 12 1302 -26 1290 q 101 1314 49 1314 q 168 1307 137 1314 q 242 1286 199 1300 q 309 1267 283 1274 q 365 1261 335 1261 q 445 1272 410 1261 q 517 1308 480 1283 l 517 1162 q 448 1124 485 1135 q 359 1112 411 1112 z "},"J":{"ha":460,"x_min":-13,"x_max":369,"o":"m -13 -129 q 69 22 45 -56 q 92 209 92 99 l 92 1028 l 369 1028 l 369 215 q 320 -28 368 82 q 160 -246 273 -137 l -13 -129 z "},"Ĵ":{"ha":460,"x_min":-85,"x_max":547,"o":"m -13 -129 q 69 22 45 -56 q 92 209 92 99 l 92 1028 l 369 1028 l 369 215 q 320 -28 368 82 q 160 -246 273 -137 l -13 -129 m 547 1104 l 338 1104 l 231 1223 l 124 1104 l -85 1104 l 117 1319 l 345 1319 l 547 1104 z "},"K":{"ha":1000,"x_min":91,"x_max":1033,"o":"m 731 0 l 455 405 l 369 405 l 369 0 l 91 0 l 91 1028 l 369 1028 l 369 645 l 455 645 l 709 1028 l 1001 1028 l 672 531 l 1033 0 l 731 0 z "},"Ķ":{"ha":1000,"x_min":91,"x_max":1033,"o":"m 731 0 l 455 405 l 369 405 l 369 0 l 91 0 l 91 1028 l 369 1028 l 369 645 l 455 645 l 709 1028 l 1001 1028 l 672 531 l 1033 0 l 731 0 m 524 -80 q 672 -194 672 -80 q 656 -278 672 -234 q 612 -353 639 -322 l 446 -353 q 487 -252 479 -294 q 403 -225 429 -247 q 376 -167 376 -203 q 524 -80 376 -80 z "},"L":{"ha":871,"x_min":91,"x_max":863,"o":"m 91 0 l 91 1028 l 369 1028 l 369 224 l 863 224 l 863 0 l 91 0 z "},"Ǉ":{"ha":1331,"x_min":91,"x_max":1240,"o":"m 91 0 l 91 1028 l 369 1028 l 369 224 l 863 224 l 863 0 l 91 0 m 858 -129 q 940 22 916 -56 q 963 209 963 99 l 963 1028 l 1240 1028 l 1240 215 q 1191 -28 1239 82 q 1031 -246 1144 -137 l 858 -129 z "},"Ĺ":{"ha":871,"x_min":91,"x_max":863,"o":"m 91 0 l 91 1028 l 369 1028 l 369 224 l 863 224 l 863 0 l 91 0 m 106 1104 l 242 1319 l 529 1319 l 353 1104 l 106 1104 z "},"Ľ":{"ha":871,"x_min":91,"x_max":863,"o":"m 91 0 l 91 1028 l 369 1028 l 369 224 l 863 224 l 863 0 l 91 0 m 559 792 q 575 943 571 869 q 580 1122 580 1017 l 757 1122 q 703 792 757 929 l 559 792 z "},"Ļ":{"ha":871,"x_min":91,"x_max":863,"o":"m 91 0 l 91 1028 l 369 1028 l 369 224 l 863 224 l 863 0 l 91 0 m 476 -80 q 625 -194 625 -80 q 608 -278 625 -234 q 565 -353 592 -322 l 399 -353 q 440 -252 432 -294 q 356 -225 382 -247 q 329 -167 329 -203 q 476 -80 329 -80 z "},"Ŀ":{"ha":871,"x_min":91,"x_max":863,"o":"m 91 0 l 91 1028 l 369 1028 l 369 224 l 863 224 l 863 0 l 91 0 m 658 492 q 494 625 494 492 q 658 758 494 758 q 822 625 822 758 q 658 492 822 492 z "},"Ḷ":{"ha":871,"x_min":91,"x_max":863,"o":"m 91 0 l 91 1028 l 369 1028 l 369 224 l 863 224 l 863 0 l 91 0 m 477 -308 q 356 -278 396 -308 q 315 -194 315 -248 q 356 -110 315 -140 q 477 -80 396 -80 q 599 -110 558 -80 q 639 -194 639 -140 q 599 -278 639 -248 q 477 -308 558 -308 z "},"ǈ":{"ha":1306,"x_min":91,"x_max":1248,"o":"m 91 0 l 91 1028 l 369 1028 l 369 224 l 863 224 l 863 0 l 91 0 m 846 -215 q 928 -64 905 -141 q 952 124 952 13 l 952 762 l 1225 762 l 1225 134 q 1177 -110 1225 0 q 1019 -329 1130 -220 l 846 -215 m 1084 853 q 920 987 920 853 q 1084 1119 920 1119 q 1248 987 1248 1119 q 1084 853 1248 853 z "},"Ḻ":{"ha":871,"x_min":91,"x_max":863,"o":"m 91 0 l 91 1028 l 369 1028 l 369 224 l 863 224 l 863 0 l 91 0 m 194 -265 l 194 -110 l 760 -110 l 760 -265 l 194 -265 z "},"Ł":{"ha":878,"x_min":-34,"x_max":870,"o":"m 376 224 l 870 224 l 870 0 l 98 0 l 98 418 l 42 390 l -34 543 l 98 610 l 98 1028 l 376 1028 l 376 751 l 572 849 l 648 697 l 376 559 l 376 224 z "},"M":{"ha":1406,"x_min":94,"x_max":1313,"o":"m 974 1028 l 1313 1028 l 1313 0 l 1053 0 l 1053 676 l 817 151 l 590 151 l 353 653 l 353 0 l 94 0 l 94 1028 l 433 1028 l 707 426 l 974 1028 z "},"Ṃ":{"ha":1406,"x_min":94,"x_max":1313,"o":"m 974 1028 l 1313 1028 l 1313 0 l 1053 0 l 1053 676 l 817 151 l 590 151 l 353 653 l 353 0 l 94 0 l 94 1028 l 433 1028 l 707 426 l 974 1028 m 722 -308 q 600 -278 640 -308 q 560 -194 560 -248 q 600 -110 560 -140 q 722 -80 640 -80 q 843 -110 803 -80 q 883 -194 883 -140 q 843 -278 883 -248 q 722 -308 803 -308 z "},"N":{"ha":1161,"x_min":91,"x_max":1070,"o":"m 808 1028 l 1070 1028 l 1070 0 l 792 0 l 353 628 l 353 0 l 91 0 l 91 1028 l 369 1028 l 808 399 l 808 1028 z "},"Ǌ":{"ha":1622,"x_min":91,"x_max":1531,"o":"m 808 1028 l 1070 1028 l 1070 0 l 792 0 l 353 628 l 353 0 l 91 0 l 91 1028 l 369 1028 l 808 399 l 808 1028 m 1148 -129 q 1230 22 1206 -56 q 1253 209 1253 99 l 1253 1028 l 1531 1028 l 1531 215 q 1482 -28 1529 82 q 1322 -246 1434 -137 l 1148 -129 z "},"Ń":{"ha":1161,"x_min":91,"x_max":1070,"o":"m 808 1028 l 1070 1028 l 1070 0 l 792 0 l 353 628 l 353 0 l 91 0 l 91 1028 l 369 1028 l 808 399 l 808 1028 m 456 1104 l 592 1319 l 878 1319 l 702 1104 l 456 1104 z "},"Ň":{"ha":1161,"x_min":91,"x_max":1070,"o":"m 808 1028 l 1070 1028 l 1070 0 l 792 0 l 353 628 l 353 0 l 91 0 l 91 1028 l 369 1028 l 808 399 l 808 1028 m 688 1319 l 897 1319 l 694 1104 l 467 1104 l 265 1319 l 474 1319 l 581 1201 l 688 1319 z "},"Ņ":{"ha":1161,"x_min":91,"x_max":1070,"o":"m 808 1028 l 1070 1028 l 1070 0 l 792 0 l 353 628 l 353 0 l 91 0 l 91 1028 l 369 1028 l 808 399 l 808 1028 m 580 -80 q 728 -194 728 -80 q 712 -278 728 -234 q 668 -353 695 -322 l 502 -353 q 543 -252 535 -294 q 459 -225 485 -247 q 433 -167 433 -203 q 580 -80 433 -80 z "},"Ṅ":{"ha":1161,"x_min":91,"x_max":1070,"o":"m 808 1028 l 1070 1028 l 1070 0 l 792 0 l 353 628 l 353 0 l 91 0 l 91 1028 l 369 1028 l 808 399 l 808 1028 m 581 1101 q 459 1131 499 1101 q 419 1215 419 1161 q 459 1300 419 1269 q 581 1330 499 1330 q 702 1300 662 1330 q 742 1215 742 1269 q 702 1131 742 1161 q 581 1101 662 1101 z "},"Ṇ":{"ha":1161,"x_min":91,"x_max":1070,"o":"m 808 1028 l 1070 1028 l 1070 0 l 792 0 l 353 628 l 353 0 l 91 0 l 91 1028 l 369 1028 l 808 399 l 808 1028 m 581 -308 q 459 -278 499 -308 q 419 -194 419 -248 q 459 -110 419 -140 q 581 -80 499 -80 q 702 -110 662 -80 q 742 -194 742 -140 q 702 -278 742 -248 q 581 -308 662 -308 z "},"Ŋ":{"ha":1161,"x_min":91,"x_max":1070,"o":"m 1070 1028 l 1070 158 q 1050 -25 1070 57 q 985 -181 1030 -107 q 864 -329 940 -255 l 692 -215 q 758 -114 733 -164 q 796 -8 783 -65 l 353 628 l 353 0 l 91 0 l 91 1028 l 369 1028 l 808 401 l 808 1028 l 1070 1028 z "},"ǋ":{"ha":1597,"x_min":91,"x_max":1538,"o":"m 808 1028 l 1070 1028 l 1070 0 l 792 0 l 353 628 l 353 0 l 91 0 l 91 1028 l 369 1028 l 808 399 l 808 1028 m 1136 -215 q 1219 -64 1195 -141 q 1242 124 1242 13 l 1242 762 l 1515 762 l 1515 134 q 1468 -110 1515 0 q 1309 -329 1420 -220 l 1136 -215 m 1374 853 q 1210 987 1210 853 q 1374 1119 1210 1119 q 1538 987 1538 1119 q 1374 853 1538 853 z "},"Ṉ":{"ha":1161,"x_min":91,"x_max":1070,"o":"m 808 1028 l 1070 1028 l 1070 0 l 792 0 l 353 628 l 353 0 l 91 0 l 91 1028 l 369 1028 l 808 399 l 808 1028 m 297 -265 l 297 -110 l 864 -110 l 864 -265 l 297 -265 z "},"Ñ":{"ha":1161,"x_min":91,"x_max":1070,"o":"m 808 1028 l 1070 1028 l 1070 0 l 792 0 l 353 628 l 353 0 l 91 0 l 91 1028 l 369 1028 l 808 399 l 808 1028 m 710 1112 q 643 1118 674 1112 q 569 1139 613 1125 q 502 1157 530 1151 q 446 1163 475 1163 q 366 1152 401 1163 q 294 1116 331 1141 l 294 1263 q 363 1302 325 1290 q 451 1314 400 1314 q 519 1307 488 1314 q 592 1286 550 1300 q 660 1267 633 1274 q 715 1261 686 1261 q 795 1272 760 1261 q 867 1308 831 1283 l 867 1162 q 799 1124 836 1135 q 710 1112 762 1112 z "},"O":{"ha":1199,"x_min":58,"x_max":1140,"o":"m 599 -14 q 312 47 433 -14 q 124 226 190 108 q 58 514 58 344 q 124 802 58 683 q 312 981 190 920 q 599 1042 433 1042 q 887 981 765 1042 q 1074 801 1008 919 q 1140 514 1140 682 q 1074 227 1140 346 q 886 47 1008 108 q 599 -14 765 -14 m 599 206 q 790 282 724 206 q 856 509 856 357 q 790 744 856 667 q 599 822 724 822 q 409 747 476 822 q 342 519 342 672 q 408 282 342 358 q 599 206 474 206 z "},"Ó":{"ha":1199,"x_min":58,"x_max":1140,"o":"m 599 -14 q 312 47 433 -14 q 124 226 190 108 q 58 514 58 344 q 124 802 58 683 q 312 981 190 920 q 599 1042 433 1042 q 887 981 765 1042 q 1074 801 1008 919 q 1140 514 1140 682 q 1074 227 1140 346 q 886 47 1008 108 q 599 -14 765 -14 m 599 206 q 790 282 724 206 q 856 509 856 357 q 790 744 856 667 q 599 822 724 822 q 409 747 476 822 q 342 519 342 672 q 408 282 342 358 q 599 206 474 206 m 474 1104 l 610 1319 l 897 1319 l 721 1104 l 474 1104 z "},"Ŏ":{"ha":1199,"x_min":58,"x_max":1140,"o":"m 599 -14 q 312 47 433 -14 q 124 226 190 108 q 58 514 58 344 q 124 802 58 683 q 312 981 190 920 q 599 1042 433 1042 q 887 981 765 1042 q 1074 801 1008 919 q 1140 514 1140 682 q 1074 227 1140 346 q 886 47 1008 108 q 599 -14 765 -14 m 599 206 q 790 282 724 206 q 856 509 856 357 q 790 744 856 667 q 599 822 724 822 q 409 747 476 822 q 342 519 342 672 q 408 282 342 358 q 599 206 474 206 m 599 1106 q 388 1163 463 1106 q 299 1317 313 1220 l 462 1317 q 599 1232 482 1232 q 694 1254 661 1232 q 737 1317 727 1276 l 900 1317 q 811 1163 886 1220 q 599 1106 737 1106 z "},"Ô":{"ha":1199,"x_min":58,"x_max":1140,"o":"m 599 -14 q 312 47 433 -14 q 124 226 190 108 q 58 514 58 344 q 124 802 58 683 q 312 981 190 920 q 599 1042 433 1042 q 887 981 765 1042 q 1074 801 1008 919 q 1140 514 1140 682 q 1074 227 1140 346 q 886 47 1008 108 q 599 -14 765 -14 m 599 206 q 790 282 724 206 q 856 509 856 357 q 790 744 856 667 q 599 822 724 822 q 409 747 476 822 q 342 519 342 672 q 408 282 342 358 q 599 206 474 206 m 915 1104 l 706 1104 l 599 1223 l 492 1104 l 283 1104 l 485 1319 l 713 1319 l 915 1104 z "},"Ố":{"ha":1199,"x_min":58,"x_max":1140,"o":"m 599 -14 q 312 47 433 -14 q 124 226 190 108 q 58 514 58 344 q 124 802 58 683 q 312 981 190 920 q 599 1042 433 1042 q 887 981 765 1042 q 1074 801 1008 919 q 1140 514 1140 682 q 1074 227 1140 346 q 886 47 1008 108 q 599 -14 765 -14 m 599 206 q 790 282 724 206 q 856 509 856 357 q 790 744 856 667 q 599 822 724 822 q 409 747 476 822 q 342 519 342 672 q 408 282 342 358 q 599 206 474 206 m 869 1433 l 1053 1433 l 938 1266 l 788 1266 l 869 1433 m 485 1293 l 713 1293 l 915 1104 l 706 1104 l 599 1210 l 492 1104 l 283 1104 l 485 1293 z "},"Ộ":{"ha":1199,"x_min":58,"x_max":1140,"o":"m 599 -14 q 312 47 433 -14 q 124 226 190 108 q 58 514 58 344 q 124 802 58 683 q 312 981 190 920 q 599 1042 433 1042 q 887 981 765 1042 q 1074 801 1008 919 q 1140 514 1140 682 q 1074 227 1140 346 q 886 47 1008 108 q 599 -14 765 -14 m 599 206 q 790 282 724 206 q 856 509 856 357 q 790 744 856 667 q 599 822 724 822 q 409 747 476 822 q 342 519 342 672 q 408 282 342 358 q 599 206 474 206 m 599 -308 q 478 -278 518 -308 q 438 -194 438 -248 q 478 -110 438 -140 q 599 -80 518 -80 q 721 -110 681 -80 q 761 -194 761 -140 q 721 -278 761 -248 q 599 -308 681 -308 m 915 1104 l 706 1104 l 599 1223 l 492 1104 l 283 1104 l 485 1319 l 713 1319 l 915 1104 z "},"Ồ":{"ha":1199,"x_min":58,"x_max":1140,"o":"m 599 -14 q 312 47 433 -14 q 124 226 190 108 q 58 514 58 344 q 124 802 58 683 q 312 981 190 920 q 599 1042 433 1042 q 887 981 765 1042 q 1074 801 1008 919 q 1140 514 1140 682 q 1074 227 1140 346 q 886 47 1008 108 q 599 -14 765 -14 m 599 206 q 790 282 724 206 q 856 509 856 357 q 790 744 856 667 q 599 822 724 822 q 409 747 476 822 q 342 519 342 672 q 408 282 342 358 q 599 206 474 206 m 963 1266 l 814 1266 l 699 1433 l 883 1433 l 963 1266 m 485 1293 l 713 1293 l 915 1104 l 706 1104 l 599 1210 l 492 1104 l 283 1104 l 485 1293 z "},"Ổ":{"ha":1199,"x_min":58,"x_max":1140,"o":"m 599 -14 q 312 47 433 -14 q 124 226 190 108 q 58 514 58 344 q 124 802 58 683 q 312 981 190 920 q 599 1042 433 1042 q 887 981 765 1042 q 1074 801 1008 919 q 1140 514 1140 682 q 1074 227 1140 346 q 886 47 1008 108 q 599 -14 765 -14 m 599 206 q 790 282 724 206 q 856 509 856 357 q 790 744 856 667 q 599 822 724 822 q 409 747 476 822 q 342 519 342 672 q 408 282 342 358 q 599 206 474 206 m 851 1469 q 999 1448 951 1469 q 1046 1383 1046 1426 q 1026 1340 1046 1356 q 970 1306 1007 1324 q 933 1285 945 1294 q 919 1266 921 1277 l 788 1266 q 810 1307 790 1292 q 867 1337 830 1322 q 899 1352 890 1347 q 909 1367 909 1358 q 831 1387 909 1387 q 692 1373 761 1387 l 692 1454 q 769 1465 724 1461 q 851 1469 813 1469 m 485 1293 l 713 1293 l 915 1104 l 706 1104 l 599 1210 l 492 1104 l 283 1104 l 485 1293 z "},"Ỗ":{"ha":1199,"x_min":58,"x_max":1140,"o":"m 599 -14 q 312 47 433 -14 q 124 226 190 108 q 58 514 58 344 q 124 802 58 683 q 312 981 190 920 q 599 1042 433 1042 q 887 981 765 1042 q 1074 801 1008 919 q 1140 514 1140 682 q 1074 227 1140 346 q 886 47 1008 108 q 599 -14 765 -14 m 599 206 q 790 282 724 206 q 856 509 856 357 q 790 744 856 667 q 599 822 724 822 q 409 747 476 822 q 342 519 342 672 q 408 282 342 358 q 599 206 474 206 m 739 1428 q 824 1438 785 1428 q 915 1474 863 1449 l 915 1365 q 831 1332 871 1340 q 737 1323 791 1323 q 664 1328 699 1323 q 583 1344 630 1334 q 514 1359 541 1354 q 460 1363 487 1363 q 375 1353 414 1363 q 283 1317 335 1342 l 283 1426 q 369 1460 328 1451 q 462 1469 409 1469 q 534 1464 500 1469 q 616 1447 569 1458 q 685 1432 658 1437 q 739 1428 712 1428 m 485 1293 l 713 1293 l 915 1104 l 706 1104 l 599 1210 l 492 1104 l 283 1104 l 485 1293 z "},"Ȍ":{"ha":1199,"x_min":58,"x_max":1140,"o":"m 599 -14 q 312 47 433 -14 q 124 226 190 108 q 58 514 58 344 q 124 802 58 683 q 312 981 190 920 q 599 1042 433 1042 q 887 981 765 1042 q 1074 801 1008 919 q 1140 514 1140 682 q 1074 227 1140 346 q 886 47 1008 108 q 599 -14 765 -14 m 599 206 q 790 282 724 206 q 856 509 856 357 q 790 744 856 667 q 599 822 724 822 q 409 747 476 822 q 342 519 342 672 q 408 282 342 358 q 599 206 474 206 m 347 1104 l 228 1319 l 438 1319 l 544 1104 l 347 1104 m 655 1104 l 536 1319 l 746 1319 l 852 1104 l 655 1104 z "},"Ö":{"ha":1199,"x_min":58,"x_max":1140,"o":"m 599 -14 q 312 47 433 -14 q 124 226 190 108 q 58 514 58 344 q 124 802 58 683 q 312 981 190 920 q 599 1042 433 1042 q 887 981 765 1042 q 1074 801 1008 919 q 1140 514 1140 682 q 1074 227 1140 346 q 886 47 1008 108 q 599 -14 765 -14 m 599 206 q 790 282 724 206 q 856 509 856 357 q 790 744 856 667 q 599 822 724 822 q 409 747 476 822 q 342 519 342 672 q 408 282 342 358 q 599 206 474 206 m 405 1101 q 300 1131 335 1101 q 265 1215 265 1160 q 300 1300 265 1270 q 405 1330 335 1330 q 510 1300 475 1330 q 544 1215 544 1270 q 510 1131 544 1160 q 405 1101 475 1101 m 794 1101 q 689 1131 724 1101 q 654 1215 654 1160 q 689 1300 654 1270 q 794 1330 724 1330 q 898 1300 863 1330 q 933 1215 933 1270 q 898 1131 933 1160 q 794 1101 863 1101 z "},"Ȫ":{"ha":1199,"x_min":58,"x_max":1140,"o":"m 599 -14 q 312 47 433 -14 q 124 226 190 108 q 58 514 58 344 q 124 802 58 683 q 312 981 190 920 q 599 1042 433 1042 q 887 981 765 1042 q 1074 801 1008 919 q 1140 514 1140 682 q 1074 227 1140 346 q 886 47 1008 108 q 599 -14 765 -14 m 599 206 q 790 282 724 206 q 856 509 856 357 q 790 744 856 667 q 599 822 724 822 q 409 747 476 822 q 342 519 342 672 q 408 282 342 358 q 599 206 474 206 m 405 1101 q 300 1131 335 1101 q 265 1215 265 1160 q 300 1300 265 1270 q 405 1330 335 1330 q 510 1300 475 1330 q 544 1215 544 1270 q 510 1131 544 1160 q 405 1101 475 1101 m 794 1101 q 689 1131 724 1101 q 654 1215 654 1160 q 689 1300 654 1270 q 794 1330 724 1330 q 898 1300 863 1330 q 933 1215 933 1270 q 898 1131 933 1160 q 794 1101 863 1101 m 316 1401 l 316 1556 l 883 1556 l 883 1401 l 316 1401 z "},"Ȱ":{"ha":1199,"x_min":58,"x_max":1140,"o":"m 599 -14 q 312 47 433 -14 q 124 226 190 108 q 58 514 58 344 q 124 802 58 683 q 312 981 190 920 q 599 1042 433 1042 q 887 981 765 1042 q 1074 801 1008 919 q 1140 514 1140 682 q 1074 227 1140 346 q 886 47 1008 108 q 599 -14 765 -14 m 599 206 q 790 282 724 206 q 856 509 856 357 q 790 744 856 667 q 599 822 724 822 q 409 747 476 822 q 342 519 342 672 q 408 282 342 358 q 599 206 474 206 m 599 1101 q 478 1131 518 1101 q 438 1215 438 1161 q 478 1300 438 1269 q 599 1330 518 1330 q 721 1300 681 1330 q 761 1215 761 1269 q 721 1131 761 1161 q 599 1101 681 1101 m 316 1401 l 316 1556 l 883 1556 l 883 1401 l 316 1401 z "},"Ọ":{"ha":1199,"x_min":58,"x_max":1140,"o":"m 599 -14 q 312 47 433 -14 q 124 226 190 108 q 58 514 58 344 q 124 802 58 683 q 312 981 190 920 q 599 1042 433 1042 q 887 981 765 1042 q 1074 801 1008 919 q 1140 514 1140 682 q 1074 227 1140 346 q 886 47 1008 108 q 599 -14 765 -14 m 599 206 q 790 282 724 206 q 856 509 856 357 q 790 744 856 667 q 599 822 724 822 q 409 747 476 822 q 342 519 342 672 q 408 282 342 358 q 599 206 474 206 m 599 -308 q 478 -278 518 -308 q 438 -194 438 -248 q 478 -110 438 -140 q 599 -80 518 -80 q 721 -110 681 -80 q 761 -194 761 -140 q 721 -278 761 -248 q 599 -308 681 -308 z "},"Ò":{"ha":1199,"x_min":58,"x_max":1140,"o":"m 599 -14 q 312 47 433 -14 q 124 226 190 108 q 58 514 58 344 q 124 802 58 683 q 312 981 190 920 q 599 1042 433 1042 q 887 981 765 1042 q 1074 801 1008 919 q 1140 514 1140 682 q 1074 227 1140 346 q 886 47 1008 108 q 599 -14 765 -14 m 599 206 q 790 282 724 206 q 856 509 856 357 q 790 744 856 667 q 599 822 724 822 q 409 747 476 822 q 342 519 342 672 q 408 282 342 358 q 599 206 474 206 m 476 1104 l 300 1319 l 587 1319 l 722 1104 l 476 1104 z "},"Ỏ":{"ha":1199,"x_min":58,"x_max":1140,"o":"m 599 -14 q 312 47 433 -14 q 124 226 190 108 q 58 514 58 344 q 124 802 58 683 q 312 981 190 920 q 599 1042 433 1042 q 887 981 765 1042 q 1074 801 1008 919 q 1140 514 1140 682 q 1074 227 1140 346 q 886 47 1008 108 q 599 -14 765 -14 m 599 206 q 790 282 724 206 q 856 509 856 357 q 790 744 856 667 q 599 822 724 822 q 409 747 476 822 q 342 519 342 672 q 408 282 342 358 q 599 206 474 206 m 533 1104 q 556 1151 535 1135 q 613 1185 576 1168 q 645 1202 635 1196 q 655 1218 655 1209 q 636 1235 655 1230 q 577 1241 617 1241 q 438 1226 509 1241 l 438 1320 q 514 1332 470 1328 q 597 1336 558 1336 q 745 1311 697 1336 q 792 1238 792 1286 q 782 1200 792 1216 q 756 1174 771 1184 q 716 1150 741 1163 q 679 1127 691 1137 q 665 1104 667 1117 l 533 1104 z "},"Ơ":{"ha":1199,"x_min":58,"x_max":1151,"o":"m 986 913 q 1101 744 1061 845 q 1140 514 1140 644 q 1075 226 1140 345 q 887 47 1009 108 q 599 -14 765 -14 q 311 47 433 -14 q 124 226 190 108 q 58 514 58 344 q 124 802 58 683 q 312 981 190 920 q 599 1042 433 1042 q 675 1038 635 1042 q 723 1034 715 1035 q 832 1027 799 1027 q 937 1052 903 1027 q 971 1136 971 1077 q 960 1233 971 1176 l 1137 1233 q 1148 1181 1145 1206 q 1151 1126 1151 1156 q 1108 982 1151 1035 q 986 913 1065 928 m 599 206 q 790 282 724 206 q 856 509 856 357 q 790 744 856 667 q 599 822 724 822 q 409 747 476 822 q 342 519 342 672 q 408 282 342 358 q 599 206 474 206 z "},"Ớ":{"ha":1199,"x_min":58,"x_max":1151,"o":"m 986 913 q 1101 744 1061 845 q 1140 514 1140 644 q 1075 226 1140 345 q 887 47 1009 108 q 599 -14 765 -14 q 311 47 433 -14 q 124 226 190 108 q 58 514 58 344 q 124 802 58 683 q 312 981 190 920 q 599 1042 433 1042 q 675 1038 635 1042 q 723 1034 715 1035 q 832 1027 799 1027 q 937 1052 903 1027 q 971 1136 971 1077 q 960 1233 971 1176 l 1137 1233 q 1148 1181 1145 1206 q 1151 1126 1151 1156 q 1108 982 1151 1035 q 986 913 1065 928 m 599 206 q 790 282 724 206 q 856 509 856 357 q 790 744 856 667 q 599 822 724 822 q 409 747 476 822 q 342 519 342 672 q 408 282 342 358 q 599 206 474 206 m 474 1104 l 610 1319 l 897 1319 l 721 1104 l 474 1104 z "},"Ợ":{"ha":1199,"x_min":58,"x_max":1151,"o":"m 986 913 q 1101 744 1061 845 q 1140 514 1140 644 q 1075 226 1140 345 q 887 47 1009 108 q 599 -14 765 -14 q 311 47 433 -14 q 124 226 190 108 q 58 514 58 344 q 124 802 58 683 q 312 981 190 920 q 599 1042 433 1042 q 675 1038 635 1042 q 723 1034 715 1035 q 832 1027 799 1027 q 937 1052 903 1027 q 971 1136 971 1077 q 960 1233 971 1176 l 1137 1233 q 1148 1181 1145 1206 q 1151 1126 1151 1156 q 1108 982 1151 1035 q 986 913 1065 928 m 599 206 q 790 282 724 206 q 856 509 856 357 q 790 744 856 667 q 599 822 724 822 q 409 747 476 822 q 342 519 342 672 q 408 282 342 358 q 599 206 474 206 m 599 -308 q 478 -278 518 -308 q 438 -194 438 -248 q 478 -110 438 -140 q 599 -80 518 -80 q 721 -110 681 -80 q 761 -194 761 -140 q 721 -278 761 -248 q 599 -308 681 -308 z "},"Ờ":{"ha":1199,"x_min":58,"x_max":1151,"o":"m 986 913 q 1101 744 1061 845 q 1140 514 1140 644 q 1075 226 1140 345 q 887 47 1009 108 q 599 -14 765 -14 q 311 47 433 -14 q 124 226 190 108 q 58 514 58 344 q 124 802 58 683 q 312 981 190 920 q 599 1042 433 1042 q 675 1038 635 1042 q 723 1034 715 1035 q 832 1027 799 1027 q 937 1052 903 1027 q 971 1136 971 1077 q 960 1233 971 1176 l 1137 1233 q 1148 1181 1145 1206 q 1151 1126 1151 1156 q 1108 982 1151 1035 q 986 913 1065 928 m 599 206 q 790 282 724 206 q 856 509 856 357 q 790 744 856 667 q 599 822 724 822 q 409 747 476 822 q 342 519 342 672 q 408 282 342 358 q 599 206 474 206 m 476 1104 l 300 1319 l 587 1319 l 722 1104 l 476 1104 z "},"Ở":{"ha":1199,"x_min":58,"x_max":1151,"o":"m 986 913 q 1101 744 1061 845 q 1140 514 1140 644 q 1075 226 1140 345 q 887 47 1009 108 q 599 -14 765 -14 q 311 47 433 -14 q 124 226 190 108 q 58 514 58 344 q 124 802 58 683 q 312 981 190 920 q 599 1042 433 1042 q 675 1038 635 1042 q 723 1034 715 1035 q 832 1027 799 1027 q 937 1052 903 1027 q 971 1136 971 1077 q 960 1233 971 1176 l 1137 1233 q 1148 1181 1145 1206 q 1151 1126 1151 1156 q 1108 982 1151 1035 q 986 913 1065 928 m 599 206 q 790 282 724 206 q 856 509 856 357 q 790 744 856 667 q 599 822 724 822 q 409 747 476 822 q 342 519 342 672 q 408 282 342 358 q 599 206 474 206 m 533 1104 q 556 1151 535 1135 q 613 1185 576 1168 q 645 1202 635 1196 q 655 1218 655 1209 q 636 1235 655 1230 q 577 1241 617 1241 q 438 1226 509 1241 l 438 1320 q 514 1332 470 1328 q 597 1336 558 1336 q 745 1311 697 1336 q 792 1238 792 1286 q 782 1200 792 1216 q 756 1174 771 1184 q 716 1150 741 1163 q 679 1127 691 1137 q 665 1104 667 1117 l 533 1104 z "},"Ỡ":{"ha":1199,"x_min":58,"x_max":1151,"o":"m 726 1112 q 660 1119 690 1112 q 588 1139 630 1126 q 522 1157 549 1151 q 467 1163 496 1163 q 390 1152 424 1163 q 319 1116 356 1141 l 319 1263 q 386 1302 350 1290 q 473 1314 422 1314 q 540 1307 508 1314 q 611 1286 571 1299 q 677 1267 652 1273 q 731 1261 703 1261 q 809 1272 775 1261 q 879 1308 843 1283 l 879 1162 q 813 1124 849 1135 q 726 1112 776 1112 m 986 913 q 1101 744 1061 845 q 1140 514 1140 644 q 1075 226 1140 345 q 887 47 1009 108 q 599 -14 765 -14 q 311 47 433 -14 q 124 226 190 108 q 58 514 58 344 q 124 802 58 683 q 312 981 190 920 q 599 1042 433 1042 q 675 1038 635 1042 q 723 1034 715 1035 q 832 1027 799 1027 q 937 1052 903 1027 q 971 1136 971 1077 q 960 1233 971 1176 l 1137 1233 q 1148 1181 1145 1206 q 1151 1126 1151 1156 q 1108 982 1151 1035 q 986 913 1065 928 m 599 206 q 790 282 724 206 q 856 509 856 357 q 790 744 856 667 q 599 822 724 822 q 409 747 476 822 q 342 519 342 672 q 408 282 342 358 q 599 206 474 206 z "},"Ő":{"ha":1199,"x_min":58,"x_max":1140,"o":"m 599 -14 q 312 47 433 -14 q 124 226 190 108 q 58 514 58 344 q 124 802 58 683 q 312 981 190 920 q 599 1042 433 1042 q 887 981 765 1042 q 1074 801 1008 919 q 1140 514 1140 682 q 1074 227 1140 346 q 886 47 1008 108 q 599 -14 765 -14 m 599 206 q 790 282 724 206 q 856 509 856 357 q 790 744 856 667 q 599 822 724 822 q 409 747 476 822 q 342 519 342 672 q 408 282 342 358 q 599 206 474 206 m 347 1104 l 453 1319 l 663 1319 l 544 1104 l 347 1104 m 655 1104 l 761 1319 l 971 1319 l 852 1104 l 655 1104 z "},"Ȏ":{"ha":1199,"x_min":58,"x_max":1140,"o":"m 599 -14 q 312 47 433 -14 q 124 226 190 108 q 58 514 58 344 q 124 802 58 683 q 312 981 190 920 q 599 1042 433 1042 q 887 981 765 1042 q 1074 801 1008 919 q 1140 514 1140 682 q 1074 227 1140 346 q 886 47 1008 108 q 599 -14 765 -14 m 599 206 q 790 282 724 206 q 856 509 856 357 q 790 744 856 667 q 599 822 724 822 q 409 747 476 822 q 342 519 342 672 q 408 282 342 358 q 599 206 474 206 m 299 1107 q 387 1261 313 1204 q 599 1319 462 1319 q 811 1261 736 1319 q 900 1107 886 1203 l 737 1107 q 599 1192 717 1192 q 505 1170 538 1192 q 462 1107 472 1148 l 299 1107 z "},"Ō":{"ha":1199,"x_min":58,"x_max":1140,"o":"m 599 -14 q 312 47 433 -14 q 124 226 190 108 q 58 514 58 344 q 124 802 58 683 q 312 981 190 920 q 599 1042 433 1042 q 887 981 765 1042 q 1074 801 1008 919 q 1140 514 1140 682 q 1074 227 1140 346 q 886 47 1008 108 q 599 -14 765 -14 m 599 206 q 790 282 724 206 q 856 509 856 357 q 790 744 856 667 q 599 822 724 822 q 409 747 476 822 q 342 519 342 672 q 408 282 342 358 q 599 206 474 206 m 316 1135 l 316 1290 l 883 1290 l 883 1135 l 316 1135 z "},"Ṓ":{"ha":1199,"x_min":58,"x_max":1140,"o":"m 599 -14 q 312 47 433 -14 q 124 226 190 108 q 58 514 58 344 q 124 802 58 683 q 312 981 190 920 q 599 1042 433 1042 q 887 981 765 1042 q 1074 801 1008 919 q 1140 514 1140 682 q 1074 227 1140 346 q 886 47 1008 108 q 599 -14 765 -14 m 599 206 q 790 282 724 206 q 856 509 856 357 q 790 744 856 667 q 599 822 724 822 q 409 747 476 822 q 342 519 342 672 q 408 282 342 358 q 599 206 474 206 m 460 1369 l 596 1531 l 915 1531 l 739 1369 l 460 1369 m 316 1135 l 316 1290 l 883 1290 l 883 1135 l 316 1135 z "},"Ṑ":{"ha":1199,"x_min":58,"x_max":1140,"o":"m 599 -14 q 312 47 433 -14 q 124 226 190 108 q 58 514 58 344 q 124 802 58 683 q 312 981 190 920 q 599 1042 433 1042 q 887 981 765 1042 q 1074 801 1008 919 q 1140 514 1140 682 q 1074 227 1140 346 q 886 47 1008 108 q 599 -14 765 -14 m 599 206 q 790 282 724 206 q 856 509 856 357 q 790 744 856 667 q 599 822 724 822 q 409 747 476 822 q 342 519 342 672 q 408 282 342 358 q 599 206 474 206 m 460 1369 l 284 1531 l 603 1531 l 738 1369 l 460 1369 m 316 1135 l 316 1290 l 883 1290 l 883 1135 l 316 1135 z "},"Ǫ":{"ha":1199,"x_min":58,"x_max":1140,"o":"m 779 8 q 627 -59 671 -21 q 583 -142 583 -97 q 607 -193 583 -175 q 683 -211 631 -211 q 780 -192 726 -211 l 780 -292 q 643 -314 715 -314 q 484 -274 538 -314 q 430 -162 430 -233 q 452 -79 430 -117 q 523 -10 474 -41 q 274 67 378 3 q 114 244 170 131 q 58 514 58 358 q 124 802 58 683 q 312 981 190 920 q 599 1042 433 1042 q 887 981 765 1042 q 1074 801 1008 920 q 1140 514 1140 683 q 1092 265 1140 369 q 964 97 1044 160 q 779 8 883 34 m 342 519 q 408 282 342 358 q 599 206 474 206 q 790 282 724 206 q 856 509 856 357 q 790 744 856 667 q 599 822 724 822 q 409 747 476 822 q 342 519 342 672 z "},"Ø":{"ha":1199,"x_min":58,"x_max":1140,"o":"m 1011 888 q 1107 726 1074 821 q 1140 514 1140 632 q 1074 227 1140 346 q 886 47 1008 108 q 599 -14 765 -14 q 297 54 422 -14 l 217 -39 l 112 51 l 188 139 q 91 300 124 206 q 58 514 58 394 q 124 802 58 683 q 312 981 190 920 q 599 1042 433 1042 q 901 974 776 1042 l 981 1067 l 1087 977 l 1011 888 m 342 519 q 368 351 342 419 l 741 786 q 599 822 684 822 q 409 747 476 822 q 342 519 342 672 m 599 206 q 790 282 724 206 q 856 509 856 357 q 829 676 856 610 l 456 240 q 599 206 514 206 z "},"Ǿ":{"ha":1199,"x_min":58,"x_max":1140,"o":"m 1011 888 q 1107 726 1074 821 q 1140 514 1140 632 q 1074 227 1140 346 q 886 47 1008 108 q 599 -14 765 -14 q 297 54 422 -14 l 217 -39 l 112 51 l 188 139 q 91 300 124 206 q 58 514 58 394 q 124 802 58 683 q 312 981 190 920 q 599 1042 433 1042 q 901 974 776 1042 l 981 1067 l 1087 977 l 1011 888 m 342 519 q 368 351 342 419 l 741 786 q 599 822 684 822 q 409 747 476 822 q 342 519 342 672 m 599 206 q 790 282 724 206 q 856 509 856 357 q 829 676 856 610 l 456 240 q 599 206 514 206 m 472 1104 l 608 1319 l 894 1319 l 718 1104 l 472 1104 z "},"Õ":{"ha":1199,"x_min":58,"x_max":1140,"o":"m 599 -14 q 312 47 433 -14 q 124 226 190 108 q 58 514 58 344 q 124 802 58 683 q 312 981 190 920 q 599 1042 433 1042 q 887 981 765 1042 q 1074 801 1008 919 q 1140 514 1140 682 q 1074 227 1140 346 q 886 47 1008 108 q 599 -14 765 -14 m 599 206 q 790 282 724 206 q 856 509 856 357 q 790 744 856 667 q 599 822 724 822 q 409 747 476 822 q 342 519 342 672 q 408 282 342 358 q 599 206 474 206 m 728 1112 q 662 1118 692 1112 q 588 1139 632 1125 q 521 1157 549 1151 q 465 1163 494 1163 q 384 1152 419 1163 q 313 1116 349 1141 l 313 1263 q 381 1302 344 1290 q 470 1314 419 1314 q 538 1307 506 1314 q 611 1286 569 1300 q 678 1267 652 1274 q 734 1261 705 1261 q 814 1272 779 1261 q 886 1308 849 1283 l 886 1162 q 818 1124 855 1135 q 728 1112 781 1112 z "},"Ṍ":{"ha":1199,"x_min":58,"x_max":1140,"o":"m 599 -14 q 312 47 433 -14 q 124 226 190 108 q 58 514 58 344 q 124 802 58 683 q 312 981 190 920 q 599 1042 433 1042 q 887 981 765 1042 q 1074 801 1008 919 q 1140 514 1140 682 q 1074 227 1140 346 q 886 47 1008 108 q 599 -14 765 -14 m 599 206 q 790 282 724 206 q 856 509 856 357 q 790 744 856 667 q 599 822 724 822 q 409 747 476 822 q 342 519 342 672 q 408 282 342 358 q 599 206 474 206 m 460 1369 l 596 1531 l 915 1531 l 739 1369 l 460 1369 m 728 1112 q 662 1118 692 1112 q 588 1139 632 1125 q 521 1157 549 1151 q 465 1163 494 1163 q 384 1152 419 1163 q 313 1116 349 1141 l 313 1263 q 381 1302 344 1290 q 470 1314 419 1314 q 538 1307 506 1314 q 611 1286 569 1300 q 678 1267 652 1274 q 734 1261 705 1261 q 814 1272 779 1261 q 886 1308 849 1283 l 886 1162 q 818 1124 855 1135 q 728 1112 781 1112 z "},"Ṏ":{"ha":1199,"x_min":58,"x_max":1140,"o":"m 599 -14 q 312 47 433 -14 q 124 226 190 108 q 58 514 58 344 q 124 802 58 683 q 312 981 190 920 q 599 1042 433 1042 q 887 981 765 1042 q 1074 801 1008 919 q 1140 514 1140 682 q 1074 227 1140 346 q 886 47 1008 108 q 599 -14 765 -14 m 599 206 q 790 282 724 206 q 856 509 856 357 q 790 744 856 667 q 599 822 724 822 q 409 747 476 822 q 342 519 342 672 q 408 282 342 358 q 599 206 474 206 m 728 1112 q 662 1118 692 1112 q 588 1139 632 1125 q 521 1157 549 1151 q 465 1163 494 1163 q 384 1152 419 1163 q 313 1116 349 1141 l 313 1263 q 381 1302 344 1290 q 470 1314 419 1314 q 538 1307 506 1314 q 611 1286 569 1300 q 678 1267 652 1274 q 734 1261 705 1261 q 814 1272 779 1261 q 886 1308 849 1283 l 886 1162 q 818 1124 855 1135 q 728 1112 781 1112 m 405 1367 q 300 1397 335 1367 q 265 1481 265 1426 q 300 1566 265 1536 q 405 1596 335 1596 q 510 1566 475 1596 q 544 1481 544 1536 q 510 1397 544 1426 q 405 1367 475 1367 m 794 1367 q 689 1397 724 1367 q 654 1481 654 1426 q 689 1566 654 1536 q 794 1596 724 1596 q 898 1566 863 1596 q 933 1481 933 1536 q 898 1397 933 1426 q 794 1367 863 1367 z "},"Ȭ":{"ha":1199,"x_min":58,"x_max":1140,"o":"m 599 -14 q 312 47 433 -14 q 124 226 190 108 q 58 514 58 344 q 124 802 58 683 q 312 981 190 920 q 599 1042 433 1042 q 887 981 765 1042 q 1074 801 1008 919 q 1140 514 1140 682 q 1074 227 1140 346 q 886 47 1008 108 q 599 -14 765 -14 m 599 206 q 790 282 724 206 q 856 509 856 357 q 790 744 856 667 q 599 822 724 822 q 409 747 476 822 q 342 519 342 672 q 408 282 342 358 q 599 206 474 206 m 728 1112 q 662 1118 692 1112 q 588 1139 632 1125 q 521 1157 549 1151 q 465 1163 494 1163 q 384 1152 419 1163 q 313 1116 349 1141 l 313 1263 q 381 1302 344 1290 q 470 1314 419 1314 q 538 1307 506 1314 q 611 1286 569 1300 q 678 1267 652 1274 q 734 1261 705 1261 q 814 1272 779 1261 q 886 1308 849 1283 l 886 1162 q 818 1124 855 1135 q 728 1112 781 1112 m 316 1401 l 316 1556 l 883 1556 l 883 1401 l 316 1401 z "},"Œ":{"ha":1603,"x_min":58,"x_max":1547,"o":"m 1547 214 l 1547 0 l 956 0 q 829 -4 915 0 q 717 -8 750 -8 q 346 46 491 -8 q 130 215 201 100 q 58 514 58 331 q 223 909 58 781 q 711 1037 387 1037 q 828 1033 748 1037 q 953 1028 901 1028 l 1540 1028 l 1540 814 l 1038 814 l 1038 632 l 1467 632 l 1467 418 l 1038 418 l 1038 214 l 1547 214 m 763 811 q 651 815 717 815 q 417 743 493 815 q 342 513 342 672 q 417 284 342 355 q 651 213 493 213 q 763 217 729 213 l 763 811 z "},"P":{"ha":988,"x_min":91,"x_max":936,"o":"m 91 1008 q 438 1041 268 1041 q 813 949 690 1041 q 936 662 936 857 q 817 378 936 474 q 464 283 697 283 q 400 284 442 283 l 369 285 l 369 0 l 91 0 l 91 1008 m 466 483 q 619 524 572 483 q 667 661 667 565 q 618 798 667 756 q 465 841 569 841 q 369 833 410 841 l 369 489 q 466 483 419 483 z "},"Þ":{"ha":994,"x_min":91,"x_max":936,"o":"m 91 1028 l 369 1028 l 369 903 q 443 907 422 907 q 814 815 692 907 q 936 528 936 724 q 817 244 936 340 q 466 149 699 149 q 369 151 432 149 l 369 0 l 91 0 l 91 1028 m 466 349 q 619 390 572 349 q 667 527 667 431 q 618 664 667 622 q 465 707 569 707 q 369 699 410 707 l 369 354 q 466 349 415 349 z "},"Q":{"ha":1199,"x_min":58,"x_max":1140,"o":"m 1140 514 q 1052 192 1140 320 q 790 25 963 65 q 1130 -35 940 -12 l 1086 -247 q 469 -84 696 -190 q 151 167 243 22 q 58 506 58 312 q 124 799 58 679 q 311 981 190 919 q 599 1042 433 1042 q 887 981 765 1042 q 1074 801 1008 920 q 1140 514 1140 683 m 342 519 q 407 282 342 357 q 599 206 472 206 q 790 282 724 206 q 856 509 856 357 q 790 744 856 667 q 599 822 724 822 q 409 747 476 822 q 342 519 342 672 z "},"R":{"ha":1027,"x_min":91,"x_max":1020,"o":"m 717 0 l 463 358 q 425 358 447 358 q 391 360 403 359 l 364 361 l 364 0 l 91 0 l 91 999 q 266 1030 170 1018 q 449 1041 363 1041 q 809 958 689 1041 q 928 701 928 875 q 877 519 928 594 q 731 403 826 444 l 1020 0 l 717 0 m 364 565 q 478 558 426 558 q 623 591 576 558 q 669 700 669 625 q 622 809 669 775 q 478 844 575 844 q 364 833 421 844 l 364 565 z "},"Ŕ":{"ha":1027,"x_min":91,"x_max":1020,"o":"m 717 0 l 463 358 q 425 358 447 358 q 391 360 403 359 l 364 361 l 364 0 l 91 0 l 91 999 q 266 1030 170 1018 q 449 1041 363 1041 q 809 958 689 1041 q 928 701 928 875 q 877 519 928 594 q 731 403 826 444 l 1020 0 l 717 0 m 364 565 q 478 558 426 558 q 623 591 576 558 q 669 700 669 625 q 622 809 669 775 q 478 844 575 844 q 364 833 421 844 l 364 565 m 387 1104 l 523 1319 l 810 1319 l 633 1104 l 387 1104 z "},"Ř":{"ha":1027,"x_min":91,"x_max":1020,"o":"m 717 0 l 463 358 q 425 358 447 358 q 391 360 403 359 l 364 361 l 364 0 l 91 0 l 91 999 q 266 1030 170 1018 q 449 1041 363 1041 q 809 958 689 1041 q 928 701 928 875 q 877 519 928 594 q 731 403 826 444 l 1020 0 l 717 0 m 364 565 q 478 558 426 558 q 623 591 576 558 q 669 700 669 625 q 622 809 669 775 q 478 844 575 844 q 364 833 421 844 l 364 565 m 619 1319 l 828 1319 l 626 1104 l 398 1104 l 196 1319 l 405 1319 l 512 1201 l 619 1319 z "},"Ŗ":{"ha":1027,"x_min":91,"x_max":1020,"o":"m 717 0 l 463 358 q 425 358 447 358 q 391 360 403 359 l 364 361 l 364 0 l 91 0 l 91 999 q 266 1030 170 1018 q 449 1041 363 1041 q 809 958 689 1041 q 928 701 928 875 q 877 519 928 594 q 731 403 826 444 l 1020 0 l 717 0 m 364 565 q 478 558 426 558 q 623 591 576 558 q 669 700 669 625 q 622 809 669 775 q 478 844 575 844 q 364 833 421 844 l 364 565 m 535 -80 q 684 -194 684 -80 q 667 -278 684 -234 q 624 -353 651 -322 l 458 -353 q 499 -252 491 -294 q 415 -225 441 -247 q 388 -167 388 -203 q 535 -80 388 -80 z "},"Ȑ":{"ha":1027,"x_min":91,"x_max":1020,"o":"m 717 0 l 463 358 q 425 358 447 358 q 391 360 403 359 l 364 361 l 364 0 l 91 0 l 91 999 q 266 1030 170 1018 q 449 1041 363 1041 q 809 958 689 1041 q 928 701 928 875 q 877 519 928 594 q 731 403 826 444 l 1020 0 l 717 0 m 364 565 q 478 558 426 558 q 623 591 576 558 q 669 700 669 625 q 622 809 669 775 q 478 844 575 844 q 364 833 421 844 l 364 565 m 259 1104 l 140 1319 l 350 1319 l 456 1104 l 259 1104 m 567 1104 l 449 1319 l 658 1319 l 765 1104 l 567 1104 z "},"Ṛ":{"ha":1027,"x_min":91,"x_max":1020,"o":"m 717 0 l 463 358 q 425 358 447 358 q 391 360 403 359 l 364 361 l 364 0 l 91 0 l 91 999 q 266 1030 170 1018 q 449 1041 363 1041 q 809 958 689 1041 q 928 701 928 875 q 877 519 928 594 q 731 403 826 444 l 1020 0 l 717 0 m 364 565 q 478 558 426 558 q 623 591 576 558 q 669 700 669 625 q 622 809 669 775 q 478 844 575 844 q 364 833 421 844 l 364 565 m 536 -308 q 415 -278 455 -308 q 374 -194 374 -248 q 415 -110 374 -140 q 536 -80 455 -80 q 658 -110 617 -80 q 698 -194 698 -140 q 658 -278 698 -248 q 536 -308 617 -308 z "},"Ȓ":{"ha":1027,"x_min":91,"x_max":1020,"o":"m 717 0 l 463 358 q 425 358 447 358 q 391 360 403 359 l 364 361 l 364 0 l 91 0 l 91 999 q 266 1030 170 1018 q 449 1041 363 1041 q 809 958 689 1041 q 928 701 928 875 q 877 519 928 594 q 731 403 826 444 l 1020 0 l 717 0 m 364 565 q 478 558 426 558 q 623 591 576 558 q 669 700 669 625 q 622 809 669 775 q 478 844 575 844 q 364 833 421 844 l 364 565 m 211 1107 q 300 1261 225 1204 q 512 1319 374 1319 q 724 1261 649 1319 q 813 1107 799 1203 l 649 1107 q 512 1192 629 1192 q 417 1170 450 1192 q 374 1107 384 1148 l 211 1107 z "},"Ṟ":{"ha":1027,"x_min":91,"x_max":1020,"o":"m 717 0 l 463 358 q 425 358 447 358 q 391 360 403 359 l 364 361 l 364 0 l 91 0 l 91 999 q 266 1030 170 1018 q 449 1041 363 1041 q 809 958 689 1041 q 928 701 928 875 q 877 519 928 594 q 731 403 826 444 l 1020 0 l 717 0 m 364 565 q 478 558 426 558 q 623 591 576 558 q 669 700 669 625 q 622 809 669 775 q 478 844 575 844 q 364 833 421 844 l 364 565 m 253 -265 l 253 -110 l 819 -110 l 819 -265 l 253 -265 z "},"S":{"ha":879,"x_min":40,"x_max":839,"o":"m 389 -14 q 68 33 218 -14 l 68 253 q 225 218 135 231 q 389 205 314 205 q 525 228 485 205 q 565 298 565 252 q 553 340 565 323 q 513 369 542 356 q 430 393 483 381 l 340 413 q 113 521 186 447 q 40 717 40 595 q 159 957 40 873 q 513 1042 278 1042 q 782 1010 663 1042 l 782 789 q 662 814 731 805 q 526 823 594 823 q 363 798 411 823 q 315 729 315 774 q 325 690 315 706 q 359 663 335 675 q 429 641 384 651 l 519 621 q 763 510 687 584 q 839 315 839 436 q 785 139 839 213 q 630 26 731 65 q 389 -14 528 -14 z "},"Ś":{"ha":879,"x_min":40,"x_max":839,"o":"m 389 -14 q 68 33 218 -14 l 68 253 q 225 218 135 231 q 389 205 314 205 q 525 228 485 205 q 565 298 565 252 q 553 340 565 323 q 513 369 542 356 q 430 393 483 381 l 340 413 q 113 521 186 447 q 40 717 40 595 q 159 957 40 873 q 513 1042 278 1042 q 782 1010 663 1042 l 782 789 q 662 814 731 805 q 526 823 594 823 q 363 798 411 823 q 315 729 315 774 q 325 690 315 706 q 359 663 335 675 q 429 641 384 651 l 519 621 q 763 510 687 584 q 839 315 839 436 q 785 139 839 213 q 630 26 731 65 q 389 -14 528 -14 m 324 1104 l 460 1319 l 747 1319 l 570 1104 l 324 1104 z "},"Ṥ":{"ha":879,"x_min":40,"x_max":839,"o":"m 389 -14 q 68 33 218 -14 l 68 253 q 225 218 135 231 q 389 205 314 205 q 525 228 485 205 q 565 298 565 252 q 553 340 565 323 q 513 369 542 356 q 430 393 483 381 l 340 413 q 113 521 186 447 q 40 717 40 595 q 159 957 40 873 q 513 1042 278 1042 q 782 1010 663 1042 l 782 789 q 662 814 731 805 q 526 823 594 823 q 363 798 411 823 q 315 729 315 774 q 325 690 315 706 q 359 663 335 675 q 429 641 384 651 l 519 621 q 763 510 687 584 q 839 315 839 436 q 785 139 839 213 q 630 26 731 65 q 389 -14 528 -14 m 264 1292 q 167 1316 199 1292 q 134 1384 134 1340 q 166 1452 134 1428 q 264 1477 199 1477 q 362 1452 329 1477 q 394 1384 394 1428 q 362 1316 394 1340 q 264 1292 329 1292 m 324 1104 l 460 1319 l 747 1319 l 570 1104 l 324 1104 z "},"Š":{"ha":879,"x_min":40,"x_max":839,"o":"m 389 -14 q 68 33 218 -14 l 68 253 q 225 218 135 231 q 389 205 314 205 q 525 228 485 205 q 565 298 565 252 q 553 340 565 323 q 513 369 542 356 q 430 393 483 381 l 340 413 q 113 521 186 447 q 40 717 40 595 q 159 957 40 873 q 513 1042 278 1042 q 782 1010 663 1042 l 782 789 q 662 814 731 805 q 526 823 594 823 q 363 798 411 823 q 315 729 315 774 q 325 690 315 706 q 359 663 335 675 q 429 641 384 651 l 519 621 q 763 510 687 584 q 839 315 839 436 q 785 139 839 213 q 630 26 731 65 q 389 -14 528 -14 m 556 1319 l 765 1319 l 563 1104 l 335 1104 l 133 1319 l 342 1319 l 449 1201 l 556 1319 z "},"Ṧ":{"ha":879,"x_min":40,"x_max":839,"o":"m 389 -14 q 68 33 218 -14 l 68 253 q 225 218 135 231 q 389 205 314 205 q 525 228 485 205 q 565 298 565 252 q 553 340 565 323 q 513 369 542 356 q 430 393 483 381 l 340 413 q 113 521 186 447 q 40 717 40 595 q 159 957 40 873 q 513 1042 278 1042 q 782 1010 663 1042 l 782 789 q 662 814 731 805 q 526 823 594 823 q 363 798 411 823 q 315 729 315 774 q 325 690 315 706 q 359 663 335 675 q 429 641 384 651 l 519 621 q 763 510 687 584 q 839 315 839 436 q 785 139 839 213 q 630 26 731 65 q 389 -14 528 -14 m 449 1344 q 351 1368 383 1344 q 319 1436 319 1392 q 351 1504 319 1480 q 449 1528 383 1528 q 546 1504 514 1528 q 578 1436 578 1480 q 546 1368 578 1392 q 449 1344 514 1344 m 556 1319 l 765 1319 l 563 1104 l 335 1104 l 133 1319 l 342 1319 l 449 1201 l 556 1319 z "},"Ş":{"ha":879,"x_min":40,"x_max":839,"o":"m 839 315 q 798 159 839 227 q 680 49 758 92 q 494 -8 603 6 l 494 -55 q 594 -97 561 -65 q 628 -181 628 -128 q 576 -279 628 -244 q 421 -314 524 -314 q 272 -292 342 -314 l 272 -194 q 339 -211 303 -206 q 408 -216 374 -216 q 470 -206 450 -216 q 491 -172 491 -195 q 470 -136 491 -147 q 408 -125 449 -125 l 370 -125 l 370 -14 q 68 33 208 -11 l 68 253 q 225 218 135 231 q 389 205 314 205 q 525 228 485 205 q 565 298 565 252 q 553 340 565 323 q 513 369 542 356 q 430 393 483 381 l 340 413 q 113 521 186 447 q 40 717 40 595 q 159 957 40 873 q 513 1042 278 1042 q 782 1010 663 1042 l 782 789 q 662 814 731 805 q 526 823 594 823 q 363 798 411 823 q 315 729 315 774 q 325 690 315 706 q 359 663 335 675 q 429 641 384 651 l 519 621 q 763 510 687 584 q 839 315 839 436 z "},"Ŝ":{"ha":879,"x_min":40,"x_max":839,"o":"m 389 -14 q 68 33 218 -14 l 68 253 q 225 218 135 231 q 389 205 314 205 q 525 228 485 205 q 565 298 565 252 q 553 340 565 323 q 513 369 542 356 q 430 393 483 381 l 340 413 q 113 521 186 447 q 40 717 40 595 q 159 957 40 873 q 513 1042 278 1042 q 782 1010 663 1042 l 782 789 q 662 814 731 805 q 526 823 594 823 q 363 798 411 823 q 315 729 315 774 q 325 690 315 706 q 359 663 335 675 q 429 641 384 651 l 519 621 q 763 510 687 584 q 839 315 839 436 q 785 139 839 213 q 630 26 731 65 q 389 -14 528 -14 m 765 1104 l 556 1104 l 449 1223 l 342 1104 l 133 1104 l 335 1319 l 563 1319 l 765 1104 z "},"Ș":{"ha":879,"x_min":40,"x_max":839,"o":"m 389 -14 q 68 33 218 -14 l 68 253 q 225 218 135 231 q 389 205 314 205 q 525 228 485 205 q 565 298 565 252 q 553 340 565 323 q 513 369 542 356 q 430 393 483 381 l 340 413 q 113 521 186 447 q 40 717 40 595 q 159 957 40 873 q 513 1042 278 1042 q 782 1010 663 1042 l 782 789 q 662 814 731 805 q 526 823 594 823 q 363 798 411 823 q 315 729 315 774 q 325 690 315 706 q 359 663 335 675 q 429 641 384 651 l 519 621 q 763 510 687 584 q 839 315 839 436 q 785 139 839 213 q 630 26 731 65 q 389 -14 528 -14 m 448 -80 q 597 -194 597 -80 q 580 -278 597 -234 q 536 -353 563 -322 l 370 -353 q 411 -252 403 -294 q 327 -225 353 -247 q 301 -167 301 -203 q 448 -80 301 -80 z "},"Ṡ":{"ha":879,"x_min":40,"x_max":839,"o":"m 389 -14 q 68 33 218 -14 l 68 253 q 225 218 135 231 q 389 205 314 205 q 525 228 485 205 q 565 298 565 252 q 553 340 565 323 q 513 369 542 356 q 430 393 483 381 l 340 413 q 113 521 186 447 q 40 717 40 595 q 159 957 40 873 q 513 1042 278 1042 q 782 1010 663 1042 l 782 789 q 662 814 731 805 q 526 823 594 823 q 363 798 411 823 q 315 729 315 774 q 325 690 315 706 q 359 663 335 675 q 429 641 384 651 l 519 621 q 763 510 687 584 q 839 315 839 436 q 785 139 839 213 q 630 26 731 65 q 389 -14 528 -14 m 449 1101 q 327 1131 367 1101 q 287 1215 287 1161 q 327 1300 287 1269 q 449 1330 367 1330 q 570 1300 530 1330 q 610 1215 610 1269 q 570 1131 610 1161 q 449 1101 530 1101 z "},"Ṣ":{"ha":879,"x_min":40,"x_max":839,"o":"m 389 -14 q 68 33 218 -14 l 68 253 q 225 218 135 231 q 389 205 314 205 q 525 228 485 205 q 565 298 565 252 q 553 340 565 323 q 513 369 542 356 q 430 393 483 381 l 340 413 q 113 521 186 447 q 40 717 40 595 q 159 957 40 873 q 513 1042 278 1042 q 782 1010 663 1042 l 782 789 q 662 814 731 805 q 526 823 594 823 q 363 798 411 823 q 315 729 315 774 q 325 690 315 706 q 359 663 335 675 q 429 641 384 651 l 519 621 q 763 510 687 584 q 839 315 839 436 q 785 139 839 213 q 630 26 731 65 q 389 -14 528 -14 m 449 -308 q 327 -278 367 -308 q 287 -194 287 -248 q 327 -110 287 -140 q 449 -80 367 -80 q 570 -110 530 -80 q 610 -194 610 -140 q 570 -278 610 -248 q 449 -308 530 -308 z "},"Ṩ":{"ha":879,"x_min":40,"x_max":839,"o":"m 389 -14 q 68 33 218 -14 l 68 253 q 225 218 135 231 q 389 205 314 205 q 525 228 485 205 q 565 298 565 252 q 553 340 565 323 q 513 369 542 356 q 430 393 483 381 l 340 413 q 113 521 186 447 q 40 717 40 595 q 159 957 40 873 q 513 1042 278 1042 q 782 1010 663 1042 l 782 789 q 662 814 731 805 q 526 823 594 823 q 363 798 411 823 q 315 729 315 774 q 325 690 315 706 q 359 663 335 675 q 429 641 384 651 l 519 621 q 763 510 687 584 q 839 315 839 436 q 785 139 839 213 q 630 26 731 65 q 389 -14 528 -14 m 449 -308 q 327 -278 367 -308 q 287 -194 287 -248 q 327 -110 287 -140 q 449 -80 367 -80 q 570 -110 530 -80 q 610 -194 610 -140 q 570 -278 610 -248 q 449 -308 530 -308 m 449 1101 q 327 1131 367 1101 q 287 1215 287 1161 q 327 1300 287 1269 q 449 1330 367 1330 q 570 1300 530 1330 q 610 1215 610 1269 q 570 1131 610 1161 q 449 1101 530 1101 z "},"ẞ":{"ha":1378,"x_min":91,"x_max":1338,"o":"m 1030 621 q 1265 510 1192 584 q 1338 315 1338 436 q 1286 139 1338 213 q 1135 26 1234 65 q 899 -14 1036 -14 q 743 -2 821 -14 q 599 30 665 9 l 599 250 q 747 217 662 230 q 896 205 832 205 q 1028 228 990 205 q 1067 298 1067 252 q 1057 340 1067 323 q 1019 369 1046 357 q 945 393 993 382 l 860 413 q 642 521 713 447 q 572 717 572 595 q 586 818 572 772 q 536 824 560 824 q 411 779 453 824 q 369 647 369 734 l 369 0 l 91 0 l 91 613 q 202 931 91 819 q 536 1042 313 1042 q 764 999 665 1042 q 1033 1042 870 1042 q 1166 1034 1101 1042 q 1283 1013 1231 1026 l 1283 792 q 1170 815 1235 806 q 1048 823 1106 823 q 889 799 935 823 q 842 729 842 774 q 865 674 842 694 q 945 641 887 654 l 1030 621 z "},"Ə":{"ha":1179,"x_min":51,"x_max":1122,"o":"m 453 1042 q 955 909 789 1042 q 1122 501 1122 776 q 1058 224 1122 340 q 875 47 994 108 q 595 -14 756 -14 q 307 46 429 -14 q 118 224 184 106 q 51 508 51 341 l 51 594 l 840 594 q 713 770 813 717 q 433 823 613 823 q 277 815 358 823 q 126 791 197 806 l 126 1011 q 287 1034 202 1026 q 453 1042 372 1042 m 598 195 q 765 242 706 195 q 842 399 825 289 l 341 399 q 420 243 358 291 q 598 195 482 195 z "},"T":{"ha":977,"x_min":12,"x_max":965,"o":"m 349 0 l 349 804 l 12 804 l 12 1028 l 965 1028 l 965 804 l 628 804 l 628 0 l 349 0 z "},"Ŧ":{"ha":977,"x_min":12,"x_max":965,"o":"m 965 804 l 628 804 l 628 581 l 845 581 l 845 410 l 628 410 l 628 0 l 349 0 l 349 410 l 133 410 l 133 581 l 349 581 l 349 804 l 12 804 l 12 1028 l 965 1028 l 965 804 z "},"Ť":{"ha":977,"x_min":12,"x_max":965,"o":"m 349 0 l 349 804 l 12 804 l 12 1028 l 965 1028 l 965 804 l 628 804 l 628 0 l 349 0 m 596 1319 l 805 1319 l 603 1104 l 375 1104 l 173 1319 l 382 1319 l 489 1201 l 596 1319 z "},"Ţ":{"ha":977,"x_min":12,"x_max":965,"o":"m 535 0 l 535 -55 q 635 -97 601 -65 q 668 -181 668 -128 q 616 -279 668 -244 q 461 -314 564 -314 q 312 -292 382 -314 l 312 -194 q 379 -211 343 -206 q 448 -216 415 -216 q 511 -206 490 -216 q 531 -172 531 -195 q 510 -136 531 -147 q 448 -125 490 -125 l 410 -125 l 410 0 l 349 0 l 349 804 l 12 804 l 12 1028 l 965 1028 l 965 804 l 628 804 l 628 0 l 535 0 z "},"Ț":{"ha":977,"x_min":12,"x_max":965,"o":"m 349 0 l 349 804 l 12 804 l 12 1028 l 965 1028 l 965 804 l 628 804 l 628 0 l 349 0 m 488 -80 q 637 -194 637 -80 q 620 -278 637 -234 q 576 -353 603 -322 l 410 -353 q 451 -252 444 -294 q 367 -225 394 -247 q 341 -167 341 -203 q 488 -80 341 -80 z "},"Ṭ":{"ha":977,"x_min":12,"x_max":965,"o":"m 349 0 l 349 804 l 12 804 l 12 1028 l 965 1028 l 965 804 l 628 804 l 628 0 l 349 0 m 489 -308 q 367 -278 408 -308 q 327 -194 327 -248 q 367 -110 327 -140 q 489 -80 408 -80 q 610 -110 570 -80 q 651 -194 651 -140 q 610 -278 651 -248 q 489 -308 570 -308 z "},"Ṯ":{"ha":977,"x_min":12,"x_max":965,"o":"m 349 0 l 349 804 l 12 804 l 12 1028 l 965 1028 l 965 804 l 628 804 l 628 0 l 349 0 m 206 -265 l 206 -110 l 772 -110 l 772 -265 l 206 -265 z "},"U":{"ha":1128,"x_min":87,"x_max":1041,"o":"m 567 -14 q 203 103 319 -14 q 87 455 87 220 l 87 1028 l 365 1028 l 365 430 q 415 263 365 316 q 567 210 465 210 q 718 263 668 210 q 767 430 767 316 l 767 1028 l 1041 1028 l 1041 455 q 926 103 1041 220 q 567 -14 811 -14 z "},"Ú":{"ha":1128,"x_min":87,"x_max":1041,"o":"m 567 -14 q 203 103 319 -14 q 87 455 87 220 l 87 1028 l 365 1028 l 365 430 q 415 263 365 316 q 567 210 465 210 q 718 263 668 210 q 767 430 767 316 l 767 1028 l 1041 1028 l 1041 455 q 926 103 1041 220 q 567 -14 811 -14 m 442 1104 l 578 1319 l 865 1319 l 688 1104 l 442 1104 z "},"Ŭ":{"ha":1128,"x_min":87,"x_max":1041,"o":"m 567 -14 q 203 103 319 -14 q 87 455 87 220 l 87 1028 l 365 1028 l 365 430 q 415 263 365 316 q 567 210 465 210 q 718 263 668 210 q 767 430 767 316 l 767 1028 l 1041 1028 l 1041 455 q 926 103 1041 220 q 567 -14 811 -14 m 567 1106 q 355 1163 430 1106 q 266 1317 280 1220 l 429 1317 q 567 1232 449 1232 q 661 1254 628 1232 q 704 1317 694 1276 l 867 1317 q 779 1163 853 1220 q 567 1106 704 1106 z "},"Û":{"ha":1128,"x_min":87,"x_max":1041,"o":"m 567 -14 q 203 103 319 -14 q 87 455 87 220 l 87 1028 l 365 1028 l 365 430 q 415 263 365 316 q 567 210 465 210 q 718 263 668 210 q 767 430 767 316 l 767 1028 l 1041 1028 l 1041 455 q 926 103 1041 220 q 567 -14 811 -14 m 883 1104 l 674 1104 l 567 1223 l 460 1104 l 251 1104 l 453 1319 l 681 1319 l 883 1104 z "},"Ȕ":{"ha":1128,"x_min":87,"x_max":1041,"o":"m 567 -14 q 203 103 319 -14 q 87 455 87 220 l 87 1028 l 365 1028 l 365 430 q 415 263 365 316 q 567 210 465 210 q 718 263 668 210 q 767 430 767 316 l 767 1028 l 1041 1028 l 1041 455 q 926 103 1041 220 q 567 -14 811 -14 m 314 1104 l 195 1319 l 405 1319 l 511 1104 l 314 1104 m 622 1104 l 503 1319 l 713 1319 l 819 1104 l 622 1104 z "},"Ü":{"ha":1128,"x_min":87,"x_max":1041,"o":"m 567 -14 q 203 103 319 -14 q 87 455 87 220 l 87 1028 l 365 1028 l 365 430 q 415 263 365 316 q 567 210 465 210 q 718 263 668 210 q 767 430 767 316 l 767 1028 l 1041 1028 l 1041 455 q 926 103 1041 220 q 567 -14 811 -14 m 372 1101 q 268 1131 303 1101 q 233 1215 233 1160 q 268 1300 233 1270 q 372 1330 303 1330 q 477 1300 442 1330 q 512 1215 512 1270 q 477 1131 512 1160 q 372 1101 442 1101 m 761 1101 q 656 1131 691 1101 q 622 1215 622 1160 q 656 1300 622 1270 q 761 1330 691 1330 q 866 1300 831 1330 q 901 1215 901 1270 q 866 1131 901 1160 q 761 1101 831 1101 z "},"Ụ":{"ha":1128,"x_min":87,"x_max":1041,"o":"m 567 -14 q 203 103 319 -14 q 87 455 87 220 l 87 1028 l 365 1028 l 365 430 q 415 263 365 316 q 567 210 465 210 q 718 263 668 210 q 767 430 767 316 l 767 1028 l 1041 1028 l 1041 455 q 926 103 1041 220 q 567 -14 811 -14 m 567 -308 q 445 -278 485 -308 q 405 -194 405 -248 q 445 -110 405 -140 q 567 -80 485 -80 q 688 -110 648 -80 q 728 -194 728 -140 q 688 -278 728 -248 q 567 -308 648 -308 z "},"Ù":{"ha":1128,"x_min":87,"x_max":1041,"o":"m 567 -14 q 203 103 319 -14 q 87 455 87 220 l 87 1028 l 365 1028 l 365 430 q 415 263 365 316 q 567 210 465 210 q 718 263 668 210 q 767 430 767 316 l 767 1028 l 1041 1028 l 1041 455 q 926 103 1041 220 q 567 -14 811 -14 m 444 1104 l 267 1319 l 554 1319 l 690 1104 l 444 1104 z "},"Ủ":{"ha":1128,"x_min":87,"x_max":1041,"o":"m 567 -14 q 203 103 319 -14 q 87 455 87 220 l 87 1028 l 365 1028 l 365 430 q 415 263 365 316 q 567 210 465 210 q 718 263 668 210 q 767 430 767 316 l 767 1028 l 1041 1028 l 1041 455 q 926 103 1041 220 q 567 -14 811 -14 m 501 1104 q 523 1151 503 1135 q 580 1185 544 1168 q 613 1202 603 1196 q 622 1218 622 1209 q 603 1235 622 1230 q 544 1241 584 1241 q 406 1226 476 1241 l 406 1320 q 481 1332 438 1328 q 565 1336 525 1336 q 712 1311 665 1336 q 760 1238 760 1286 q 749 1200 760 1216 q 723 1174 738 1184 q 683 1150 708 1163 q 646 1127 658 1137 q 632 1104 634 1117 l 501 1104 z "},"Ư":{"ha":1129,"x_min":87,"x_max":1172,"o":"m 567 -14 q 203 103 319 -14 q 87 455 87 220 l 87 1028 l 365 1028 l 365 430 q 415 263 365 316 q 567 210 465 210 q 718 263 668 210 q 767 430 767 316 l 767 1028 l 852 1028 q 958 1052 924 1028 q 992 1136 992 1077 q 981 1233 992 1176 l 1158 1233 q 1172 1126 1172 1183 q 1138 997 1172 1048 q 1041 924 1103 946 l 1041 455 q 926 103 1041 220 q 567 -14 811 -14 z "},"Ứ":{"ha":1129,"x_min":87,"x_max":1172,"o":"m 567 -14 q 203 103 319 -14 q 87 455 87 220 l 87 1028 l 365 1028 l 365 430 q 415 263 365 316 q 567 210 465 210 q 718 263 668 210 q 767 430 767 316 l 767 1028 l 852 1028 q 958 1052 924 1028 q 992 1136 992 1077 q 981 1233 992 1176 l 1158 1233 q 1172 1126 1172 1183 q 1138 997 1172 1048 q 1041 924 1103 946 l 1041 455 q 926 103 1041 220 q 567 -14 811 -14 m 439 1104 l 575 1319 l 862 1319 l 685 1104 l 439 1104 z "},"Ự":{"ha":1129,"x_min":87,"x_max":1172,"o":"m 567 -14 q 203 103 319 -14 q 87 455 87 220 l 87 1028 l 365 1028 l 365 430 q 415 263 365 316 q 567 210 465 210 q 718 263 668 210 q 767 430 767 316 l 767 1028 l 852 1028 q 958 1052 924 1028 q 992 1136 992 1077 q 981 1233 992 1176 l 1158 1233 q 1172 1126 1172 1183 q 1138 997 1172 1048 q 1041 924 1103 946 l 1041 455 q 926 103 1041 220 q 567 -14 811 -14 m 564 -308 q 442 -278 483 -308 q 402 -194 402 -248 q 442 -110 402 -140 q 564 -80 483 -80 q 685 -110 645 -80 q 726 -194 726 -140 q 685 -278 726 -248 q 564 -308 645 -308 z "},"Ừ":{"ha":1129,"x_min":87,"x_max":1172,"o":"m 567 -14 q 203 103 319 -14 q 87 455 87 220 l 87 1028 l 365 1028 l 365 430 q 415 263 365 316 q 567 210 465 210 q 718 263 668 210 q 767 430 767 316 l 767 1028 l 852 1028 q 958 1052 924 1028 q 992 1136 992 1077 q 981 1233 992 1176 l 1158 1233 q 1172 1126 1172 1183 q 1138 997 1172 1048 q 1041 924 1103 946 l 1041 455 q 926 103 1041 220 q 567 -14 811 -14 m 441 1104 l 265 1319 l 551 1319 l 687 1104 l 441 1104 z "},"Ử":{"ha":1129,"x_min":87,"x_max":1172,"o":"m 567 -14 q 203 103 319 -14 q 87 455 87 220 l 87 1028 l 365 1028 l 365 430 q 415 263 365 316 q 567 210 465 210 q 718 263 668 210 q 767 430 767 316 l 767 1028 l 852 1028 q 958 1052 924 1028 q 992 1136 992 1077 q 981 1233 992 1176 l 1158 1233 q 1172 1126 1172 1183 q 1138 997 1172 1048 q 1041 924 1103 946 l 1041 455 q 926 103 1041 220 q 567 -14 811 -14 m 498 1104 q 520 1151 500 1135 q 577 1185 541 1168 q 610 1202 600 1196 q 619 1218 619 1209 q 600 1235 619 1230 q 542 1241 581 1241 q 403 1226 474 1241 l 403 1320 q 478 1332 435 1328 q 562 1336 522 1336 q 709 1311 662 1336 q 757 1238 757 1286 q 746 1200 757 1216 q 720 1174 735 1184 q 681 1150 706 1163 q 643 1127 656 1137 q 629 1104 631 1117 l 498 1104 z "},"Ữ":{"ha":1129,"x_min":87,"x_max":1172,"o":"m 567 -14 q 203 103 319 -14 q 87 455 87 220 l 87 1028 l 365 1028 l 365 430 q 415 263 365 316 q 567 210 465 210 q 718 263 668 210 q 767 430 767 316 l 767 1028 l 852 1028 q 958 1052 924 1028 q 992 1136 992 1077 q 981 1233 992 1176 l 1158 1233 q 1172 1126 1172 1183 q 1138 997 1172 1048 q 1041 924 1103 946 l 1041 455 q 926 103 1041 220 q 567 -14 811 -14 m 693 1112 q 627 1118 657 1112 q 552 1139 597 1125 q 486 1157 513 1151 q 429 1163 458 1163 q 349 1152 384 1163 q 277 1116 314 1141 l 277 1263 q 346 1302 308 1290 q 435 1314 383 1314 q 502 1307 471 1314 q 576 1286 533 1300 q 643 1267 617 1274 q 699 1261 669 1261 q 779 1272 744 1261 q 851 1308 814 1283 l 851 1162 q 782 1124 819 1135 q 693 1112 745 1112 z "},"Ű":{"ha":1128,"x_min":87,"x_max":1041,"o":"m 567 -14 q 203 103 319 -14 q 87 455 87 220 l 87 1028 l 365 1028 l 365 430 q 415 263 365 316 q 567 210 465 210 q 718 263 668 210 q 767 430 767 316 l 767 1028 l 1041 1028 l 1041 455 q 926 103 1041 220 q 567 -14 811 -14 m 314 1104 l 420 1319 l 630 1319 l 511 1104 l 314 1104 m 622 1104 l 728 1319 l 938 1319 l 819 1104 l 622 1104 z "},"Ȗ":{"ha":1128,"x_min":87,"x_max":1041,"o":"m 567 -14 q 203 103 319 -14 q 87 455 87 220 l 87 1028 l 365 1028 l 365 430 q 415 263 365 316 q 567 210 465 210 q 718 263 668 210 q 767 430 767 316 l 767 1028 l 1041 1028 l 1041 455 q 926 103 1041 220 q 567 -14 811 -14 m 266 1107 q 355 1261 280 1204 q 567 1319 429 1319 q 778 1261 703 1319 q 867 1107 853 1203 l 704 1107 q 567 1192 684 1192 q 472 1170 505 1192 q 429 1107 439 1148 l 266 1107 z "},"Ū":{"ha":1128,"x_min":87,"x_max":1041,"o":"m 567 -14 q 203 103 319 -14 q 87 455 87 220 l 87 1028 l 365 1028 l 365 430 q 415 263 365 316 q 567 210 465 210 q 718 263 668 210 q 767 430 767 316 l 767 1028 l 1041 1028 l 1041 455 q 926 103 1041 220 q 567 -14 811 -14 m 283 1135 l 283 1290 l 850 1290 l 850 1135 l 283 1135 z "},"Ṻ":{"ha":1128,"x_min":87,"x_max":1041,"o":"m 567 -14 q 203 103 319 -14 q 87 455 87 220 l 87 1028 l 365 1028 l 365 430 q 415 263 365 316 q 567 210 465 210 q 718 263 668 210 q 767 430 767 316 l 767 1028 l 1041 1028 l 1041 455 q 926 103 1041 220 q 567 -14 811 -14 m 283 1135 l 283 1290 l 850 1290 l 850 1135 l 283 1135 m 372 1367 q 268 1397 303 1367 q 233 1481 233 1426 q 268 1566 233 1536 q 372 1596 303 1596 q 477 1566 442 1596 q 512 1481 512 1536 q 477 1397 512 1426 q 372 1367 442 1367 m 761 1367 q 656 1397 691 1367 q 622 1481 622 1426 q 656 1566 622 1536 q 761 1596 691 1596 q 866 1566 831 1596 q 901 1481 901 1536 q 866 1397 901 1426 q 761 1367 831 1367 z "},"Ų":{"ha":1128,"x_min":87,"x_max":1041,"o":"m 1041 1028 l 1041 455 q 975 166 1041 276 q 771 13 909 56 q 647 -37 692 -12 q 584 -87 602 -62 q 567 -142 567 -112 q 591 -193 567 -175 q 667 -211 616 -211 q 764 -192 708 -211 l 764 -292 q 628 -314 697 -314 q 468 -274 522 -314 q 415 -162 415 -233 q 507 -12 415 -71 q 189 118 290 1 q 87 455 87 235 l 87 1028 l 365 1028 l 365 430 q 415 263 365 316 q 567 210 465 210 q 718 263 668 210 q 767 430 767 316 l 767 1028 l 1041 1028 z "},"Ů":{"ha":1128,"x_min":87,"x_max":1041,"o":"m 567 -14 q 203 103 319 -14 q 87 455 87 220 l 87 1028 l 365 1028 l 365 430 q 415 263 365 316 q 567 210 465 210 q 718 263 668 210 q 767 430 767 316 l 767 1028 l 1041 1028 l 1041 455 q 926 103 1041 220 q 567 -14 811 -14 m 567 1094 q 487 1114 522 1094 q 432 1167 452 1133 q 413 1244 413 1201 q 432 1321 413 1287 q 487 1374 452 1355 q 567 1393 522 1393 q 646 1374 611 1393 q 701 1321 681 1355 q 721 1244 721 1287 q 701 1167 721 1201 q 646 1114 681 1133 q 567 1094 611 1094 m 567 1182 q 609 1199 593 1182 q 626 1244 626 1216 q 609 1288 626 1272 q 567 1305 593 1305 q 524 1288 540 1305 q 508 1244 508 1272 q 524 1199 508 1216 q 567 1182 540 1182 z "},"Ũ":{"ha":1128,"x_min":87,"x_max":1041,"o":"m 567 -14 q 203 103 319 -14 q 87 455 87 220 l 87 1028 l 365 1028 l 365 430 q 415 263 365 316 q 567 210 465 210 q 718 263 668 210 q 767 430 767 316 l 767 1028 l 1041 1028 l 1041 455 q 926 103 1041 220 q 567 -14 811 -14 m 696 1112 q 630 1118 660 1112 q 555 1139 599 1125 q 489 1157 516 1151 q 432 1163 461 1163 q 352 1152 387 1163 q 280 1116 317 1141 l 280 1263 q 349 1302 311 1290 q 438 1314 386 1314 q 505 1307 474 1314 q 578 1286 536 1300 q 646 1267 619 1274 q 701 1261 672 1261 q 782 1272 747 1261 q 853 1308 817 1283 l 853 1162 q 785 1124 822 1135 q 696 1112 748 1112 z "},"Ṹ":{"ha":1128,"x_min":87,"x_max":1041,"o":"m 567 -14 q 203 103 319 -14 q 87 455 87 220 l 87 1028 l 365 1028 l 365 430 q 415 263 365 316 q 567 210 465 210 q 718 263 668 210 q 767 430 767 316 l 767 1028 l 1041 1028 l 1041 455 q 926 103 1041 220 q 567 -14 811 -14 m 428 1369 l 563 1531 l 882 1531 l 706 1369 l 428 1369 m 696 1112 q 630 1118 660 1112 q 555 1139 599 1125 q 489 1157 516 1151 q 432 1163 461 1163 q 352 1152 387 1163 q 280 1116 317 1141 l 280 1263 q 349 1302 311 1290 q 438 1314 386 1314 q 505 1307 474 1314 q 578 1286 536 1300 q 646 1267 619 1274 q 701 1261 672 1261 q 782 1272 747 1261 q 853 1308 817 1283 l 853 1162 q 785 1124 822 1135 q 696 1112 748 1112 z "},"V":{"ha":1097,"x_min":1,"x_max":1095,"o":"m 823 1028 l 1095 1028 l 752 0 l 344 0 l 1 1028 l 294 1028 l 556 210 l 823 1028 z "},"W":{"ha":1740,"x_min":19,"x_max":1721,"o":"m 1457 1028 l 1721 1028 l 1433 0 l 1079 0 l 874 739 l 660 0 l 306 0 l 19 1028 l 299 1028 l 503 252 l 724 1028 l 1030 1028 l 1244 238 l 1457 1028 z "},"Ẃ":{"ha":1740,"x_min":19,"x_max":1721,"o":"m 1457 1028 l 1721 1028 l 1433 0 l 1079 0 l 874 739 l 660 0 l 306 0 l 19 1028 l 299 1028 l 503 252 l 724 1028 l 1030 1028 l 1244 238 l 1457 1028 m 744 1104 l 881 1319 l 1167 1319 l 991 1104 l 744 1104 z "},"Ŵ":{"ha":1740,"x_min":19,"x_max":1721,"o":"m 1457 1028 l 1721 1028 l 1433 0 l 1079 0 l 874 739 l 660 0 l 306 0 l 19 1028 l 299 1028 l 503 252 l 724 1028 l 1030 1028 l 1244 238 l 1457 1028 m 1185 1104 l 976 1104 l 869 1223 l 763 1104 l 553 1104 l 756 1319 l 983 1319 l 1185 1104 z "},"Ẅ":{"ha":1740,"x_min":19,"x_max":1721,"o":"m 1457 1028 l 1721 1028 l 1433 0 l 1079 0 l 874 739 l 660 0 l 306 0 l 19 1028 l 299 1028 l 503 252 l 724 1028 l 1030 1028 l 1244 238 l 1457 1028 m 675 1101 q 570 1131 606 1101 q 535 1215 535 1160 q 570 1300 535 1270 q 675 1330 606 1330 q 780 1300 745 1330 q 815 1215 815 1270 q 780 1131 815 1160 q 675 1101 745 1101 m 1064 1101 q 959 1131 994 1101 q 924 1215 924 1160 q 959 1300 924 1270 q 1064 1330 994 1330 q 1168 1300 1133 1330 q 1203 1215 1203 1270 q 1168 1131 1203 1160 q 1064 1101 1133 1101 z "},"Ẁ":{"ha":1740,"x_min":19,"x_max":1721,"o":"m 1457 1028 l 1721 1028 l 1433 0 l 1079 0 l 874 739 l 660 0 l 306 0 l 19 1028 l 299 1028 l 503 252 l 724 1028 l 1030 1028 l 1244 238 l 1457 1028 m 747 1104 l 570 1319 l 857 1319 l 992 1104 l 747 1104 z "},"X":{"ha":1033,"x_min":-35,"x_max":1066,"o":"m 678 539 l 1066 0 l 758 0 l 513 346 l 267 0 l -35 0 l 351 535 l -6 1028 l 303 1028 l 517 730 l 731 1028 l 1030 1028 l 678 539 z "},"Y":{"ha":977,"x_min":-40,"x_max":1007,"o":"m 1007 1028 l 630 428 l 630 0 l 351 0 l 351 424 l -40 1028 l 255 1028 l 496 651 l 733 1028 l 1007 1028 z "},"Ý":{"ha":977,"x_min":-40,"x_max":1007,"o":"m 1007 1028 l 630 428 l 630 0 l 351 0 l 351 424 l -40 1028 l 255 1028 l 496 651 l 733 1028 l 1007 1028 m 363 1104 l 499 1319 l 786 1319 l 610 1104 l 363 1104 z "},"Ŷ":{"ha":977,"x_min":-40,"x_max":1007,"o":"m 1007 1028 l 630 428 l 630 0 l 351 0 l 351 424 l -40 1028 l 255 1028 l 496 651 l 733 1028 l 1007 1028 m 804 1104 l 595 1104 l 488 1223 l 381 1104 l 172 1104 l 374 1319 l 602 1319 l 804 1104 z "},"Ÿ":{"ha":977,"x_min":-40,"x_max":1007,"o":"m 1007 1028 l 630 428 l 630 0 l 351 0 l 351 424 l -40 1028 l 255 1028 l 496 651 l 733 1028 l 1007 1028 m 294 1101 q 189 1131 224 1101 q 154 1215 154 1160 q 189 1300 154 1270 q 294 1330 224 1330 q 399 1300 364 1330 q 433 1215 433 1270 q 399 1131 433 1160 q 294 1101 364 1101 m 683 1101 q 578 1131 613 1101 q 543 1215 543 1160 q 578 1300 543 1270 q 683 1330 613 1330 q 787 1300 752 1330 q 822 1215 822 1270 q 787 1131 822 1160 q 683 1101 752 1101 z "},"Ẏ":{"ha":977,"x_min":-40,"x_max":1007,"o":"m 1007 1028 l 630 428 l 630 0 l 351 0 l 351 424 l -40 1028 l 255 1028 l 496 651 l 733 1028 l 1007 1028 m 488 1101 q 367 1131 407 1101 q 326 1215 326 1161 q 367 1300 326 1269 q 488 1330 407 1330 q 610 1300 569 1330 q 650 1215 650 1269 q 610 1131 650 1161 q 488 1101 569 1101 z "},"Ỵ":{"ha":977,"x_min":-40,"x_max":1007,"o":"m 1007 1028 l 630 428 l 630 0 l 351 0 l 351 424 l -40 1028 l 255 1028 l 496 651 l 733 1028 l 1007 1028 m 488 -308 q 367 -278 407 -308 q 326 -194 326 -248 q 367 -110 326 -140 q 488 -80 407 -80 q 610 -110 569 -80 q 650 -194 650 -140 q 610 -278 650 -248 q 488 -308 569 -308 z "},"Ỳ":{"ha":977,"x_min":-40,"x_max":1007,"o":"m 1007 1028 l 630 428 l 630 0 l 351 0 l 351 424 l -40 1028 l 255 1028 l 496 651 l 733 1028 l 1007 1028 m 365 1104 l 189 1319 l 476 1319 l 611 1104 l 365 1104 z "},"Ỷ":{"ha":977,"x_min":-40,"x_max":1007,"o":"m 1007 1028 l 630 428 l 630 0 l 351 0 l 351 424 l -40 1028 l 255 1028 l 496 651 l 733 1028 l 1007 1028 m 422 1104 q 445 1151 424 1135 q 501 1185 465 1168 q 534 1202 524 1196 q 544 1218 544 1209 q 525 1235 544 1230 q 466 1241 506 1241 q 327 1226 398 1241 l 327 1320 q 403 1332 359 1328 q 486 1336 447 1336 q 634 1311 586 1336 q 681 1238 681 1286 q 670 1200 681 1216 q 645 1174 660 1184 q 605 1150 630 1163 q 568 1127 580 1137 q 553 1104 556 1117 l 422 1104 z "},"Ȳ":{"ha":977,"x_min":-40,"x_max":1007,"o":"m 1007 1028 l 630 428 l 630 0 l 351 0 l 351 424 l -40 1028 l 255 1028 l 496 651 l 733 1028 l 1007 1028 m 205 1135 l 205 1290 l 772 1290 l 772 1135 l 205 1135 z "},"Ỹ":{"ha":977,"x_min":-40,"x_max":1007,"o":"m 1007 1028 l 630 428 l 630 0 l 351 0 l 351 424 l -40 1028 l 255 1028 l 496 651 l 733 1028 l 1007 1028 m 617 1112 q 551 1118 581 1112 q 476 1139 521 1125 q 410 1157 438 1151 q 353 1163 383 1163 q 273 1152 308 1163 q 201 1116 238 1141 l 201 1263 q 270 1302 233 1290 q 359 1314 308 1314 q 426 1307 395 1314 q 500 1286 458 1300 q 567 1267 541 1274 q 623 1261 594 1261 q 703 1272 668 1261 q 775 1308 738 1283 l 775 1162 q 707 1124 744 1135 q 617 1112 669 1112 z "},"Z":{"ha":944,"x_min":48,"x_max":896,"o":"m 408 224 l 896 224 l 896 0 l 48 0 l 48 151 l 529 804 l 56 804 l 56 1028 l 889 1028 l 889 877 l 408 224 z "},"Ź":{"ha":944,"x_min":48,"x_max":896,"o":"m 408 224 l 896 224 l 896 0 l 48 0 l 48 151 l 529 804 l 56 804 l 56 1028 l 889 1028 l 889 877 l 408 224 m 348 1104 l 484 1319 l 771 1319 l 594 1104 l 348 1104 z "},"Ž":{"ha":944,"x_min":48,"x_max":896,"o":"m 408 224 l 896 224 l 896 0 l 48 0 l 48 151 l 529 804 l 56 804 l 56 1028 l 889 1028 l 889 877 l 408 224 m 580 1319 l 789 1319 l 587 1104 l 359 1104 l 157 1319 l 366 1319 l 473 1201 l 580 1319 z "},"Ż":{"ha":944,"x_min":48,"x_max":896,"o":"m 408 224 l 896 224 l 896 0 l 48 0 l 48 151 l 529 804 l 56 804 l 56 1028 l 889 1028 l 889 877 l 408 224 m 473 1101 q 351 1131 392 1101 q 311 1215 311 1161 q 351 1300 311 1269 q 473 1330 392 1330 q 594 1300 554 1330 q 635 1215 635 1269 q 594 1131 635 1161 q 473 1101 554 1101 z "},"Ẓ":{"ha":944,"x_min":48,"x_max":896,"o":"m 408 224 l 896 224 l 896 0 l 48 0 l 48 151 l 529 804 l 56 804 l 56 1028 l 889 1028 l 889 877 l 408 224 m 472 -308 q 350 -278 390 -308 q 310 -194 310 -248 q 350 -110 310 -140 q 472 -80 390 -80 q 593 -110 553 -80 q 633 -194 633 -140 q 593 -278 633 -248 q 472 -308 553 -308 z "},"a":{"ha":853,"x_min":42,"x_max":778,"o":"m 382 774 q 610 741 524 774 q 737 633 696 708 q 778 426 778 557 l 778 0 l 553 0 l 535 70 l 523 70 q 433 6 487 27 q 313 -15 379 -15 q 166 14 227 -15 q 74 94 105 43 q 42 212 42 145 q 126 385 42 324 q 392 456 210 446 l 511 465 q 490 530 508 506 q 434 564 472 553 q 333 574 396 574 q 223 566 283 574 q 112 543 163 558 l 112 740 q 245 766 173 757 q 382 774 317 774 m 403 167 q 512 198 467 167 l 512 320 l 419 314 q 336 290 362 309 q 310 236 310 271 q 334 185 310 203 q 403 167 358 167 z "},"á":{"ha":853,"x_min":42,"x_max":778,"o":"m 382 774 q 610 741 524 774 q 737 633 696 708 q 778 426 778 557 l 778 0 l 553 0 l 535 70 l 523 70 q 433 6 487 27 q 313 -15 379 -15 q 166 14 227 -15 q 74 94 105 43 q 42 212 42 145 q 126 385 42 324 q 392 456 210 446 l 511 465 q 490 530 508 506 q 434 564 472 553 q 333 574 396 574 q 223 566 283 574 q 112 543 163 558 l 112 740 q 245 766 173 757 q 382 774 317 774 m 403 167 q 512 198 467 167 l 512 320 l 419 314 q 336 290 362 309 q 310 236 310 271 q 334 185 310 203 q 403 167 358 167 m 297 851 l 469 1122 l 762 1122 l 551 851 l 297 851 z "},"ă":{"ha":853,"x_min":42,"x_max":778,"o":"m 382 774 q 610 741 524 774 q 737 633 696 708 q 778 426 778 557 l 778 0 l 553 0 l 535 70 l 523 70 q 433 6 487 27 q 313 -15 379 -15 q 166 14 227 -15 q 74 94 105 43 q 42 212 42 145 q 126 385 42 324 q 392 456 210 446 l 511 465 q 490 530 508 506 q 434 564 472 553 q 333 574 396 574 q 223 566 283 574 q 112 543 163 558 l 112 740 q 245 766 173 757 q 382 774 317 774 m 403 167 q 512 198 467 167 l 512 320 l 419 314 q 336 290 362 309 q 310 236 310 271 q 334 185 310 203 q 403 167 358 167 m 424 856 q 219 922 292 856 q 138 1108 145 987 l 299 1108 q 335 1019 305 1049 q 424 989 365 989 q 514 1019 483 989 q 549 1108 544 1049 l 711 1108 q 630 922 703 987 q 424 856 556 856 z "},"ắ":{"ha":853,"x_min":42,"x_max":778,"o":"m 382 774 q 610 741 524 774 q 737 633 696 708 q 778 426 778 557 l 778 0 l 553 0 l 535 70 l 523 70 q 433 6 487 27 q 313 -15 379 -15 q 166 14 227 -15 q 74 94 105 43 q 42 212 42 145 q 126 385 42 324 q 392 456 210 446 l 511 465 q 490 530 508 506 q 434 564 472 553 q 333 574 396 574 q 223 566 283 574 q 112 543 163 558 l 112 740 q 245 766 173 757 q 382 774 317 774 m 403 167 q 512 198 467 167 l 512 320 l 419 314 q 336 290 362 309 q 310 236 310 271 q 334 185 310 203 q 403 167 358 167 m 328 1110 l 464 1297 l 693 1297 l 517 1110 l 328 1110 m 424 860 q 214 919 288 860 q 126 1078 139 978 l 289 1078 q 331 1010 298 1035 q 424 986 364 986 q 560 1078 542 986 l 723 1078 q 635 919 710 978 q 424 860 560 860 z "},"ặ":{"ha":853,"x_min":42,"x_max":778,"o":"m 382 774 q 610 741 524 774 q 737 633 696 708 q 778 426 778 557 l 778 0 l 553 0 l 535 70 l 523 70 q 433 6 487 27 q 313 -15 379 -15 q 166 14 227 -15 q 74 94 105 43 q 42 212 42 145 q 126 385 42 324 q 392 456 210 446 l 511 465 q 490 530 508 506 q 434 564 472 553 q 333 574 396 574 q 223 566 283 574 q 112 543 163 558 l 112 740 q 245 766 173 757 q 382 774 317 774 m 403 167 q 512 198 467 167 l 512 320 l 419 314 q 336 290 362 309 q 310 236 310 271 q 334 185 310 203 q 403 167 358 167 m 426 -330 q 321 -297 357 -330 q 285 -205 285 -263 q 321 -113 285 -147 q 426 -80 357 -80 q 532 -113 496 -80 q 568 -205 568 -147 q 532 -297 568 -263 q 426 -330 496 -330 m 424 856 q 219 922 292 856 q 138 1108 145 987 l 299 1108 q 335 1019 305 1049 q 424 989 365 989 q 514 1019 483 989 q 549 1108 544 1049 l 711 1108 q 630 922 703 987 q 424 856 556 856 z "},"ằ":{"ha":853,"x_min":42,"x_max":778,"o":"m 382 774 q 610 741 524 774 q 737 633 696 708 q 778 426 778 557 l 778 0 l 553 0 l 535 70 l 523 70 q 433 6 487 27 q 313 -15 379 -15 q 166 14 227 -15 q 74 94 105 43 q 42 212 42 145 q 126 385 42 324 q 392 456 210 446 l 511 465 q 490 530 508 506 q 434 564 472 553 q 333 574 396 574 q 223 566 283 574 q 112 543 163 558 l 112 740 q 245 766 173 757 q 382 774 317 774 m 403 167 q 512 198 467 167 l 512 320 l 419 314 q 336 290 362 309 q 310 236 310 271 q 334 185 310 203 q 403 167 358 167 m 331 1110 l 156 1297 l 385 1297 l 521 1110 l 331 1110 m 424 860 q 214 919 288 860 q 126 1078 139 978 l 289 1078 q 331 1010 298 1035 q 424 986 364 986 q 560 1078 542 986 l 723 1078 q 635 919 710 978 q 424 860 560 860 z "},"ẳ":{"ha":853,"x_min":42,"x_max":778,"o":"m 382 774 q 610 741 524 774 q 737 633 696 708 q 778 426 778 557 l 778 0 l 553 0 l 535 70 l 523 70 q 433 6 487 27 q 313 -15 379 -15 q 166 14 227 -15 q 74 94 105 43 q 42 212 42 145 q 126 385 42 324 q 392 456 210 446 l 511 465 q 490 530 508 506 q 434 564 472 553 q 333 574 396 574 q 223 566 283 574 q 112 543 163 558 l 112 740 q 245 766 173 757 q 382 774 317 774 m 403 167 q 512 198 467 167 l 512 320 l 419 314 q 336 290 362 309 q 310 236 310 271 q 334 185 310 203 q 403 167 358 167 m 358 1110 q 381 1151 360 1136 q 437 1181 401 1166 q 469 1195 458 1189 q 480 1210 480 1202 q 402 1231 480 1231 q 263 1217 337 1231 l 263 1297 q 340 1309 296 1304 q 422 1313 384 1313 q 570 1291 522 1313 q 617 1226 617 1269 q 598 1183 617 1199 q 542 1150 578 1167 q 504 1130 517 1138 q 490 1110 492 1121 l 358 1110 m 424 860 q 214 919 288 860 q 126 1078 139 978 l 289 1078 q 331 1010 298 1035 q 424 986 364 986 q 560 1078 542 986 l 723 1078 q 635 919 710 978 q 424 860 560 860 z "},"ẵ":{"ha":853,"x_min":42,"x_max":778,"o":"m 382 774 q 610 741 524 774 q 737 633 696 708 q 778 426 778 557 l 778 0 l 553 0 l 535 70 l 523 70 q 433 6 487 27 q 313 -15 379 -15 q 166 14 227 -15 q 74 94 105 43 q 42 212 42 145 q 126 385 42 324 q 392 456 210 446 l 511 465 q 490 530 508 506 q 434 564 472 553 q 333 574 396 574 q 223 566 283 574 q 112 543 163 558 l 112 740 q 245 766 173 757 q 382 774 317 774 m 403 167 q 512 198 467 167 l 512 320 l 419 314 q 336 290 362 309 q 310 236 310 271 q 334 185 310 203 q 403 167 358 167 m 560 1116 q 489 1122 522 1116 q 412 1140 456 1128 q 342 1156 370 1151 q 283 1161 314 1161 q 200 1151 236 1161 q 124 1119 163 1141 l 124 1246 q 196 1281 157 1270 q 289 1292 235 1292 q 358 1286 326 1292 q 437 1267 390 1280 q 508 1250 481 1256 q 565 1245 535 1245 q 649 1255 613 1245 q 724 1287 685 1265 l 724 1160 q 653 1126 692 1137 q 560 1116 615 1116 m 424 860 q 214 919 288 860 q 126 1078 139 978 l 289 1078 q 331 1010 298 1035 q 424 986 364 986 q 560 1078 542 986 l 723 1078 q 635 919 710 978 q 424 860 560 860 z "},"â":{"ha":853,"x_min":42,"x_max":778,"o":"m 382 774 q 610 741 524 774 q 737 633 696 708 q 778 426 778 557 l 778 0 l 553 0 l 535 70 l 523 70 q 433 6 487 27 q 313 -15 379 -15 q 166 14 227 -15 q 74 94 105 43 q 42 212 42 145 q 126 385 42 324 q 392 456 210 446 l 511 465 q 490 530 508 506 q 434 564 472 553 q 333 574 396 574 q 223 566 283 574 q 112 543 163 558 l 112 740 q 245 766 173 757 q 382 774 317 774 m 403 167 q 512 198 467 167 l 512 320 l 419 314 q 336 290 362 309 q 310 236 310 271 q 334 185 310 203 q 403 167 358 167 m 712 851 l 517 851 l 424 998 l 331 851 l 137 851 l 317 1122 l 532 1122 l 712 851 z "},"ấ":{"ha":853,"x_min":42,"x_max":957,"o":"m 382 774 q 610 741 524 774 q 737 633 696 708 q 778 426 778 557 l 778 0 l 553 0 l 535 70 l 523 70 q 433 6 487 27 q 313 -15 379 -15 q 166 14 227 -15 q 74 94 105 43 q 42 212 42 145 q 126 385 42 324 q 392 456 210 446 l 511 465 q 490 530 508 506 q 434 564 472 553 q 333 574 396 574 q 223 566 283 574 q 112 543 163 558 l 112 740 q 245 766 173 757 q 382 774 317 774 m 403 167 q 512 198 467 167 l 512 320 l 419 314 q 336 290 362 309 q 310 236 310 271 q 334 185 310 203 q 403 167 358 167 m 728 1297 l 957 1297 l 781 1110 l 592 1110 l 728 1297 m 317 1122 l 532 1122 l 712 851 l 517 851 l 424 998 l 331 851 l 137 851 l 317 1122 z "},"ậ":{"ha":853,"x_min":42,"x_max":778,"o":"m 382 774 q 610 741 524 774 q 737 633 696 708 q 778 426 778 557 l 778 0 l 553 0 l 535 70 l 523 70 q 433 6 487 27 q 313 -15 379 -15 q 166 14 227 -15 q 74 94 105 43 q 42 212 42 145 q 126 385 42 324 q 392 456 210 446 l 511 465 q 490 530 508 506 q 434 564 472 553 q 333 574 396 574 q 223 566 283 574 q 112 543 163 558 l 112 740 q 245 766 173 757 q 382 774 317 774 m 403 167 q 512 198 467 167 l 512 320 l 419 314 q 336 290 362 309 q 310 236 310 271 q 334 185 310 203 q 403 167 358 167 m 426 -330 q 321 -297 357 -330 q 285 -205 285 -263 q 321 -113 285 -147 q 426 -80 357 -80 q 532 -113 496 -80 q 568 -205 568 -147 q 532 -297 568 -263 q 426 -330 496 -330 m 712 851 l 517 851 l 424 998 l 331 851 l 137 851 l 317 1122 l 532 1122 l 712 851 z "},"ầ":{"ha":853,"x_min":42,"x_max":808,"o":"m 382 774 q 610 741 524 774 q 737 633 696 708 q 778 426 778 557 l 778 0 l 553 0 l 535 70 l 523 70 q 433 6 487 27 q 313 -15 379 -15 q 166 14 227 -15 q 74 94 105 43 q 42 212 42 145 q 126 385 42 324 q 392 456 210 446 l 511 465 q 490 530 508 506 q 434 564 472 553 q 333 574 396 574 q 223 566 283 574 q 112 543 163 558 l 112 740 q 245 766 173 757 q 382 774 317 774 m 403 167 q 512 198 467 167 l 512 320 l 419 314 q 336 290 362 309 q 310 236 310 271 q 334 185 310 203 q 403 167 358 167 m 808 1110 l 619 1110 l 442 1297 l 672 1297 l 808 1110 m 317 1122 l 532 1122 l 712 851 l 517 851 l 424 998 l 331 851 l 137 851 l 317 1122 z "},"ẩ":{"ha":853,"x_min":42,"x_max":828,"o":"m 382 774 q 610 741 524 774 q 737 633 696 708 q 778 426 778 557 l 778 0 l 553 0 l 535 70 l 523 70 q 433 6 487 27 q 313 -15 379 -15 q 166 14 227 -15 q 74 94 105 43 q 42 212 42 145 q 126 385 42 324 q 392 456 210 446 l 511 465 q 490 530 508 506 q 434 564 472 553 q 333 574 396 574 q 223 566 283 574 q 112 543 163 558 l 112 740 q 245 766 173 757 q 382 774 317 774 m 403 167 q 512 198 467 167 l 512 320 l 419 314 q 336 290 362 309 q 310 236 310 271 q 334 185 310 203 q 403 167 358 167 m 651 1313 q 785 1293 743 1313 q 828 1227 828 1272 q 813 1191 828 1204 q 769 1163 799 1178 q 728 1138 742 1149 q 712 1110 715 1127 l 592 1110 q 615 1157 594 1140 q 667 1188 635 1174 q 691 1199 684 1194 q 699 1210 699 1204 q 682 1227 699 1222 q 630 1232 665 1232 q 504 1219 560 1232 l 504 1297 q 573 1309 531 1304 q 651 1313 615 1313 m 317 1122 l 532 1122 l 712 851 l 517 851 l 424 998 l 331 851 l 137 851 l 317 1122 z "},"ẫ":{"ha":853,"x_min":42,"x_max":778,"o":"m 382 774 q 610 741 524 774 q 737 633 696 708 q 778 426 778 557 l 778 0 l 553 0 l 535 70 l 523 70 q 433 6 487 27 q 313 -15 379 -15 q 166 14 227 -15 q 74 94 105 43 q 42 212 42 145 q 126 385 42 324 q 392 456 210 446 l 511 465 q 490 530 508 506 q 434 564 472 553 q 333 574 396 574 q 223 566 283 574 q 112 543 163 558 l 112 740 q 245 766 173 757 q 382 774 317 774 m 403 167 q 512 198 467 167 l 512 320 l 419 314 q 336 290 362 309 q 310 236 310 271 q 334 185 310 203 q 403 167 358 167 m 553 1116 q 485 1122 517 1116 q 413 1140 453 1128 q 346 1156 373 1151 q 290 1161 319 1161 q 211 1151 246 1161 q 140 1119 176 1142 l 140 1247 q 208 1281 172 1270 q 296 1292 245 1292 q 362 1285 331 1292 q 436 1267 393 1279 q 503 1250 478 1256 q 558 1245 529 1245 q 638 1255 603 1245 q 709 1287 672 1265 l 709 1160 q 641 1126 678 1137 q 553 1116 604 1116 m 738 853 l 530 853 l 424 977 l 319 853 l 110 853 l 310 1075 l 538 1075 l 738 853 z "},"ȁ":{"ha":853,"x_min":42,"x_max":778,"o":"m 382 774 q 610 741 524 774 q 737 633 696 708 q 778 426 778 557 l 778 0 l 553 0 l 535 70 l 523 70 q 433 6 487 27 q 313 -15 379 -15 q 166 14 227 -15 q 74 94 105 43 q 42 212 42 145 q 126 385 42 324 q 392 456 210 446 l 511 465 q 490 530 508 506 q 434 564 472 553 q 333 574 396 574 q 223 566 283 574 q 112 543 163 558 l 112 740 q 245 766 173 757 q 382 774 317 774 m 403 167 q 512 198 467 167 l 512 320 l 419 314 q 336 290 362 309 q 310 236 310 271 q 334 185 310 203 q 403 167 358 167 m 172 851 l 47 1122 l 257 1122 l 369 851 l 172 851 m 480 851 l 355 1122 l 565 1122 l 677 851 l 480 851 z "},"ä":{"ha":853,"x_min":42,"x_max":778,"o":"m 382 774 q 610 741 524 774 q 737 633 696 708 q 778 426 778 557 l 778 0 l 553 0 l 535 70 l 523 70 q 433 6 487 27 q 313 -15 379 -15 q 166 14 227 -15 q 74 94 105 43 q 42 212 42 145 q 126 385 42 324 q 392 456 210 446 l 511 465 q 490 530 508 506 q 434 564 472 553 q 333 574 396 574 q 223 566 283 574 q 112 543 163 558 l 112 740 q 245 766 173 757 q 382 774 317 774 m 403 167 q 512 198 467 167 l 512 320 l 419 314 q 336 290 362 309 q 310 236 310 271 q 334 185 310 203 q 403 167 358 167 m 238 856 q 132 890 168 856 q 96 985 96 924 q 132 1081 96 1047 q 238 1115 168 1115 q 343 1081 307 1115 q 379 985 379 1047 q 343 890 379 924 q 238 856 307 856 m 611 856 q 506 890 542 856 q 469 985 469 924 q 506 1081 469 1047 q 611 1115 542 1115 q 717 1081 681 1115 q 753 985 753 1047 q 717 890 753 924 q 611 856 681 856 z "},"ạ":{"ha":853,"x_min":42,"x_max":778,"o":"m 382 774 q 610 741 524 774 q 737 633 696 708 q 778 426 778 557 l 778 0 l 553 0 l 535 70 l 523 70 q 433 6 487 27 q 313 -15 379 -15 q 166 14 227 -15 q 74 94 105 43 q 42 212 42 145 q 126 385 42 324 q 392 456 210 446 l 511 465 q 490 530 508 506 q 434 564 472 553 q 333 574 396 574 q 223 566 283 574 q 112 543 163 558 l 112 740 q 245 766 173 757 q 382 774 317 774 m 403 167 q 512 198 467 167 l 512 320 l 419 314 q 336 290 362 309 q 310 236 310 271 q 334 185 310 203 q 403 167 358 167 m 426 -330 q 321 -297 357 -330 q 285 -205 285 -263 q 321 -113 285 -147 q 426 -80 357 -80 q 532 -113 496 -80 q 568 -205 568 -147 q 532 -297 568 -263 q 426 -330 496 -330 z "},"à":{"ha":853,"x_min":42,"x_max":778,"o":"m 382 774 q 610 741 524 774 q 737 633 696 708 q 778 426 778 557 l 778 0 l 553 0 l 535 70 l 523 70 q 433 6 487 27 q 313 -15 379 -15 q 166 14 227 -15 q 74 94 105 43 q 42 212 42 145 q 126 385 42 324 q 392 456 210 446 l 511 465 q 490 530 508 506 q 434 564 472 553 q 333 574 396 574 q 223 566 283 574 q 112 543 163 558 l 112 740 q 245 766 173 757 q 382 774 317 774 m 403 167 q 512 198 467 167 l 512 320 l 419 314 q 336 290 362 309 q 310 236 310 271 q 334 185 310 203 q 403 167 358 167 m 297 851 l 87 1122 l 380 1122 l 551 851 l 297 851 z "},"ả":{"ha":853,"x_min":42,"x_max":778,"o":"m 382 774 q 610 741 524 774 q 737 633 696 708 q 778 426 778 557 l 778 0 l 553 0 l 535 70 l 523 70 q 433 6 487 27 q 313 -15 379 -15 q 166 14 227 -15 q 74 94 105 43 q 42 212 42 145 q 126 385 42 324 q 392 456 210 446 l 511 465 q 490 530 508 506 q 434 564 472 553 q 333 574 396 574 q 223 566 283 574 q 112 543 163 558 l 112 740 q 245 766 173 757 q 382 774 317 774 m 403 167 q 512 198 467 167 l 512 320 l 419 314 q 336 290 362 309 q 310 236 310 271 q 334 185 310 203 q 403 167 358 167 m 359 851 q 380 916 361 892 q 432 961 399 939 q 460 983 451 975 q 468 1003 468 992 q 452 1026 468 1019 q 401 1033 437 1033 q 278 1016 342 1033 l 278 1113 q 346 1126 306 1121 q 421 1131 386 1131 q 560 1104 515 1131 q 605 1021 605 1077 q 597 978 605 996 q 576 949 588 960 q 543 922 563 937 q 505 889 517 903 q 490 851 492 874 l 359 851 z "},"ȃ":{"ha":853,"x_min":42,"x_max":778,"o":"m 382 774 q 610 741 524 774 q 737 633 696 708 q 778 426 778 557 l 778 0 l 553 0 l 535 70 l 523 70 q 433 6 487 27 q 313 -15 379 -15 q 166 14 227 -15 q 74 94 105 43 q 42 212 42 145 q 126 385 42 324 q 392 456 210 446 l 511 465 q 490 530 508 506 q 434 564 472 553 q 333 574 396 574 q 223 566 283 574 q 112 543 163 558 l 112 740 q 245 766 173 757 q 382 774 317 774 m 403 167 q 512 198 467 167 l 512 320 l 419 314 q 336 290 362 309 q 310 236 310 271 q 334 185 310 203 q 403 167 358 167 m 138 871 q 218 1057 145 992 q 424 1122 292 1122 q 630 1057 556 1122 q 711 871 703 991 l 549 871 q 513 960 544 930 q 424 990 483 990 q 335 960 365 990 q 299 871 305 931 l 138 871 z "},"ā":{"ha":853,"x_min":42,"x_max":778,"o":"m 382 774 q 610 741 524 774 q 737 633 696 708 q 778 426 778 557 l 778 0 l 553 0 l 535 70 l 523 70 q 433 6 487 27 q 313 -15 379 -15 q 166 14 227 -15 q 74 94 105 43 q 42 212 42 145 q 126 385 42 324 q 392 456 210 446 l 511 465 q 490 530 508 506 q 434 564 472 553 q 333 574 396 574 q 223 566 283 574 q 112 543 163 558 l 112 740 q 245 766 173 757 q 382 774 317 774 m 403 167 q 512 198 467 167 l 512 320 l 419 314 q 336 290 362 309 q 310 236 310 271 q 334 185 310 203 q 403 167 358 167 m 155 908 l 155 1064 l 694 1064 l 694 908 l 155 908 z "},"ą":{"ha":853,"x_min":42,"x_max":797,"o":"m 710 -211 q 797 -192 753 -211 l 797 -292 q 738 -308 768 -303 q 671 -314 708 -314 q 523 -273 574 -314 q 472 -162 472 -233 q 496 -73 472 -113 q 576 0 521 -33 l 553 0 l 535 70 l 523 70 q 433 6 487 27 q 313 -15 379 -15 q 166 14 227 -15 q 74 94 105 43 q 42 212 42 145 q 126 385 42 324 q 392 456 210 446 l 511 465 q 490 530 508 506 q 434 564 472 553 q 333 574 396 574 q 223 566 283 574 q 112 543 163 558 l 112 740 q 245 766 173 757 q 382 774 317 774 q 610 741 524 774 q 737 633 696 708 q 778 426 778 557 l 778 0 q 658 -67 692 -32 q 624 -144 624 -101 q 646 -193 624 -176 q 710 -211 668 -211 m 403 167 q 512 198 467 167 l 512 320 l 419 314 q 336 290 362 309 q 310 236 310 271 q 334 185 310 203 q 403 167 358 167 z "},"å":{"ha":853,"x_min":42,"x_max":778,"o":"m 382 774 q 610 741 524 774 q 737 633 696 708 q 778 426 778 557 l 778 0 l 553 0 l 535 70 l 523 70 q 433 6 487 27 q 313 -15 379 -15 q 166 14 227 -15 q 74 94 105 43 q 42 212 42 145 q 126 385 42 324 q 392 456 210 446 l 511 465 q 490 530 508 506 q 434 564 472 553 q 333 574 396 574 q 223 566 283 574 q 112 543 163 558 l 112 740 q 245 766 173 757 q 382 774 317 774 m 403 167 q 512 198 467 167 l 512 320 l 419 314 q 336 290 362 309 q 310 236 310 271 q 334 185 310 203 q 403 167 358 167 m 424 847 q 345 866 380 847 q 290 919 310 885 q 270 997 270 953 q 290 1074 270 1040 q 345 1127 310 1108 q 424 1147 380 1147 q 504 1127 469 1147 q 559 1074 539 1108 q 578 997 578 1040 q 559 919 578 953 q 504 866 539 885 q 424 847 469 847 m 424 935 q 467 952 451 935 q 483 997 483 969 q 467 1042 483 1025 q 424 1058 451 1058 q 382 1042 398 1058 q 365 997 365 1025 q 382 952 365 969 q 424 935 398 935 z "},"ǻ":{"ha":853,"x_min":42,"x_max":778,"o":"m 382 774 q 610 741 524 774 q 737 633 696 708 q 778 426 778 557 l 778 0 l 553 0 l 535 70 l 523 70 q 433 6 487 27 q 313 -15 379 -15 q 166 14 227 -15 q 74 94 105 43 q 42 212 42 145 q 126 385 42 324 q 392 456 210 446 l 511 465 q 490 530 508 506 q 434 564 472 553 q 333 574 396 574 q 223 566 283 574 q 112 543 163 558 l 112 740 q 245 766 173 757 q 382 774 317 774 m 403 167 q 512 198 467 167 l 512 320 l 419 314 q 336 290 362 309 q 310 236 310 271 q 334 185 310 203 q 403 167 358 167 m 561 1069 q 578 997 578 1037 q 559 919 578 953 q 504 866 539 885 q 424 847 469 847 q 345 866 380 847 q 290 919 310 885 q 270 997 270 953 q 290 1074 270 1040 q 345 1127 310 1108 q 424 1147 380 1147 q 449 1145 432 1147 l 519 1236 l 705 1236 l 561 1069 m 424 935 q 467 952 451 935 q 483 997 483 969 q 467 1042 483 1025 q 424 1058 451 1058 q 382 1042 398 1058 q 365 997 365 1025 q 382 952 365 969 q 424 935 398 935 z "},"ã":{"ha":853,"x_min":42,"x_max":778,"o":"m 382 774 q 610 741 524 774 q 737 633 696 708 q 778 426 778 557 l 778 0 l 553 0 l 535 70 l 523 70 q 433 6 487 27 q 313 -15 379 -15 q 166 14 227 -15 q 74 94 105 43 q 42 212 42 145 q 126 385 42 324 q 392 456 210 446 l 511 465 q 490 530 508 506 q 434 564 472 553 q 333 574 396 574 q 223 566 283 574 q 112 543 163 558 l 112 740 q 245 766 173 757 q 382 774 317 774 m 403 167 q 512 198 467 167 l 512 320 l 419 314 q 336 290 362 309 q 310 236 310 271 q 334 185 310 203 q 403 167 358 167 m 542 876 q 481 885 510 876 q 413 911 452 894 q 350 935 374 928 q 301 943 326 943 q 225 928 259 943 q 155 881 191 914 l 155 1044 q 223 1086 186 1073 q 307 1100 259 1100 q 368 1091 339 1100 q 436 1065 397 1082 q 499 1040 475 1048 q 548 1033 522 1033 q 624 1047 590 1033 q 694 1094 658 1062 l 694 933 q 626 889 663 903 q 542 876 590 876 z "},"æ":{"ha":1301,"x_min":42,"x_max":1262,"o":"m 1262 306 l 779 306 q 806 234 783 260 q 877 195 828 208 q 1010 183 925 183 q 1215 205 1106 183 l 1215 9 q 971 -15 1094 -15 q 756 11 845 -15 q 612 91 667 38 q 484 11 554 36 q 338 -15 415 -15 q 174 14 240 -15 q 75 94 108 42 q 42 214 42 145 q 129 391 42 327 q 395 454 215 454 l 513 454 q 493 525 511 499 q 436 563 475 551 q 332 574 398 574 q 223 566 283 574 q 113 543 163 558 l 113 740 q 371 774 239 774 q 547 753 475 774 q 663 685 618 732 q 772 751 709 728 q 910 774 834 774 q 1101 727 1022 774 q 1221 589 1180 679 q 1262 372 1262 499 l 1262 306 m 895 608 q 808 572 837 608 q 778 454 780 536 l 1010 454 q 981 572 1008 536 q 895 608 953 608 m 310 235 q 334 184 310 202 q 405 167 358 167 q 473 177 442 167 q 537 214 505 188 q 517 310 522 259 l 422 310 q 310 235 310 310 z "},"ǽ":{"ha":1301,"x_min":42,"x_max":1262,"o":"m 1262 306 l 779 306 q 806 234 783 260 q 877 195 828 208 q 1010 183 925 183 q 1215 205 1106 183 l 1215 9 q 971 -15 1094 -15 q 756 11 845 -15 q 612 91 667 38 q 484 11 554 36 q 338 -15 415 -15 q 174 14 240 -15 q 75 94 108 42 q 42 214 42 145 q 129 391 42 327 q 395 454 215 454 l 513 454 q 493 525 511 499 q 436 563 475 551 q 332 574 398 574 q 223 566 283 574 q 113 543 163 558 l 113 740 q 371 774 239 774 q 547 753 475 774 q 663 685 618 732 q 772 751 709 728 q 910 774 834 774 q 1101 727 1022 774 q 1221 589 1180 679 q 1262 372 1262 499 l 1262 306 m 895 608 q 808 572 837 608 q 778 454 780 536 l 1010 454 q 981 572 1008 536 q 895 608 953 608 m 310 235 q 334 184 310 202 q 405 167 358 167 q 473 177 442 167 q 537 214 505 188 q 517 310 522 259 l 422 310 q 310 235 310 310 m 524 851 l 696 1122 l 989 1122 l 778 851 l 524 851 z "},"b":{"ha":944,"x_min":81,"x_max":897,"o":"m 422 -15 q 244 -3 333 -15 q 81 32 156 8 l 81 1122 l 353 1122 l 353 690 l 366 690 q 457 753 403 732 q 577 774 510 774 q 739 733 667 774 q 854 607 811 691 q 897 399 897 522 q 777 91 897 197 q 422 -15 658 -15 m 446 188 q 581 234 538 188 q 625 378 625 279 q 586 515 625 474 q 474 556 548 556 q 409 548 441 556 q 353 522 378 540 l 353 199 q 446 188 395 188 z "},"c":{"ha":746,"x_min":47,"x_max":706,"o":"m 494 -15 q 162 86 276 -15 q 47 379 47 186 q 167 674 47 573 q 513 774 287 774 q 706 755 621 774 l 706 545 q 547 560 617 560 q 378 517 431 560 q 326 381 326 473 q 377 243 326 288 q 531 199 428 199 q 609 205 569 199 q 706 224 649 211 l 706 15 q 607 -7 662 1 q 494 -15 553 -15 z "},"ć":{"ha":746,"x_min":47,"x_max":748,"o":"m 494 -15 q 162 86 276 -15 q 47 379 47 186 q 167 674 47 573 q 513 774 287 774 q 706 755 621 774 l 706 545 q 547 560 617 560 q 378 517 431 560 q 326 381 326 473 q 377 243 326 288 q 531 199 428 199 q 609 205 569 199 q 706 224 649 211 l 706 15 q 607 -7 662 1 q 494 -15 553 -15 m 283 851 l 455 1122 l 748 1122 l 538 851 l 283 851 z "},"č":{"ha":746,"x_min":47,"x_max":706,"o":"m 494 -15 q 162 86 276 -15 q 47 379 47 186 q 167 674 47 573 q 513 774 287 774 q 706 755 621 774 l 706 545 q 547 560 617 560 q 378 517 431 560 q 326 381 326 473 q 377 243 326 288 q 531 199 428 199 q 609 205 569 199 q 706 224 649 211 l 706 15 q 607 -7 662 1 q 494 -15 553 -15 m 504 1122 l 699 1122 l 518 851 l 303 851 l 122 1122 l 317 1122 l 410 975 l 504 1122 z "},"ç":{"ha":746,"x_min":47,"x_max":706,"o":"m 547 560 q 378 517 431 560 q 326 381 326 473 q 377 243 326 288 q 531 199 428 199 q 609 205 569 199 q 706 224 649 211 l 706 15 q 608 -7 662 1 q 495 -15 553 -15 l 495 -56 q 584 -99 554 -67 q 615 -183 615 -132 q 566 -280 615 -245 q 422 -314 517 -314 q 286 -292 347 -314 l 286 -194 q 346 -210 313 -205 q 408 -216 380 -216 q 461 -206 444 -216 q 478 -171 478 -195 q 460 -136 478 -147 q 408 -125 442 -125 l 371 -125 l 371 -5 q 130 119 212 22 q 47 379 47 216 q 167 674 47 573 q 513 774 287 774 q 706 755 621 774 l 706 545 q 547 560 617 560 z "},"ḉ":{"ha":746,"x_min":47,"x_max":748,"o":"m 748 1122 l 538 851 l 283 851 l 455 1122 l 748 1122 m 47 379 q 167 674 47 573 q 513 774 287 774 q 706 755 621 774 l 706 545 q 547 560 617 560 q 378 517 431 560 q 326 381 326 473 q 377 243 326 288 q 531 199 428 199 q 609 205 569 199 q 706 224 649 211 l 706 15 q 608 -7 662 1 q 495 -15 553 -15 l 495 -56 q 584 -99 554 -67 q 615 -183 615 -132 q 566 -280 615 -245 q 422 -314 517 -314 q 286 -292 347 -314 l 286 -194 q 346 -210 313 -205 q 408 -216 380 -216 q 461 -206 444 -216 q 478 -171 478 -195 q 460 -136 478 -147 q 408 -125 442 -125 l 371 -125 l 371 -5 q 130 119 212 22 q 47 379 47 216 z "},"ĉ":{"ha":746,"x_min":47,"x_max":706,"o":"m 494 -15 q 162 86 276 -15 q 47 379 47 186 q 167 674 47 573 q 513 774 287 774 q 706 755 621 774 l 706 545 q 547 560 617 560 q 378 517 431 560 q 326 381 326 473 q 377 243 326 288 q 531 199 428 199 q 609 205 569 199 q 706 224 649 211 l 706 15 q 607 -7 662 1 q 494 -15 553 -15 m 698 851 l 503 851 l 410 998 l 317 851 l 123 851 l 303 1122 l 518 1122 l 698 851 z "},"ċ":{"ha":746,"x_min":47,"x_max":706,"o":"m 494 -15 q 162 86 276 -15 q 47 379 47 186 q 167 674 47 573 q 513 774 287 774 q 706 755 621 774 l 706 545 q 547 560 617 560 q 378 517 431 560 q 326 381 326 473 q 377 243 326 288 q 531 199 428 199 q 609 205 569 199 q 706 224 649 211 l 706 15 q 607 -7 662 1 q 494 -15 553 -15 m 410 852 q 247 985 247 852 q 410 1118 247 1118 q 574 985 574 1118 q 410 852 574 852 z "},"d":{"ha":944,"x_min":47,"x_max":863,"o":"m 388 -13 q 215 27 292 -13 q 92 152 138 67 q 47 365 47 237 q 99 587 47 495 q 250 727 151 679 q 490 776 349 776 q 590 770 532 776 l 590 1122 l 863 1122 l 863 0 l 635 0 l 619 78 l 607 78 q 513 11 569 35 q 388 -13 458 -13 m 467 205 q 534 215 502 205 q 590 245 567 225 l 590 563 q 499 572 544 572 q 363 527 407 572 q 319 385 319 483 q 357 247 319 288 q 467 205 395 205 z "},"ð":{"ha":924,"x_min":47,"x_max":879,"o":"m 711 904 q 834 672 790 794 q 879 432 879 549 q 771 96 879 208 q 463 -15 663 -15 q 241 31 334 -15 q 97 165 147 76 q 47 380 47 254 q 95 593 47 506 q 231 724 144 680 q 435 767 318 767 q 524 756 484 767 q 454 860 497 804 l 133 806 l 106 951 l 335 990 q 166 1122 253 1065 l 495 1122 q 599 1035 547 1085 l 827 1074 l 854 928 l 711 904 m 463 189 q 570 233 535 189 q 606 378 606 278 q 570 525 606 481 q 462 570 535 570 q 354 526 390 570 q 319 379 319 481 q 354 233 319 277 q 463 189 389 189 z "},"ď":{"ha":944,"x_min":47,"x_max":1109,"o":"m 388 -13 q 215 27 292 -13 q 92 152 138 67 q 47 365 47 237 q 99 587 47 495 q 250 727 151 679 q 490 776 349 776 q 590 770 532 776 l 590 1122 l 863 1122 l 863 0 l 635 0 l 619 78 l 607 78 q 513 11 569 35 q 388 -13 458 -13 m 467 205 q 534 215 502 205 q 590 245 567 225 l 590 563 q 499 572 544 572 q 363 527 407 572 q 319 385 319 483 q 357 247 319 288 q 467 205 395 205 m 909 819 q 927 967 922 897 q 932 1122 932 1037 l 1109 1122 q 1094 959 1109 1038 q 1053 819 1079 880 l 909 819 z "},"đ":{"ha":944,"x_min":47,"x_max":942,"o":"m 942 860 l 863 860 l 863 0 l 635 0 l 619 78 l 607 78 q 513 11 569 35 q 388 -13 458 -13 q 215 27 292 -13 q 92 152 138 67 q 47 365 47 237 q 99 587 47 495 q 250 727 151 679 q 490 776 349 776 q 590 770 532 776 l 590 860 l 331 860 l 331 1022 l 590 1022 l 590 1122 l 863 1122 l 863 1022 l 942 1022 l 942 860 m 590 563 q 499 572 544 572 q 363 527 407 572 q 319 385 319 483 q 357 247 319 288 q 467 205 395 205 q 534 215 502 205 q 590 245 567 225 l 590 563 z "},"ḍ":{"ha":944,"x_min":47,"x_max":863,"o":"m 388 -13 q 215 27 292 -13 q 92 152 138 67 q 47 365 47 237 q 99 587 47 495 q 250 727 151 679 q 490 776 349 776 q 590 770 532 776 l 590 1122 l 863 1122 l 863 0 l 635 0 l 619 78 l 607 78 q 513 11 569 35 q 388 -13 458 -13 m 467 205 q 534 215 502 205 q 590 245 567 225 l 590 563 q 499 572 544 572 q 363 527 407 572 q 319 385 319 483 q 357 247 319 288 q 467 205 395 205 m 480 -330 q 374 -297 410 -330 q 338 -205 338 -263 q 374 -113 338 -147 q 480 -80 410 -80 q 585 -113 549 -80 q 622 -205 622 -147 q 585 -297 622 -263 q 480 -330 549 -330 z "},"ḏ":{"ha":944,"x_min":47,"x_max":863,"o":"m 388 -13 q 215 27 292 -13 q 92 152 138 67 q 47 365 47 237 q 99 587 47 495 q 250 727 151 679 q 490 776 349 776 q 590 770 532 776 l 590 1122 l 863 1122 l 863 0 l 635 0 l 619 78 l 607 78 q 513 11 569 35 q 388 -13 458 -13 m 467 205 q 534 215 502 205 q 590 245 567 225 l 590 563 q 499 572 544 572 q 363 527 407 572 q 319 385 319 483 q 357 247 319 288 q 467 205 395 205 m 214 -280 l 214 -126 l 746 -126 l 746 -280 l 214 -280 z "},"ǳ":{"ha":1733,"x_min":47,"x_max":1694,"o":"m 388 -13 q 215 27 292 -13 q 92 152 138 67 q 47 365 47 237 q 99 587 47 495 q 250 727 151 679 q 490 776 349 776 q 590 770 532 776 l 590 1122 l 863 1122 l 863 0 l 635 0 l 619 78 l 607 78 q 513 11 569 35 q 388 -13 458 -13 m 467 205 q 534 215 502 205 q 590 245 567 225 l 590 563 q 499 572 544 572 q 363 527 407 572 q 319 385 319 483 q 357 247 319 288 q 467 205 395 205 m 1346 213 l 1694 213 l 1694 0 l 997 0 l 997 174 l 1338 550 l 1004 550 l 1004 762 l 1686 762 l 1686 588 l 1346 213 z "},"ǆ":{"ha":1733,"x_min":47,"x_max":1694,"o":"m 388 -13 q 215 27 292 -13 q 92 152 138 67 q 47 365 47 237 q 99 587 47 495 q 250 727 151 679 q 490 776 349 776 q 590 770 532 776 l 590 1122 l 863 1122 l 863 0 l 635 0 l 619 78 l 607 78 q 513 11 569 35 q 388 -13 458 -13 m 467 205 q 534 215 502 205 q 590 245 567 225 l 590 563 q 499 572 544 572 q 363 527 407 572 q 319 385 319 483 q 357 247 319 288 q 467 205 395 205 m 1346 213 l 1694 213 l 1694 0 l 997 0 l 997 174 l 1338 550 l 1004 550 l 1004 762 l 1686 762 l 1686 588 l 1346 213 m 1440 1122 l 1635 1122 l 1453 851 l 1238 851 l 1057 1122 l 1252 1122 l 1346 975 l 1440 1122 z "},"e":{"ha":845,"x_min":47,"x_max":806,"o":"m 806 306 l 317 306 q 344 233 322 260 q 417 195 367 207 q 554 183 467 183 q 759 205 649 183 l 759 9 q 514 -15 638 -15 q 249 27 351 -15 q 97 156 146 69 q 47 381 47 243 q 93 591 47 503 q 226 727 138 680 q 440 774 314 774 q 641 727 559 774 q 765 589 723 679 q 806 372 806 499 l 806 306 m 436 608 q 347 572 376 608 q 316 454 318 536 l 555 454 q 524 572 553 536 q 436 608 496 608 z "},"é":{"ha":845,"x_min":47,"x_max":806,"o":"m 806 306 l 317 306 q 344 233 322 260 q 417 195 367 207 q 554 183 467 183 q 759 205 649 183 l 759 9 q 514 -15 638 -15 q 249 27 351 -15 q 97 156 146 69 q 47 381 47 243 q 93 591 47 503 q 226 727 138 680 q 440 774 314 774 q 641 727 559 774 q 765 589 723 679 q 806 372 806 499 l 806 306 m 436 608 q 347 572 376 608 q 316 454 318 536 l 555 454 q 524 572 553 536 q 436 608 496 608 m 308 851 l 480 1122 l 773 1122 l 563 851 l 308 851 z "},"ĕ":{"ha":845,"x_min":47,"x_max":806,"o":"m 806 306 l 317 306 q 344 233 322 260 q 417 195 367 207 q 554 183 467 183 q 759 205 649 183 l 759 9 q 514 -15 638 -15 q 249 27 351 -15 q 97 156 146 69 q 47 381 47 243 q 93 591 47 503 q 226 727 138 680 q 440 774 314 774 q 641 727 559 774 q 765 589 723 679 q 806 372 806 499 l 806 306 m 436 608 q 347 572 376 608 q 316 454 318 536 l 555 454 q 524 572 553 536 q 436 608 496 608 m 435 856 q 230 922 303 856 q 149 1108 156 987 l 310 1108 q 346 1019 316 1049 q 435 989 376 989 q 525 1019 494 989 q 560 1108 555 1049 l 722 1108 q 641 922 715 987 q 435 856 567 856 z "},"ě":{"ha":845,"x_min":47,"x_max":806,"o":"m 806 306 l 317 306 q 344 233 322 260 q 417 195 367 207 q 554 183 467 183 q 759 205 649 183 l 759 9 q 514 -15 638 -15 q 249 27 351 -15 q 97 156 146 69 q 47 381 47 243 q 93 591 47 503 q 226 727 138 680 q 440 774 314 774 q 641 727 559 774 q 765 589 723 679 q 806 372 806 499 l 806 306 m 436 608 q 347 572 376 608 q 316 454 318 536 l 555 454 q 524 572 553 536 q 436 608 496 608 m 529 1122 l 724 1122 l 543 851 l 328 851 l 147 1122 l 342 1122 l 435 975 l 529 1122 z "},"ḝ":{"ha":845,"x_min":47,"x_max":806,"o":"m 435 856 q 230 922 303 856 q 149 1108 156 987 l 310 1108 q 346 1019 316 1049 q 435 989 376 989 q 525 1019 494 989 q 560 1108 555 1049 l 722 1108 q 641 922 715 987 q 435 856 567 856 m 806 306 l 317 306 q 344 233 322 260 q 417 195 367 207 q 554 183 467 183 q 759 205 649 183 l 759 9 q 514 -15 638 -15 l 506 -15 l 506 -56 q 595 -99 565 -67 q 625 -183 625 -132 q 576 -280 625 -245 q 432 -314 527 -314 q 297 -292 358 -314 l 297 -194 q 357 -210 323 -205 q 419 -216 390 -216 q 471 -206 454 -216 q 488 -171 488 -195 q 470 -136 488 -147 q 419 -125 453 -125 l 381 -125 l 381 -6 q 128 111 209 17 q 47 381 47 206 q 93 591 47 503 q 226 727 138 680 q 440 774 314 774 q 641 727 559 774 q 765 589 723 679 q 806 372 806 499 l 806 306 m 436 608 q 347 572 376 608 q 316 454 318 536 l 555 454 q 524 572 553 536 q 436 608 496 608 z "},"ê":{"ha":845,"x_min":47,"x_max":806,"o":"m 806 306 l 317 306 q 344 233 322 260 q 417 195 367 207 q 554 183 467 183 q 759 205 649 183 l 759 9 q 514 -15 638 -15 q 249 27 351 -15 q 97 156 146 69 q 47 381 47 243 q 93 591 47 503 q 226 727 138 680 q 440 774 314 774 q 641 727 559 774 q 765 589 723 679 q 806 372 806 499 l 806 306 m 436 608 q 347 572 376 608 q 316 454 318 536 l 555 454 q 524 572 553 536 q 436 608 496 608 m 723 851 l 528 851 l 435 998 l 342 851 l 148 851 l 328 1122 l 543 1122 l 723 851 z "},"ế":{"ha":845,"x_min":47,"x_max":968,"o":"m 806 306 l 317 306 q 344 233 322 260 q 417 195 367 207 q 554 183 467 183 q 759 205 649 183 l 759 9 q 514 -15 638 -15 q 249 27 351 -15 q 97 156 146 69 q 47 381 47 243 q 93 591 47 503 q 226 727 138 680 q 440 774 314 774 q 641 727 559 774 q 765 589 723 679 q 806 372 806 499 l 806 306 m 436 608 q 347 572 376 608 q 316 454 318 536 l 555 454 q 524 572 553 536 q 436 608 496 608 m 739 1297 l 968 1297 l 792 1110 l 603 1110 l 739 1297 m 328 1122 l 543 1122 l 723 851 l 528 851 l 435 998 l 342 851 l 148 851 l 328 1122 z "},"ệ":{"ha":845,"x_min":47,"x_max":806,"o":"m 806 306 l 317 306 q 344 233 322 260 q 417 195 367 207 q 554 183 467 183 q 759 205 649 183 l 759 9 q 514 -15 638 -15 q 249 27 351 -15 q 97 156 146 69 q 47 381 47 243 q 93 591 47 503 q 226 727 138 680 q 440 774 314 774 q 641 727 559 774 q 765 589 723 679 q 806 372 806 499 l 806 306 m 436 608 q 347 572 376 608 q 316 454 318 536 l 555 454 q 524 572 553 536 q 436 608 496 608 m 435 -330 q 330 -297 366 -330 q 294 -205 294 -263 q 330 -113 294 -147 q 435 -80 366 -80 q 541 -113 505 -80 q 577 -205 577 -147 q 541 -297 577 -263 q 435 -330 505 -330 m 723 851 l 528 851 l 435 998 l 342 851 l 148 851 l 328 1122 l 543 1122 l 723 851 z "},"ề":{"ha":845,"x_min":47,"x_max":819,"o":"m 806 306 l 317 306 q 344 233 322 260 q 417 195 367 207 q 554 183 467 183 q 759 205 649 183 l 759 9 q 514 -15 638 -15 q 249 27 351 -15 q 97 156 146 69 q 47 381 47 243 q 93 591 47 503 q 226 727 138 680 q 440 774 314 774 q 641 727 559 774 q 765 589 723 679 q 806 372 806 499 l 806 306 m 436 608 q 347 572 376 608 q 316 454 318 536 l 555 454 q 524 572 553 536 q 436 608 496 608 m 819 1110 l 630 1110 l 453 1297 l 683 1297 l 819 1110 m 328 1122 l 543 1122 l 723 851 l 528 851 l 435 998 l 342 851 l 148 851 l 328 1122 z "},"ể":{"ha":845,"x_min":47,"x_max":839,"o":"m 806 306 l 317 306 q 344 233 322 260 q 417 195 367 207 q 554 183 467 183 q 759 205 649 183 l 759 9 q 514 -15 638 -15 q 249 27 351 -15 q 97 156 146 69 q 47 381 47 243 q 93 591 47 503 q 226 727 138 680 q 440 774 314 774 q 641 727 559 774 q 765 589 723 679 q 806 372 806 499 l 806 306 m 436 608 q 347 572 376 608 q 316 454 318 536 l 555 454 q 524 572 553 536 q 436 608 496 608 m 662 1313 q 797 1293 754 1313 q 839 1227 839 1272 q 824 1191 839 1204 q 780 1163 810 1178 q 740 1138 753 1149 q 723 1110 726 1127 l 603 1110 q 626 1157 606 1140 q 678 1188 646 1174 q 702 1199 695 1194 q 710 1210 710 1204 q 693 1227 710 1222 q 641 1232 676 1232 q 515 1219 571 1232 l 515 1297 q 584 1309 542 1304 q 662 1313 626 1313 m 328 1122 l 543 1122 l 723 851 l 528 851 l 435 998 l 342 851 l 148 851 l 328 1122 z "},"ễ":{"ha":845,"x_min":47,"x_max":806,"o":"m 806 306 l 317 306 q 344 233 322 260 q 417 195 367 207 q 554 183 467 183 q 759 205 649 183 l 759 9 q 514 -15 638 -15 q 249 27 351 -15 q 97 156 146 69 q 47 381 47 243 q 93 591 47 503 q 226 727 138 680 q 440 774 314 774 q 641 727 559 774 q 765 589 723 679 q 806 372 806 499 l 806 306 m 436 608 q 347 572 376 608 q 316 454 318 536 l 555 454 q 524 572 553 536 q 436 608 496 608 m 564 1116 q 496 1122 528 1116 q 424 1140 465 1128 q 357 1156 384 1151 q 301 1161 331 1161 q 222 1151 257 1161 q 151 1119 188 1142 l 151 1247 q 219 1281 183 1270 q 307 1292 256 1292 q 373 1285 342 1292 q 447 1267 404 1279 q 515 1250 489 1256 q 569 1245 540 1245 q 649 1255 614 1245 q 720 1287 683 1265 l 720 1160 q 652 1126 689 1137 q 564 1116 615 1116 m 749 853 l 541 853 l 435 977 l 330 853 l 122 853 l 322 1075 l 549 1075 l 749 853 z "},"ȅ":{"ha":845,"x_min":47,"x_max":806,"o":"m 806 306 l 317 306 q 344 233 322 260 q 417 195 367 207 q 554 183 467 183 q 759 205 649 183 l 759 9 q 514 -15 638 -15 q 249 27 351 -15 q 97 156 146 69 q 47 381 47 243 q 93 591 47 503 q 226 727 138 680 q 440 774 314 774 q 641 727 559 774 q 765 589 723 679 q 806 372 806 499 l 806 306 m 436 608 q 347 572 376 608 q 316 454 318 536 l 555 454 q 524 572 553 536 q 436 608 496 608 m 183 851 l 58 1122 l 268 1122 l 380 851 l 183 851 m 491 851 l 366 1122 l 576 1122 l 688 851 l 491 851 z "},"ë":{"ha":845,"x_min":47,"x_max":806,"o":"m 806 306 l 317 306 q 344 233 322 260 q 417 195 367 207 q 554 183 467 183 q 759 205 649 183 l 759 9 q 514 -15 638 -15 q 249 27 351 -15 q 97 156 146 69 q 47 381 47 243 q 93 591 47 503 q 226 727 138 680 q 440 774 314 774 q 641 727 559 774 q 765 589 723 679 q 806 372 806 499 l 806 306 m 436 608 q 347 572 376 608 q 316 454 318 536 l 555 454 q 524 572 553 536 q 436 608 496 608 m 249 856 q 143 890 179 856 q 107 985 107 924 q 143 1081 107 1047 q 249 1115 179 1115 q 354 1081 318 1115 q 390 985 390 1047 q 354 890 390 924 q 249 856 318 856 m 622 856 q 517 890 553 856 q 481 985 481 924 q 517 1081 481 1047 q 622 1115 553 1115 q 728 1081 692 1115 q 764 985 764 1047 q 728 890 764 924 q 622 856 692 856 z "},"ė":{"ha":845,"x_min":47,"x_max":806,"o":"m 806 306 l 317 306 q 344 233 322 260 q 417 195 367 207 q 554 183 467 183 q 759 205 649 183 l 759 9 q 514 -15 638 -15 q 249 27 351 -15 q 97 156 146 69 q 47 381 47 243 q 93 591 47 503 q 226 727 138 680 q 440 774 314 774 q 641 727 559 774 q 765 589 723 679 q 806 372 806 499 l 806 306 m 436 608 q 347 572 376 608 q 316 454 318 536 l 555 454 q 524 572 553 536 q 436 608 496 608 m 435 852 q 272 985 272 852 q 435 1118 272 1118 q 599 985 599 1118 q 435 852 599 852 z "},"ẹ":{"ha":845,"x_min":47,"x_max":806,"o":"m 806 306 l 317 306 q 344 233 322 260 q 417 195 367 207 q 554 183 467 183 q 759 205 649 183 l 759 9 q 514 -15 638 -15 q 249 27 351 -15 q 97 156 146 69 q 47 381 47 243 q 93 591 47 503 q 226 727 138 680 q 440 774 314 774 q 641 727 559 774 q 765 589 723 679 q 806 372 806 499 l 806 306 m 436 608 q 347 572 376 608 q 316 454 318 536 l 555 454 q 524 572 553 536 q 436 608 496 608 m 435 -330 q 330 -297 366 -330 q 294 -205 294 -263 q 330 -113 294 -147 q 435 -80 366 -80 q 541 -113 505 -80 q 577 -205 577 -147 q 541 -297 577 -263 q 435 -330 505 -330 z "},"è":{"ha":845,"x_min":47,"x_max":806,"o":"m 806 306 l 317 306 q 344 233 322 260 q 417 195 367 207 q 554 183 467 183 q 759 205 649 183 l 759 9 q 514 -15 638 -15 q 249 27 351 -15 q 97 156 146 69 q 47 381 47 243 q 93 591 47 503 q 226 727 138 680 q 440 774 314 774 q 641 727 559 774 q 765 589 723 679 q 806 372 806 499 l 806 306 m 436 608 q 347 572 376 608 q 316 454 318 536 l 555 454 q 524 572 553 536 q 436 608 496 608 m 308 851 l 98 1122 l 391 1122 l 563 851 l 308 851 z "},"ẻ":{"ha":845,"x_min":47,"x_max":806,"o":"m 806 306 l 317 306 q 344 233 322 260 q 417 195 367 207 q 554 183 467 183 q 759 205 649 183 l 759 9 q 514 -15 638 -15 q 249 27 351 -15 q 97 156 146 69 q 47 381 47 243 q 93 591 47 503 q 226 727 138 680 q 440 774 314 774 q 641 727 559 774 q 765 589 723 679 q 806 372 806 499 l 806 306 m 436 608 q 347 572 376 608 q 316 454 318 536 l 555 454 q 524 572 553 536 q 436 608 496 608 m 370 851 q 391 916 372 892 q 443 961 410 939 q 471 983 463 975 q 479 1003 479 992 q 464 1026 479 1019 q 412 1033 448 1033 q 290 1016 353 1033 l 290 1113 q 357 1126 317 1121 q 432 1131 397 1131 q 571 1104 526 1131 q 616 1021 616 1077 q 608 978 616 996 q 587 949 599 960 q 554 922 574 937 q 516 889 528 903 q 501 851 503 874 l 370 851 z "},"ȇ":{"ha":845,"x_min":47,"x_max":806,"o":"m 806 306 l 317 306 q 344 233 322 260 q 417 195 367 207 q 554 183 467 183 q 759 205 649 183 l 759 9 q 514 -15 638 -15 q 249 27 351 -15 q 97 156 146 69 q 47 381 47 243 q 93 591 47 503 q 226 727 138 680 q 440 774 314 774 q 641 727 559 774 q 765 589 723 679 q 806 372 806 499 l 806 306 m 436 608 q 347 572 376 608 q 316 454 318 536 l 555 454 q 524 572 553 536 q 436 608 496 608 m 149 871 q 230 1057 156 992 q 435 1122 303 1122 q 641 1057 567 1122 q 722 871 715 991 l 560 871 q 524 960 555 930 q 435 990 494 990 q 346 960 376 990 q 310 871 316 931 l 149 871 z "},"ē":{"ha":845,"x_min":47,"x_max":806,"o":"m 806 306 l 317 306 q 344 233 322 260 q 417 195 367 207 q 554 183 467 183 q 759 205 649 183 l 759 9 q 514 -15 638 -15 q 249 27 351 -15 q 97 156 146 69 q 47 381 47 243 q 93 591 47 503 q 226 727 138 680 q 440 774 314 774 q 641 727 559 774 q 765 589 723 679 q 806 372 806 499 l 806 306 m 436 608 q 347 572 376 608 q 316 454 318 536 l 555 454 q 524 572 553 536 q 436 608 496 608 m 166 908 l 166 1064 l 705 1064 l 705 908 l 166 908 z "},"ḗ":{"ha":845,"x_min":47,"x_max":806,"o":"m 806 306 l 317 306 q 344 233 322 260 q 417 195 367 207 q 554 183 467 183 q 759 205 649 183 l 759 9 q 514 -15 638 -15 q 249 27 351 -15 q 97 156 146 69 q 47 381 47 243 q 93 591 47 503 q 226 727 138 680 q 440 774 314 774 q 641 727 559 774 q 765 589 723 679 q 806 372 806 499 l 806 306 m 436 608 q 347 572 376 608 q 316 454 318 536 l 555 454 q 524 572 553 536 q 436 608 496 608 m 166 908 l 166 1064 l 705 1064 l 705 908 l 166 908 m 310 1165 l 447 1381 l 733 1381 l 557 1165 l 310 1165 z "},"ḕ":{"ha":845,"x_min":47,"x_max":806,"o":"m 806 306 l 317 306 q 344 233 322 260 q 417 195 367 207 q 554 183 467 183 q 759 205 649 183 l 759 9 q 514 -15 638 -15 q 249 27 351 -15 q 97 156 146 69 q 47 381 47 243 q 93 591 47 503 q 226 727 138 680 q 440 774 314 774 q 641 727 559 774 q 765 589 723 679 q 806 372 806 499 l 806 306 m 436 608 q 347 572 376 608 q 316 454 318 536 l 555 454 q 524 572 553 536 q 436 608 496 608 m 166 908 l 166 1064 l 705 1064 l 705 908 l 166 908 m 313 1165 l 136 1381 l 423 1381 l 558 1165 l 313 1165 z "},"ę":{"ha":845,"x_min":47,"x_max":806,"o":"m 806 306 l 317 306 q 344 233 322 260 q 417 195 367 207 q 554 183 467 183 q 759 205 649 183 l 759 9 q 624 -61 663 -22 q 585 -144 585 -99 q 608 -193 585 -175 q 672 -211 631 -211 q 759 -192 715 -211 l 759 -292 q 700 -308 730 -303 q 633 -314 670 -314 q 484 -273 535 -314 q 433 -162 433 -233 q 516 -15 433 -72 l 514 -15 q 249 27 351 -15 q 97 156 146 69 q 47 381 47 243 q 93 591 47 503 q 226 727 138 680 q 440 774 314 774 q 641 727 559 774 q 765 589 723 679 q 806 372 806 499 l 806 306 m 436 603 q 347 567 376 603 q 316 449 318 531 l 555 449 q 524 567 553 531 q 436 603 496 603 z "},"ẽ":{"ha":845,"x_min":47,"x_max":806,"o":"m 806 306 l 317 306 q 344 233 322 260 q 417 195 367 207 q 554 183 467 183 q 759 205 649 183 l 759 9 q 514 -15 638 -15 q 249 27 351 -15 q 97 156 146 69 q 47 381 47 243 q 93 591 47 503 q 226 727 138 680 q 440 774 314 774 q 641 727 559 774 q 765 589 723 679 q 806 372 806 499 l 806 306 m 436 608 q 347 572 376 608 q 316 454 318 536 l 555 454 q 524 572 553 536 q 436 608 496 608 m 553 876 q 492 885 521 876 q 424 911 463 894 q 361 935 385 928 q 312 943 338 943 q 236 928 270 943 q 166 881 202 914 l 166 1044 q 234 1086 197 1073 q 318 1100 270 1100 q 379 1091 350 1100 q 447 1065 408 1082 q 510 1040 486 1048 q 559 1033 533 1033 q 635 1047 601 1033 q 705 1094 669 1062 l 705 933 q 637 889 674 903 q 553 876 601 876 z "},"ə":{"ha":845,"x_min":39,"x_max":798,"o":"m 331 776 q 597 734 494 776 q 749 606 699 692 q 798 381 798 519 q 752 170 798 259 q 619 35 707 82 q 406 -12 531 -12 q 204 35 286 -12 q 81 173 122 83 q 39 390 39 263 l 39 456 l 528 456 q 501 528 524 502 q 428 567 478 555 q 291 578 378 578 q 86 557 196 578 l 86 753 q 331 776 208 776 m 409 153 q 498 190 469 153 q 529 308 527 226 l 290 308 q 321 190 292 226 q 409 153 349 153 z "},"f":{"ha":619,"x_min":25,"x_max":654,"o":"m 577 924 q 457 893 494 924 q 419 794 419 861 l 419 762 l 619 762 l 619 550 l 419 550 l 419 0 l 149 0 l 149 550 l 25 550 l 25 762 l 149 762 l 149 783 q 193 972 149 892 q 325 1094 238 1051 q 533 1136 411 1136 q 654 1128 593 1136 l 654 919 q 577 924 615 924 z "},"g":{"ha":944,"x_min":47,"x_max":863,"o":"m 393 -319 q 103 -287 238 -319 l 103 -78 q 244 -106 174 -97 q 372 -115 313 -115 q 499 -98 451 -115 q 568 -47 547 -81 q 590 44 590 -12 l 590 83 l 578 83 q 367 -1 500 -1 q 207 41 279 -1 q 91 165 134 83 q 47 365 47 248 q 167 668 47 561 q 522 774 287 774 q 700 762 608 774 q 863 728 792 750 l 863 97 q 812 -140 863 -49 q 658 -276 761 -232 q 393 -319 554 -319 m 469 217 q 534 225 502 217 q 590 250 565 233 l 590 562 q 498 572 547 572 q 364 527 409 572 q 319 388 319 482 q 357 256 319 295 q 469 217 396 217 z "},"ǵ":{"ha":944,"x_min":47,"x_max":863,"o":"m 393 -319 q 103 -287 238 -319 l 103 -78 q 244 -106 174 -97 q 372 -115 313 -115 q 499 -98 451 -115 q 568 -47 547 -81 q 590 44 590 -12 l 590 83 l 578 83 q 367 -1 500 -1 q 207 41 279 -1 q 91 165 134 83 q 47 365 47 248 q 167 668 47 561 q 522 774 287 774 q 700 762 608 774 q 863 728 792 750 l 863 97 q 812 -140 863 -49 q 658 -276 761 -232 q 393 -319 554 -319 m 469 217 q 534 225 502 217 q 590 250 565 233 l 590 562 q 498 572 547 572 q 364 527 409 572 q 319 388 319 482 q 357 256 319 295 q 469 217 396 217 m 365 851 l 536 1122 l 829 1122 l 619 851 l 365 851 z "},"ğ":{"ha":944,"x_min":47,"x_max":863,"o":"m 393 -319 q 103 -287 238 -319 l 103 -78 q 244 -106 174 -97 q 372 -115 313 -115 q 499 -98 451 -115 q 568 -47 547 -81 q 590 44 590 -12 l 590 83 l 578 83 q 367 -1 500 -1 q 207 41 279 -1 q 91 165 134 83 q 47 365 47 248 q 167 668 47 561 q 522 774 287 774 q 700 762 608 774 q 863 728 792 750 l 863 97 q 812 -140 863 -49 q 658 -276 761 -232 q 393 -319 554 -319 m 469 217 q 534 225 502 217 q 590 250 565 233 l 590 562 q 498 572 547 572 q 364 527 409 572 q 319 388 319 482 q 357 256 319 295 q 469 217 396 217 m 492 856 q 286 922 360 856 q 205 1108 213 987 l 367 1108 q 402 1019 372 1049 q 492 989 433 989 q 581 1019 551 989 q 617 1108 611 1049 l 778 1108 q 697 922 771 987 q 492 856 624 856 z "},"ǧ":{"ha":944,"x_min":47,"x_max":863,"o":"m 393 -319 q 103 -287 238 -319 l 103 -78 q 244 -106 174 -97 q 372 -115 313 -115 q 499 -98 451 -115 q 568 -47 547 -81 q 590 44 590 -12 l 590 83 l 578 83 q 367 -1 500 -1 q 207 41 279 -1 q 91 165 134 83 q 47 365 47 248 q 167 668 47 561 q 522 774 287 774 q 700 762 608 774 q 863 728 792 750 l 863 97 q 812 -140 863 -49 q 658 -276 761 -232 q 393 -319 554 -319 m 469 217 q 534 225 502 217 q 590 250 565 233 l 590 562 q 498 572 547 572 q 364 527 409 572 q 319 388 319 482 q 357 256 319 295 q 469 217 396 217 m 585 1122 l 781 1122 l 599 851 l 384 851 l 203 1122 l 398 1122 l 492 975 l 585 1122 z "},"ĝ":{"ha":944,"x_min":47,"x_max":863,"o":"m 393 -319 q 103 -287 238 -319 l 103 -78 q 244 -106 174 -97 q 372 -115 313 -115 q 499 -98 451 -115 q 568 -47 547 -81 q 590 44 590 -12 l 590 83 l 578 83 q 367 -1 500 -1 q 207 41 279 -1 q 91 165 134 83 q 47 365 47 248 q 167 668 47 561 q 522 774 287 774 q 700 762 608 774 q 863 728 792 750 l 863 97 q 812 -140 863 -49 q 658 -276 761 -232 q 393 -319 554 -319 m 469 217 q 534 225 502 217 q 590 250 565 233 l 590 562 q 498 572 547 572 q 364 527 409 572 q 319 388 319 482 q 357 256 319 295 q 469 217 396 217 m 779 851 l 585 851 l 492 998 l 399 851 l 204 851 l 384 1122 l 599 1122 l 779 851 z "},"ģ":{"ha":944,"x_min":47,"x_max":863,"o":"m 393 -319 q 103 -287 238 -319 l 103 -78 q 244 -106 174 -97 q 372 -115 313 -115 q 499 -98 451 -115 q 568 -47 547 -81 q 590 44 590 -12 l 590 83 l 578 83 q 367 -1 500 -1 q 207 41 279 -1 q 91 165 134 83 q 47 365 47 248 q 167 668 47 561 q 522 774 287 774 q 700 762 608 774 q 863 728 792 750 l 863 97 q 812 -140 863 -49 q 658 -276 761 -232 q 393 -319 554 -319 m 469 217 q 534 225 502 217 q 590 250 565 233 l 590 562 q 498 572 547 572 q 364 527 409 572 q 319 388 319 482 q 357 256 319 295 q 469 217 396 217 m 529 1028 q 613 1000 587 1022 q 640 942 640 978 q 492 856 640 856 q 344 969 344 856 q 360 1054 344 1010 q 404 1129 377 1098 l 570 1129 q 529 1028 537 1070 z "},"ġ":{"ha":944,"x_min":47,"x_max":863,"o":"m 393 -319 q 103 -287 238 -319 l 103 -78 q 244 -106 174 -97 q 372 -115 313 -115 q 499 -98 451 -115 q 568 -47 547 -81 q 590 44 590 -12 l 590 83 l 578 83 q 367 -1 500 -1 q 207 41 279 -1 q 91 165 134 83 q 47 365 47 248 q 167 668 47 561 q 522 774 287 774 q 700 762 608 774 q 863 728 792 750 l 863 97 q 812 -140 863 -49 q 658 -276 761 -232 q 393 -319 554 -319 m 469 217 q 534 225 502 217 q 590 250 565 233 l 590 562 q 498 572 547 572 q 364 527 409 572 q 319 388 319 482 q 357 256 319 295 q 469 217 396 217 m 492 852 q 328 985 328 852 q 492 1118 328 1118 q 656 985 656 1118 q 492 852 656 852 z "},"ḡ":{"ha":944,"x_min":47,"x_max":863,"o":"m 393 -319 q 103 -287 238 -319 l 103 -78 q 244 -106 174 -97 q 372 -115 313 -115 q 499 -98 451 -115 q 568 -47 547 -81 q 590 44 590 -12 l 590 83 l 578 83 q 367 -1 500 -1 q 207 41 279 -1 q 91 165 134 83 q 47 365 47 248 q 167 668 47 561 q 522 774 287 774 q 700 762 608 774 q 863 728 792 750 l 863 97 q 812 -140 863 -49 q 658 -276 761 -232 q 393 -319 554 -319 m 469 217 q 534 225 502 217 q 590 250 565 233 l 590 562 q 498 572 547 572 q 364 527 409 572 q 319 388 319 482 q 357 256 319 295 q 469 217 396 217 m 222 908 l 222 1064 l 761 1064 l 761 908 l 222 908 z "},"h":{"ha":932,"x_min":81,"x_max":856,"o":"m 81 1122 l 353 1122 l 353 690 l 366 690 q 462 753 407 731 q 582 774 517 774 q 724 740 663 774 q 821 634 785 706 q 856 449 856 561 l 856 0 l 584 0 l 584 431 q 559 518 584 492 q 484 544 534 544 q 411 531 447 544 q 353 494 376 517 l 353 0 l 81 0 l 81 1122 z "},"ħ":{"ha":932,"x_min":2,"x_max":856,"o":"m 582 774 q 724 740 663 774 q 821 634 785 706 q 856 449 856 561 l 856 0 l 584 0 l 584 431 q 559 518 584 492 q 484 544 534 544 q 411 531 447 544 q 353 494 376 517 l 353 0 l 81 0 l 81 858 l 2 858 l 2 1019 l 81 1019 l 81 1122 l 353 1122 l 353 1019 l 614 1019 l 614 858 l 353 858 l 353 690 l 366 690 q 462 753 407 731 q 582 774 517 774 z "},"ḫ":{"ha":932,"x_min":81,"x_max":856,"o":"m 81 1122 l 353 1122 l 353 690 l 366 690 q 462 753 407 731 q 582 774 517 774 q 724 740 663 774 q 821 634 785 706 q 856 449 856 561 l 856 0 l 584 0 l 584 431 q 559 518 584 492 q 484 544 534 544 q 411 531 447 544 q 353 494 376 517 l 353 0 l 81 0 l 81 1122 m 469 -327 q 317 -300 381 -327 q 219 -220 253 -272 q 183 -98 185 -169 l 344 -98 q 469 -195 350 -195 q 594 -98 588 -195 l 756 -98 q 719 -220 753 -169 q 622 -300 685 -272 q 469 -327 558 -327 z "},"ĥ":{"ha":932,"x_min":81,"x_max":856,"o":"m 81 1122 l 353 1122 l 353 690 l 366 690 q 462 753 407 731 q 582 774 517 774 q 724 740 663 774 q 821 634 785 706 q 856 449 856 561 l 856 0 l 584 0 l 584 431 q 559 518 584 492 q 484 544 534 544 q 411 531 447 544 q 353 494 376 517 l 353 0 l 81 0 l 81 1122 m 785 1171 l 576 1171 l 469 1290 l 363 1171 l 153 1171 l 356 1386 l 583 1386 l 785 1171 z "},"ḥ":{"ha":932,"x_min":81,"x_max":856,"o":"m 81 1122 l 353 1122 l 353 690 l 366 690 q 462 753 407 731 q 582 774 517 774 q 724 740 663 774 q 821 634 785 706 q 856 449 856 561 l 856 0 l 584 0 l 584 431 q 559 518 584 492 q 484 544 534 544 q 411 531 447 544 q 353 494 376 517 l 353 0 l 81 0 l 81 1122 m 469 -330 q 364 -297 400 -330 q 328 -205 328 -263 q 364 -113 328 -147 q 469 -80 400 -80 q 575 -113 539 -80 q 611 -205 611 -147 q 575 -297 611 -263 q 469 -330 539 -330 z "},"i":{"ha":435,"x_min":53,"x_max":381,"o":"m 81 0 l 81 762 l 354 762 l 354 0 l 81 0 m 217 852 q 53 985 53 852 q 217 1118 53 1118 q 381 985 381 1118 q 217 852 381 852 z "},"ı":{"ha":435,"x_min":81,"x_max":354,"o":"m 81 0 l 81 762 l 354 762 l 354 0 l 81 0 z "},"í":{"ha":435,"x_min":81,"x_max":555,"o":"m 81 0 l 81 762 l 354 762 l 354 0 l 81 0 m 90 851 l 262 1122 l 555 1122 l 344 851 l 90 851 z "},"ĭ":{"ha":435,"x_min":-69,"x_max":504,"o":"m 81 0 l 81 762 l 354 762 l 354 0 l 81 0 m 217 856 q 12 922 85 856 q -69 1108 -62 987 l 92 1108 q 128 1019 98 1049 q 217 989 158 989 q 307 1019 276 989 q 342 1108 337 1049 l 504 1108 q 423 922 497 987 q 217 856 349 856 z "},"î":{"ha":435,"x_min":-70,"x_max":505,"o":"m 81 0 l 81 762 l 354 762 l 354 0 l 81 0 m 505 851 l 310 851 l 217 998 l 124 851 l -70 851 l 110 1122 l 325 1122 l 505 851 z "},"ȉ":{"ha":435,"x_min":-160,"x_max":470,"o":"m 81 0 l 81 762 l 354 762 l 354 0 l 81 0 m -35 851 l -160 1122 l 50 1122 l 162 851 l -35 851 m 273 851 l 148 1122 l 358 1122 l 470 851 l 273 851 z "},"ï":{"ha":435,"x_min":-111,"x_max":546,"o":"m 81 0 l 81 762 l 354 762 l 354 0 l 81 0 m 31 856 q -75 890 -39 856 q -111 985 -111 924 q -75 1081 -111 1047 q 31 1115 -39 1115 q 136 1081 100 1115 q 172 985 172 1047 q 136 890 172 924 q 31 856 100 856 m 404 856 q 299 890 335 856 q 263 985 263 924 q 299 1081 263 1047 q 404 1115 335 1115 q 510 1081 474 1115 q 546 985 546 1047 q 510 890 546 924 q 404 856 474 856 z "},"ḯ":{"ha":435,"x_min":-111,"x_max":546,"o":"m 81 0 l 81 762 l 354 762 l 354 0 l 81 0 m 31 856 q -75 890 -39 856 q -111 985 -111 924 q -75 1081 -111 1047 q 31 1115 -39 1115 q 136 1081 100 1115 q 172 985 172 1047 q 136 890 172 924 q 31 856 100 856 m 404 856 q 299 890 335 856 q 263 985 263 924 q 299 1081 263 1047 q 404 1115 335 1115 q 510 1081 474 1115 q 546 985 546 1047 q 510 890 546 924 q 404 856 474 856 m 92 1165 l 228 1381 l 515 1381 l 339 1165 l 92 1165 z "},"ị":{"ha":435,"x_min":53,"x_max":381,"o":"m 81 0 l 81 762 l 354 762 l 354 0 l 81 0 m 217 852 q 53 985 53 852 q 217 1118 53 1118 q 381 985 381 1118 q 217 852 381 852 m 217 -330 q 112 -297 148 -330 q 76 -205 76 -263 q 112 -113 76 -147 q 217 -80 148 -80 q 323 -113 287 -80 q 359 -205 359 -147 q 323 -297 359 -263 q 217 -330 287 -330 z "},"ì":{"ha":435,"x_min":-120,"x_max":354,"o":"m 81 0 l 81 762 l 354 762 l 354 0 l 81 0 m 90 851 l -120 1122 l 173 1122 l 344 851 l 90 851 z "},"ỉ":{"ha":435,"x_min":72,"x_max":398,"o":"m 81 0 l 81 762 l 354 762 l 354 0 l 81 0 m 152 851 q 173 916 154 892 q 225 961 192 939 q 253 983 244 975 q 261 1003 261 992 q 245 1026 261 1019 q 194 1033 230 1033 q 72 1016 135 1033 l 72 1113 q 139 1126 99 1121 q 214 1131 179 1131 q 353 1104 308 1131 q 398 1021 398 1077 q 390 978 398 996 q 369 949 381 960 q 336 922 356 937 q 298 889 310 903 q 283 851 285 874 l 152 851 z "},"ȋ":{"ha":435,"x_min":-69,"x_max":504,"o":"m 81 0 l 81 762 l 354 762 l 354 0 l 81 0 m -69 871 q 11 1057 -62 992 q 217 1122 85 1122 q 423 1057 349 1122 q 504 871 497 991 l 342 871 q 306 960 337 930 q 217 990 276 990 q 128 960 158 990 q 92 871 98 931 l -69 871 z "},"ī":{"ha":435,"x_min":-52,"x_max":487,"o":"m 81 0 l 81 762 l 354 762 l 354 0 l 81 0 m -52 908 l -52 1064 l 487 1064 l 487 908 l -52 908 z "},"į":{"ha":435,"x_min":48,"x_max":381,"o":"m 217 852 q 53 985 53 852 q 217 1118 53 1118 q 381 985 381 1118 q 217 852 381 852 m 200 -144 q 222 -193 200 -176 q 287 -211 244 -211 q 374 -192 330 -211 l 374 -292 q 315 -308 344 -303 q 247 -314 285 -314 q 99 -273 150 -314 q 48 -162 48 -233 q 73 -73 48 -113 q 153 0 97 -33 l 81 0 l 81 762 l 354 762 l 354 0 q 234 -67 268 -32 q 200 -144 200 -101 z "},"ĩ":{"ha":435,"x_min":-52,"x_max":487,"o":"m 81 0 l 81 762 l 354 762 l 354 0 l 81 0 m 335 876 q 274 885 303 876 q 206 911 245 894 q 143 935 167 928 q 94 943 119 943 q 18 928 52 943 q -52 881 -16 914 l -52 1044 q 16 1086 -21 1073 q 100 1100 52 1100 q 161 1091 132 1100 q 229 1065 190 1082 q 292 1040 268 1048 q 341 1033 315 1033 q 417 1047 383 1033 q 487 1094 451 1062 l 487 933 q 419 889 456 903 q 335 876 383 876 z "},"j":{"ha":435,"x_min":-25,"x_max":377,"o":"m -25 -215 q 58 -64 34 -141 q 81 124 81 13 l 81 762 l 354 762 l 354 134 q 307 -110 354 0 q 148 -329 259 -220 l -25 -215 m 213 853 q 49 987 49 853 q 213 1119 49 1119 q 377 987 377 1119 q 213 853 377 853 z "},"ȷ":{"ha":435,"x_min":-25,"x_max":354,"o":"m -25 -215 q 58 -64 34 -141 q 81 124 81 13 l 81 762 l 354 762 l 354 134 q 307 -110 354 0 q 148 -329 259 -220 l -25 -215 z "},"ĵ":{"ha":435,"x_min":-74,"x_max":501,"o":"m -25 -215 q 58 -64 34 -141 q 81 124 81 13 l 81 762 l 354 762 l 354 134 q 307 -110 354 0 q 148 -329 259 -220 l -25 -215 m 501 853 l 306 853 l 213 999 l 120 853 l -74 853 l 106 1124 l 321 1124 l 501 853 z "},"k":{"ha":913,"x_min":81,"x_max":938,"o":"m 642 0 l 444 283 l 353 283 l 353 0 l 81 0 l 81 1122 l 353 1122 l 353 501 l 444 501 l 623 762 l 912 762 l 669 398 l 938 0 l 642 0 z "},"ķ":{"ha":913,"x_min":81,"x_max":938,"o":"m 642 0 l 444 283 l 353 283 l 353 0 l 81 0 l 81 1122 l 353 1122 l 353 501 l 444 501 l 623 762 l 912 762 l 669 398 l 938 0 l 642 0 m 475 -80 q 624 -194 624 -80 q 607 -278 624 -234 q 563 -353 590 -322 l 397 -353 q 438 -252 431 -294 q 354 -225 381 -247 q 328 -167 328 -203 q 475 -80 328 -80 z "},"ĸ":{"ha":913,"x_min":81,"x_max":938,"o":"m 642 0 l 444 283 l 353 283 l 353 0 l 81 0 l 81 762 l 353 762 l 353 501 l 444 501 l 623 762 l 912 762 l 669 398 l 938 0 l 642 0 z "},"l":{"ha":435,"x_min":81,"x_max":353,"o":"m 81 0 l 81 1122 l 353 1122 l 353 0 l 81 0 z "},"ĺ":{"ha":435,"x_min":81,"x_max":515,"o":"m 81 0 l 81 1122 l 353 1122 l 353 0 l 81 0 m 92 1171 l 228 1386 l 515 1386 l 339 1171 l 92 1171 z "},"ľ":{"ha":435,"x_min":81,"x_max":600,"o":"m 81 0 l 81 1122 l 353 1122 l 353 0 l 81 0 m 400 819 q 418 967 413 897 q 423 1122 423 1037 l 600 1122 q 585 959 600 1038 q 544 819 570 880 l 400 819 z "},"ļ":{"ha":435,"x_min":69,"x_max":365,"o":"m 81 0 l 81 1122 l 353 1122 l 353 0 l 81 0 m 216 -80 q 365 -194 365 -80 q 348 -278 365 -234 q 304 -353 331 -322 l 138 -353 q 179 -252 172 -294 q 95 -225 122 -247 q 69 -167 69 -203 q 216 -80 69 -80 z "},"ŀ":{"ha":701,"x_min":81,"x_max":729,"o":"m 81 0 l 81 1122 l 353 1122 l 353 0 l 81 0 m 565 419 q 401 551 401 419 q 442 650 401 616 q 565 684 483 684 q 729 551 729 684 q 565 419 729 419 z "},"ḷ":{"ha":435,"x_min":75,"x_max":358,"o":"m 81 0 l 81 1122 l 353 1122 l 353 0 l 81 0 m 217 -330 q 111 -297 147 -330 q 75 -205 75 -263 q 111 -113 75 -147 q 217 -80 147 -80 q 322 -113 286 -80 q 358 -205 358 -147 q 322 -297 358 -263 q 217 -330 286 -330 z "},"ǉ":{"ha":870,"x_min":81,"x_max":812,"o":"m 81 0 l 81 1122 l 353 1122 l 353 0 l 81 0 m 410 -215 q 492 -64 469 -141 q 516 124 516 13 l 516 762 l 789 762 l 789 134 q 741 -110 789 0 q 583 -329 694 -220 l 410 -215 m 648 853 q 484 987 484 853 q 648 1119 484 1119 q 812 987 812 1119 q 648 853 812 853 z "},"ḻ":{"ha":435,"x_min":-49,"x_max":483,"o":"m 81 0 l 81 1122 l 353 1122 l 353 0 l 81 0 m -49 -280 l -49 -126 l 483 -126 l 483 -280 l -49 -280 z "},"ł":{"ha":487,"x_min":-24,"x_max":512,"o":"m 512 538 l 379 472 l 379 0 l 107 0 l 107 336 l 49 307 l -24 453 l 107 519 l 107 1122 l 379 1122 l 379 655 l 438 685 l 512 538 z "},"m":{"ha":1361,"x_min":81,"x_max":1285,"o":"m 1006 774 q 1210 695 1135 774 q 1285 448 1285 615 l 1285 0 l 1015 0 l 1015 433 q 991 519 1015 493 q 923 544 967 544 q 819 506 859 544 q 821 455 821 483 l 821 0 l 554 0 l 554 433 q 533 519 554 494 q 467 544 511 544 q 403 531 433 544 q 353 493 373 517 l 353 0 l 81 0 l 81 762 l 304 762 l 322 689 l 334 689 q 432 752 375 731 q 557 774 488 774 q 676 750 624 774 q 763 678 728 726 q 877 751 815 727 q 1006 774 939 774 z "},"ṃ":{"ha":1361,"x_min":81,"x_max":1285,"o":"m 1006 774 q 1210 695 1135 774 q 1285 448 1285 615 l 1285 0 l 1015 0 l 1015 433 q 991 519 1015 493 q 923 544 967 544 q 819 506 859 544 q 821 455 821 483 l 821 0 l 554 0 l 554 433 q 533 519 554 494 q 467 544 511 544 q 403 531 433 544 q 353 493 373 517 l 353 0 l 81 0 l 81 762 l 304 762 l 322 689 l 334 689 q 432 752 375 731 q 557 774 488 774 q 676 750 624 774 q 763 678 728 726 q 877 751 815 727 q 1006 774 939 774 m 688 -330 q 583 -297 619 -330 q 547 -205 547 -263 q 583 -113 547 -147 q 688 -80 619 -80 q 794 -113 758 -80 q 830 -205 830 -147 q 794 -297 830 -263 q 688 -330 758 -330 z "},"n":{"ha":932,"x_min":81,"x_max":856,"o":"m 81 762 l 304 762 l 322 689 l 334 689 q 438 752 378 730 q 568 774 499 774 q 779 694 701 774 q 856 448 856 615 l 856 0 l 584 0 l 584 432 q 559 519 584 493 q 484 544 534 544 q 412 531 447 544 q 353 494 377 518 l 353 0 l 81 0 l 81 762 z "},"ń":{"ha":932,"x_min":81,"x_max":856,"o":"m 81 762 l 304 762 l 322 689 l 334 689 q 438 752 378 730 q 568 774 499 774 q 779 694 701 774 q 856 448 856 615 l 856 0 l 584 0 l 584 432 q 559 519 584 493 q 484 544 534 544 q 412 531 447 544 q 353 494 377 518 l 353 0 l 81 0 l 81 762 m 342 851 l 514 1122 l 807 1122 l 597 851 l 342 851 z "},"ŉ":{"ha":932,"x_min":8,"x_max":856,"o":"m 81 762 l 304 762 l 322 689 l 334 689 q 438 752 378 730 q 568 774 499 774 q 779 694 701 774 q 856 448 856 615 l 856 0 l 584 0 l 584 432 q 559 519 584 493 q 484 544 534 544 q 412 531 447 544 q 353 494 377 518 l 353 0 l 81 0 l 81 762 m 156 1129 q 305 1015 305 1129 q 288 931 305 976 q 244 856 272 887 l 78 856 q 119 958 110 915 q 35 984 61 963 q 8 1042 8 1006 q 156 1129 8 1129 z "},"ň":{"ha":932,"x_min":81,"x_max":856,"o":"m 81 762 l 304 762 l 322 689 l 334 689 q 438 752 378 730 q 568 774 499 774 q 779 694 701 774 q 856 448 856 615 l 856 0 l 584 0 l 584 432 q 559 519 584 493 q 484 544 534 544 q 412 531 447 544 q 353 494 377 518 l 353 0 l 81 0 l 81 762 m 563 1122 l 758 1122 l 577 851 l 362 851 l 181 1122 l 376 1122 l 469 975 l 563 1122 z "},"ņ":{"ha":932,"x_min":81,"x_max":856,"o":"m 81 762 l 304 762 l 322 689 l 334 689 q 438 752 378 730 q 568 774 499 774 q 779 694 701 774 q 856 448 856 615 l 856 0 l 584 0 l 584 432 q 559 519 584 493 q 484 544 534 544 q 412 531 447 544 q 353 494 377 518 l 353 0 l 81 0 l 81 762 m 469 -80 q 617 -194 617 -80 q 601 -278 617 -234 q 557 -353 584 -322 l 391 -353 q 432 -252 424 -294 q 348 -225 374 -247 q 322 -167 322 -203 q 469 -80 322 -80 z "},"ṅ":{"ha":932,"x_min":81,"x_max":856,"o":"m 81 762 l 304 762 l 322 689 l 334 689 q 438 752 378 730 q 568 774 499 774 q 779 694 701 774 q 856 448 856 615 l 856 0 l 584 0 l 584 432 q 559 519 584 493 q 484 544 534 544 q 412 531 447 544 q 353 494 377 518 l 353 0 l 81 0 l 81 762 m 469 852 q 306 985 306 852 q 469 1118 306 1118 q 633 985 633 1118 q 469 852 633 852 z "},"ṇ":{"ha":932,"x_min":81,"x_max":856,"o":"m 81 762 l 304 762 l 322 689 l 334 689 q 438 752 378 730 q 568 774 499 774 q 779 694 701 774 q 856 448 856 615 l 856 0 l 584 0 l 584 432 q 559 519 584 493 q 484 544 534 544 q 412 531 447 544 q 353 494 377 518 l 353 0 l 81 0 l 81 762 m 469 -330 q 364 -297 400 -330 q 328 -205 328 -263 q 364 -113 328 -147 q 469 -80 400 -80 q 575 -113 539 -80 q 611 -205 611 -147 q 575 -297 611 -263 q 469 -330 539 -330 z "},"ŋ":{"ha":932,"x_min":81,"x_max":856,"o":"m 478 -215 q 560 -64 537 -141 q 584 124 584 13 l 584 433 q 559 520 584 494 q 484 546 534 546 q 411 532 447 546 q 353 495 376 519 l 353 0 l 81 0 l 81 762 l 304 762 l 322 689 l 334 689 q 439 752 378 731 q 569 774 499 774 q 779 695 701 774 q 856 449 856 615 l 856 130 q 808 -112 855 -3 q 651 -329 762 -221 l 478 -215 z "},"ǌ":{"ha":1367,"x_min":81,"x_max":1309,"o":"m 81 762 l 304 762 l 322 689 l 334 689 q 438 752 378 730 q 568 774 499 774 q 779 694 701 774 q 856 448 856 615 l 856 0 l 584 0 l 584 432 q 559 519 584 493 q 484 544 534 544 q 412 531 447 544 q 353 494 377 518 l 353 0 l 81 0 l 81 762 m 907 -215 q 990 -64 966 -141 q 1013 124 1013 13 l 1013 762 l 1286 762 l 1286 134 q 1239 -110 1286 0 q 1080 -329 1191 -220 l 907 -215 m 1145 853 q 981 987 981 853 q 1145 1119 981 1119 q 1309 987 1309 1119 q 1145 853 1309 853 z "},"ṉ":{"ha":932,"x_min":81,"x_max":856,"o":"m 81 762 l 304 762 l 322 689 l 334 689 q 438 752 378 730 q 568 774 499 774 q 779 694 701 774 q 856 448 856 615 l 856 0 l 584 0 l 584 432 q 559 519 584 493 q 484 544 534 544 q 412 531 447 544 q 353 494 377 518 l 353 0 l 81 0 l 81 762 m 203 -280 l 203 -126 l 735 -126 l 735 -280 l 203 -280 z "},"ñ":{"ha":932,"x_min":81,"x_max":856,"o":"m 81 762 l 304 762 l 322 689 l 334 689 q 438 752 378 730 q 568 774 499 774 q 779 694 701 774 q 856 448 856 615 l 856 0 l 584 0 l 584 432 q 559 519 584 493 q 484 544 534 544 q 412 531 447 544 q 353 494 377 518 l 353 0 l 81 0 l 81 762 m 587 876 q 526 885 555 876 q 458 911 497 894 q 395 935 419 928 q 346 943 372 943 q 270 928 304 943 q 200 881 236 914 l 200 1044 q 268 1086 231 1073 q 352 1100 304 1100 q 413 1091 384 1100 q 481 1065 442 1082 q 544 1040 520 1048 q 593 1033 567 1033 q 669 1047 635 1033 q 739 1094 703 1062 l 739 933 q 671 889 708 903 q 587 876 635 876 z "},"o":{"ha":924,"x_min":47,"x_max":877,"o":"m 462 -15 q 241 31 335 -15 q 98 165 148 76 q 47 380 47 254 q 96 595 47 507 q 238 729 144 683 q 462 774 331 774 q 686 729 593 774 q 828 595 779 683 q 877 381 877 507 q 826 166 877 255 q 682 31 776 77 q 462 -15 589 -15 m 462 190 q 570 233 534 190 q 606 379 606 277 q 570 526 606 482 q 462 569 534 569 q 355 526 390 569 q 319 381 319 483 q 354 234 319 278 q 462 190 390 190 z "},"ó":{"ha":924,"x_min":47,"x_max":877,"o":"m 462 -15 q 241 31 335 -15 q 98 165 148 76 q 47 380 47 254 q 96 595 47 507 q 238 729 144 683 q 462 774 331 774 q 686 729 593 774 q 828 595 779 683 q 877 381 877 507 q 826 166 877 255 q 682 31 776 77 q 462 -15 589 -15 m 462 190 q 570 233 534 190 q 606 379 606 277 q 570 526 606 482 q 462 569 534 569 q 355 526 390 569 q 319 381 319 483 q 354 234 319 278 q 462 190 390 190 m 335 851 l 506 1122 l 799 1122 l 589 851 l 335 851 z "},"ŏ":{"ha":924,"x_min":47,"x_max":877,"o":"m 462 -15 q 241 31 335 -15 q 98 165 148 76 q 47 380 47 254 q 96 595 47 507 q 238 729 144 683 q 462 774 331 774 q 686 729 593 774 q 828 595 779 683 q 877 381 877 507 q 826 166 877 255 q 682 31 776 77 q 462 -15 589 -15 m 462 190 q 570 233 534 190 q 606 379 606 277 q 570 526 606 482 q 462 569 534 569 q 355 526 390 569 q 319 381 319 483 q 354 234 319 278 q 462 190 390 190 m 462 856 q 256 922 330 856 q 175 1108 183 987 l 337 1108 q 373 1019 342 1049 q 462 989 403 989 q 551 1019 521 989 q 587 1108 581 1049 l 749 1108 q 667 922 741 987 q 462 856 594 856 z "},"ô":{"ha":924,"x_min":47,"x_max":877,"o":"m 462 -15 q 241 31 335 -15 q 98 165 148 76 q 47 380 47 254 q 96 595 47 507 q 238 729 144 683 q 462 774 331 774 q 686 729 593 774 q 828 595 779 683 q 877 381 877 507 q 826 166 877 255 q 682 31 776 77 q 462 -15 589 -15 m 462 190 q 570 233 534 190 q 606 379 606 277 q 570 526 606 482 q 462 569 534 569 q 355 526 390 569 q 319 381 319 483 q 354 234 319 278 q 462 190 390 190 m 749 851 l 555 851 l 462 998 l 369 851 l 174 851 l 354 1122 l 569 1122 l 749 851 z "},"ố":{"ha":924,"x_min":47,"x_max":994,"o":"m 462 -15 q 241 31 335 -15 q 98 165 148 76 q 47 380 47 254 q 96 595 47 507 q 238 729 144 683 q 462 774 331 774 q 686 729 593 774 q 828 595 779 683 q 877 381 877 507 q 826 166 877 255 q 682 31 776 77 q 462 -15 589 -15 m 462 190 q 570 233 534 190 q 606 379 606 277 q 570 526 606 482 q 462 569 534 569 q 355 526 390 569 q 319 381 319 483 q 354 234 319 278 q 462 190 390 190 m 765 1297 l 994 1297 l 819 1110 l 630 1110 l 765 1297 m 354 1122 l 569 1122 l 749 851 l 555 851 l 462 998 l 369 851 l 174 851 l 354 1122 z "},"ộ":{"ha":924,"x_min":47,"x_max":877,"o":"m 462 -15 q 241 31 335 -15 q 98 165 148 76 q 47 380 47 254 q 96 595 47 507 q 238 729 144 683 q 462 774 331 774 q 686 729 593 774 q 828 595 779 683 q 877 381 877 507 q 826 166 877 255 q 682 31 776 77 q 462 -15 589 -15 m 462 190 q 570 233 534 190 q 606 379 606 277 q 570 526 606 482 q 462 569 534 569 q 355 526 390 569 q 319 381 319 483 q 354 234 319 278 q 462 190 390 190 m 462 -330 q 356 -297 392 -330 q 320 -205 320 -263 q 356 -113 320 -147 q 462 -80 392 -80 q 567 -113 531 -80 q 603 -205 603 -147 q 567 -297 603 -263 q 462 -330 531 -330 m 749 851 l 555 851 l 462 998 l 369 851 l 174 851 l 354 1122 l 569 1122 l 749 851 z "},"ồ":{"ha":924,"x_min":47,"x_max":877,"o":"m 462 -15 q 241 31 335 -15 q 98 165 148 76 q 47 380 47 254 q 96 595 47 507 q 238 729 144 683 q 462 774 331 774 q 686 729 593 774 q 828 595 779 683 q 877 381 877 507 q 826 166 877 255 q 682 31 776 77 q 462 -15 589 -15 m 462 190 q 570 233 534 190 q 606 379 606 277 q 570 526 606 482 q 462 569 534 569 q 355 526 390 569 q 319 381 319 483 q 354 234 319 278 q 462 190 390 190 m 845 1110 l 656 1110 l 480 1297 l 709 1297 l 845 1110 m 354 1122 l 569 1122 l 749 851 l 555 851 l 462 998 l 369 851 l 174 851 l 354 1122 z "},"ổ":{"ha":924,"x_min":47,"x_max":877,"o":"m 462 -15 q 241 31 335 -15 q 98 165 148 76 q 47 380 47 254 q 96 595 47 507 q 238 729 144 683 q 462 774 331 774 q 686 729 593 774 q 828 595 779 683 q 877 381 877 507 q 826 166 877 255 q 682 31 776 77 q 462 -15 589 -15 m 462 190 q 570 233 534 190 q 606 379 606 277 q 570 526 606 482 q 462 569 534 569 q 355 526 390 569 q 319 381 319 483 q 354 234 319 278 q 462 190 390 190 m 688 1313 q 823 1293 781 1313 q 865 1227 865 1272 q 851 1191 865 1204 q 806 1163 836 1178 q 766 1138 780 1149 q 749 1110 752 1127 l 630 1110 q 652 1157 632 1140 q 705 1188 672 1174 q 729 1199 722 1194 q 736 1210 736 1204 q 719 1227 736 1222 q 667 1232 703 1232 q 542 1219 597 1232 l 542 1297 q 610 1309 568 1304 q 688 1313 653 1313 m 354 1122 l 569 1122 l 749 851 l 555 851 l 462 998 l 369 851 l 174 851 l 354 1122 z "},"ỗ":{"ha":924,"x_min":47,"x_max":877,"o":"m 462 -15 q 241 31 335 -15 q 98 165 148 76 q 47 380 47 254 q 96 595 47 507 q 238 729 144 683 q 462 774 331 774 q 686 729 593 774 q 828 595 779 683 q 877 381 877 507 q 826 166 877 255 q 682 31 776 77 q 462 -15 589 -15 m 462 190 q 570 233 534 190 q 606 379 606 277 q 570 526 606 482 q 462 569 534 569 q 355 526 390 569 q 319 381 319 483 q 354 234 319 278 q 462 190 390 190 m 590 1116 q 523 1122 554 1116 q 450 1140 491 1128 q 384 1156 410 1151 q 328 1161 357 1161 q 249 1151 283 1161 q 177 1119 214 1142 l 177 1247 q 246 1281 209 1270 q 333 1292 283 1292 q 400 1285 369 1292 q 474 1267 431 1279 q 541 1250 515 1256 q 596 1245 567 1245 q 675 1255 640 1245 q 747 1287 710 1265 l 747 1160 q 678 1126 715 1137 q 590 1116 642 1116 m 776 853 l 567 853 l 462 977 l 356 853 l 148 853 l 348 1075 l 576 1075 l 776 853 z "},"ȍ":{"ha":924,"x_min":47,"x_max":877,"o":"m 462 -15 q 241 31 335 -15 q 98 165 148 76 q 47 380 47 254 q 96 595 47 507 q 238 729 144 683 q 462 774 331 774 q 686 729 593 774 q 828 595 779 683 q 877 381 877 507 q 826 166 877 255 q 682 31 776 77 q 462 -15 589 -15 m 462 190 q 570 233 534 190 q 606 379 606 277 q 570 526 606 482 q 462 569 534 569 q 355 526 390 569 q 319 381 319 483 q 354 234 319 278 q 462 190 390 190 m 209 851 l 84 1122 l 294 1122 l 406 851 l 209 851 m 517 851 l 392 1122 l 603 1122 l 715 851 l 517 851 z "},"ö":{"ha":924,"x_min":47,"x_max":877,"o":"m 462 -15 q 241 31 335 -15 q 98 165 148 76 q 47 380 47 254 q 96 595 47 507 q 238 729 144 683 q 462 774 331 774 q 686 729 593 774 q 828 595 779 683 q 877 381 877 507 q 826 166 877 255 q 682 31 776 77 q 462 -15 589 -15 m 462 190 q 570 233 534 190 q 606 379 606 277 q 570 526 606 482 q 462 569 534 569 q 355 526 390 569 q 319 381 319 483 q 354 234 319 278 q 462 190 390 190 m 275 856 q 169 890 206 856 q 133 985 133 924 q 169 1081 133 1047 q 275 1115 206 1115 q 381 1081 344 1115 q 417 985 417 1047 q 381 890 417 924 q 275 856 344 856 m 649 856 q 543 890 579 856 q 507 985 507 924 q 543 1081 507 1047 q 649 1115 579 1115 q 754 1081 718 1115 q 790 985 790 1047 q 754 890 790 924 q 649 856 718 856 z "},"ȫ":{"ha":924,"x_min":47,"x_max":877,"o":"m 462 -15 q 241 31 335 -15 q 98 165 148 76 q 47 380 47 254 q 96 595 47 507 q 238 729 144 683 q 462 774 331 774 q 686 729 593 774 q 828 595 779 683 q 877 381 877 507 q 826 166 877 255 q 682 31 776 77 q 462 -15 589 -15 m 462 190 q 570 233 534 190 q 606 379 606 277 q 570 526 606 482 q 462 569 534 569 q 355 526 390 569 q 319 381 319 483 q 354 234 319 278 q 462 190 390 190 m 275 856 q 169 890 206 856 q 133 985 133 924 q 169 1081 133 1047 q 275 1115 206 1115 q 381 1081 344 1115 q 417 985 417 1047 q 381 890 417 924 q 275 856 344 856 m 649 856 q 543 890 579 856 q 507 985 507 924 q 543 1081 507 1047 q 649 1115 579 1115 q 754 1081 718 1115 q 790 985 790 1047 q 754 890 790 924 q 649 856 718 856 m 192 1192 l 192 1347 l 731 1347 l 731 1192 l 192 1192 z "},"ȱ":{"ha":924,"x_min":47,"x_max":877,"o":"m 462 -15 q 241 31 335 -15 q 98 165 148 76 q 47 380 47 254 q 96 595 47 507 q 238 729 144 683 q 462 774 331 774 q 686 729 593 774 q 828 595 779 683 q 877 381 877 507 q 826 166 877 255 q 682 31 776 77 q 462 -15 589 -15 m 462 190 q 570 233 534 190 q 606 379 606 277 q 570 526 606 482 q 462 569 534 569 q 355 526 390 569 q 319 381 319 483 q 354 234 319 278 q 462 190 390 190 m 462 852 q 298 985 298 852 q 462 1118 298 1118 q 626 985 626 1118 q 462 852 626 852 m 192 1185 l 192 1341 l 731 1341 l 731 1185 l 192 1185 z "},"ọ":{"ha":924,"x_min":47,"x_max":877,"o":"m 462 -15 q 241 31 335 -15 q 98 165 148 76 q 47 380 47 254 q 96 595 47 507 q 238 729 144 683 q 462 774 331 774 q 686 729 593 774 q 828 595 779 683 q 877 381 877 507 q 826 166 877 255 q 682 31 776 77 q 462 -15 589 -15 m 462 190 q 570 233 534 190 q 606 379 606 277 q 570 526 606 482 q 462 569 534 569 q 355 526 390 569 q 319 381 319 483 q 354 234 319 278 q 462 190 390 190 m 462 -330 q 356 -297 392 -330 q 320 -205 320 -263 q 356 -113 320 -147 q 462 -80 392 -80 q 567 -113 531 -80 q 603 -205 603 -147 q 567 -297 603 -263 q 462 -330 531 -330 z "},"ò":{"ha":924,"x_min":47,"x_max":877,"o":"m 462 -15 q 241 31 335 -15 q 98 165 148 76 q 47 380 47 254 q 96 595 47 507 q 238 729 144 683 q 462 774 331 774 q 686 729 593 774 q 828 595 779 683 q 877 381 877 507 q 826 166 877 255 q 682 31 776 77 q 462 -15 589 -15 m 462 190 q 570 233 534 190 q 606 379 606 277 q 570 526 606 482 q 462 569 534 569 q 355 526 390 569 q 319 381 319 483 q 354 234 319 278 q 462 190 390 190 m 335 851 l 124 1122 l 417 1122 l 589 851 l 335 851 z "},"ỏ":{"ha":924,"x_min":47,"x_max":877,"o":"m 462 -15 q 241 31 335 -15 q 98 165 148 76 q 47 380 47 254 q 96 595 47 507 q 238 729 144 683 q 462 774 331 774 q 686 729 593 774 q 828 595 779 683 q 877 381 877 507 q 826 166 877 255 q 682 31 776 77 q 462 -15 589 -15 m 462 190 q 570 233 534 190 q 606 379 606 277 q 570 526 606 482 q 462 569 534 569 q 355 526 390 569 q 319 381 319 483 q 354 234 319 278 q 462 190 390 190 m 397 851 q 418 916 399 892 q 469 961 437 939 q 497 983 489 975 q 506 1003 506 992 q 490 1026 506 1019 q 438 1033 474 1033 q 316 1016 380 1033 l 316 1113 q 383 1126 343 1121 q 458 1131 424 1131 q 598 1104 553 1131 q 642 1021 642 1077 q 634 978 642 996 q 613 949 626 960 q 581 922 601 937 q 542 889 555 903 q 527 851 530 874 l 397 851 z "},"ơ":{"ha":924,"x_min":47,"x_max":916,"o":"m 916 863 q 881 731 916 783 q 781 659 845 680 q 877 381 877 557 q 826 166 877 255 q 682 31 776 77 q 462 -15 589 -15 q 241 31 335 -15 q 98 165 148 76 q 47 380 47 254 q 97 595 47 507 q 241 729 146 684 q 471 774 335 774 q 565 769 503 774 q 617 767 603 767 q 715 791 682 767 q 747 873 747 816 q 737 969 747 913 l 903 969 q 916 863 916 919 m 462 190 q 570 233 534 190 q 606 379 606 277 q 570 526 606 482 q 462 569 534 569 q 355 526 390 569 q 319 381 319 483 q 354 234 319 278 q 462 190 390 190 z "},"ớ":{"ha":924,"x_min":47,"x_max":916,"o":"m 782 1122 l 580 851 l 335 851 l 500 1122 l 782 1122 m 916 863 q 881 731 916 783 q 781 659 845 680 q 877 381 877 557 q 826 166 877 255 q 682 31 776 77 q 462 -15 589 -15 q 241 31 335 -15 q 98 165 148 76 q 47 380 47 254 q 97 595 47 507 q 241 729 146 684 q 471 774 335 774 q 565 769 503 774 q 617 767 603 767 q 715 791 682 767 q 747 873 747 816 q 737 969 747 913 l 903 969 q 916 863 916 919 m 462 190 q 570 233 534 190 q 606 379 606 277 q 570 526 606 482 q 462 569 534 569 q 355 526 390 569 q 319 381 319 483 q 354 234 319 278 q 462 190 390 190 z "},"ợ":{"ha":924,"x_min":47,"x_max":916,"o":"m 916 863 q 881 731 916 783 q 781 659 845 680 q 877 381 877 557 q 826 166 877 255 q 682 31 776 77 q 462 -15 589 -15 q 241 31 335 -15 q 98 165 148 76 q 47 380 47 254 q 97 595 47 507 q 241 729 146 684 q 471 774 335 774 q 565 769 503 774 q 617 767 603 767 q 715 791 682 767 q 747 873 747 816 q 737 969 747 913 l 903 969 q 916 863 916 919 m 462 190 q 570 233 534 190 q 606 379 606 277 q 570 526 606 482 q 462 569 534 569 q 355 526 390 569 q 319 381 319 483 q 354 234 319 278 q 462 190 390 190 m 461 -330 q 356 -297 392 -330 q 319 -205 319 -263 q 356 -113 319 -147 q 461 -80 392 -80 q 567 -113 531 -80 q 603 -205 603 -147 q 567 -297 603 -263 q 461 -330 531 -330 z "},"ờ":{"ha":924,"x_min":47,"x_max":916,"o":"m 916 863 q 881 731 916 783 q 781 659 845 680 q 877 381 877 557 q 826 166 877 255 q 682 31 776 77 q 462 -15 589 -15 q 241 31 335 -15 q 98 165 148 76 q 47 380 47 254 q 97 595 47 507 q 241 729 146 684 q 471 774 335 774 q 565 769 503 774 q 617 767 603 767 q 715 791 682 767 q 747 873 747 816 q 737 969 747 913 l 903 969 q 916 863 916 919 m 462 190 q 570 233 534 190 q 606 379 606 277 q 570 526 606 482 q 462 569 534 569 q 355 526 390 569 q 319 381 319 483 q 354 234 319 278 q 462 190 390 190 m 331 851 l 120 1122 l 413 1122 l 585 851 l 331 851 z "},"ở":{"ha":924,"x_min":47,"x_max":916,"o":"m 916 863 q 881 731 916 783 q 781 659 845 680 q 877 381 877 557 q 826 166 877 255 q 682 31 776 77 q 462 -15 589 -15 q 241 31 335 -15 q 98 165 148 76 q 47 380 47 254 q 97 595 47 507 q 241 729 146 684 q 471 774 335 774 q 565 769 503 774 q 617 767 603 767 q 715 791 682 767 q 747 873 747 816 q 737 969 747 913 l 903 969 q 916 863 916 919 m 462 190 q 570 233 534 190 q 606 379 606 277 q 570 526 606 482 q 462 569 534 569 q 355 526 390 569 q 319 381 319 483 q 354 234 319 278 q 462 190 390 190 m 392 851 q 414 916 394 892 q 465 961 433 939 q 493 983 485 975 q 501 1003 501 992 q 486 1026 501 1019 q 434 1033 470 1033 q 312 1016 376 1033 l 312 1113 q 379 1126 339 1121 q 454 1131 419 1131 q 593 1104 549 1131 q 638 1021 638 1077 q 630 978 638 996 q 609 949 622 960 q 576 922 597 937 q 538 889 551 903 q 523 851 526 874 l 392 851 z "},"ỡ":{"ha":924,"x_min":47,"x_max":916,"o":"m 562 876 q 504 885 531 876 q 440 911 477 894 q 384 935 408 927 q 335 943 360 943 q 265 928 297 943 q 197 881 233 914 l 197 1044 q 262 1086 227 1073 q 340 1100 297 1100 q 398 1091 372 1100 q 463 1065 424 1083 q 518 1041 494 1049 q 567 1033 542 1033 q 638 1047 605 1033 q 705 1094 671 1062 l 705 933 q 640 890 675 903 q 562 876 606 876 m 916 863 q 881 731 916 783 q 781 659 845 680 q 877 381 877 557 q 826 166 877 255 q 682 31 776 77 q 462 -15 589 -15 q 241 31 335 -15 q 98 165 148 76 q 47 380 47 254 q 97 595 47 507 q 241 729 146 684 q 471 774 335 774 q 565 769 503 774 q 617 767 603 767 q 715 791 682 767 q 747 873 747 816 q 737 969 747 913 l 903 969 q 916 863 916 919 m 462 190 q 570 233 534 190 q 606 379 606 277 q 570 526 606 482 q 462 569 534 569 q 355 526 390 569 q 319 381 319 483 q 354 234 319 278 q 462 190 390 190 z "},"ő":{"ha":924,"x_min":47,"x_max":877,"o":"m 462 -15 q 241 31 335 -15 q 98 165 148 76 q 47 380 47 254 q 96 595 47 507 q 238 729 144 683 q 462 774 331 774 q 686 729 593 774 q 828 595 779 683 q 877 381 877 507 q 826 166 877 255 q 682 31 776 77 q 462 -15 589 -15 m 462 190 q 570 233 534 190 q 606 379 606 277 q 570 526 606 482 q 462 569 534 569 q 355 526 390 569 q 319 381 319 483 q 354 234 319 278 q 462 190 390 190 m 210 851 l 321 1122 l 531 1122 l 406 851 l 210 851 m 517 851 l 629 1122 l 839 1122 l 714 851 l 517 851 z "},"ȏ":{"ha":924,"x_min":47,"x_max":877,"o":"m 462 -15 q 241 31 335 -15 q 98 165 148 76 q 47 380 47 254 q 96 595 47 507 q 238 729 144 683 q 462 774 331 774 q 686 729 593 774 q 828 595 779 683 q 877 381 877 507 q 826 166 877 255 q 682 31 776 77 q 462 -15 589 -15 m 462 190 q 570 233 534 190 q 606 379 606 277 q 570 526 606 482 q 462 569 534 569 q 355 526 390 569 q 319 381 319 483 q 354 234 319 278 q 462 190 390 190 m 175 871 q 256 1057 183 992 q 462 1122 329 1122 q 667 1057 593 1122 q 749 871 741 991 l 587 871 q 551 960 581 930 q 462 990 520 990 q 372 960 402 990 q 337 871 342 931 l 175 871 z "},"ō":{"ha":924,"x_min":47,"x_max":877,"o":"m 462 -15 q 241 31 335 -15 q 98 165 148 76 q 47 380 47 254 q 96 595 47 507 q 238 729 144 683 q 462 774 331 774 q 686 729 593 774 q 828 595 779 683 q 877 381 877 507 q 826 166 877 255 q 682 31 776 77 q 462 -15 589 -15 m 462 190 q 570 233 534 190 q 606 379 606 277 q 570 526 606 482 q 462 569 534 569 q 355 526 390 569 q 319 381 319 483 q 354 234 319 278 q 462 190 390 190 m 192 908 l 192 1064 l 731 1064 l 731 908 l 192 908 z "},"ṓ":{"ha":924,"x_min":47,"x_max":877,"o":"m 462 -15 q 241 31 335 -15 q 98 165 148 76 q 47 380 47 254 q 96 595 47 507 q 238 729 144 683 q 462 774 331 774 q 686 729 593 774 q 828 595 779 683 q 877 381 877 507 q 826 166 877 255 q 682 31 776 77 q 462 -15 589 -15 m 462 190 q 570 233 534 190 q 606 379 606 277 q 570 526 606 482 q 462 569 534 569 q 355 526 390 569 q 319 381 319 483 q 354 234 319 278 q 462 190 390 190 m 192 908 l 192 1064 l 731 1064 l 731 908 l 192 908 m 337 1165 l 473 1381 l 760 1381 l 583 1165 l 337 1165 z "},"ṑ":{"ha":924,"x_min":47,"x_max":877,"o":"m 462 -15 q 241 31 335 -15 q 98 165 148 76 q 47 380 47 254 q 96 595 47 507 q 238 729 144 683 q 462 774 331 774 q 686 729 593 774 q 828 595 779 683 q 877 381 877 507 q 826 166 877 255 q 682 31 776 77 q 462 -15 589 -15 m 462 190 q 570 233 534 190 q 606 379 606 277 q 570 526 606 482 q 462 569 534 569 q 355 526 390 569 q 319 381 319 483 q 354 234 319 278 q 462 190 390 190 m 192 908 l 192 1064 l 731 1064 l 731 908 l 192 908 m 339 1165 l 163 1381 l 449 1381 l 585 1165 l 339 1165 z "},"ǫ":{"ha":924,"x_min":47,"x_max":877,"o":"m 462 774 q 686 729 593 774 q 828 595 779 683 q 877 381 877 507 q 814 144 877 238 q 633 10 750 50 q 523 -39 563 -14 q 469 -88 484 -63 q 454 -141 454 -112 q 476 -192 454 -174 q 541 -211 499 -211 q 626 -193 583 -211 l 628 -292 q 568 -308 597 -303 q 501 -314 539 -314 q 353 -273 404 -314 q 302 -162 302 -233 q 323 -78 302 -115 q 390 -10 344 -40 q 207 51 284 2 q 89 183 130 99 q 47 380 47 266 q 96 595 47 507 q 238 729 144 683 q 462 774 331 774 m 462 190 q 570 233 534 190 q 606 379 606 277 q 570 526 606 482 q 462 569 534 569 q 355 526 390 569 q 319 381 319 483 q 354 234 319 278 q 462 190 390 190 z "},"ø":{"ha":924,"x_min":47,"x_max":877,"o":"m 766 675 q 849 550 821 624 q 877 381 877 476 q 826 166 877 255 q 682 31 776 77 q 462 -15 589 -15 q 268 19 353 -15 l 214 -51 l 113 28 l 158 88 q 76 212 104 139 q 47 380 47 285 q 96 595 47 507 q 238 729 144 683 q 462 774 331 774 q 655 742 572 774 l 709 813 l 810 733 l 766 675 m 462 573 q 350 528 387 573 q 313 381 313 484 q 323 288 313 327 l 531 561 q 462 573 502 573 m 462 187 q 574 231 537 187 q 611 379 611 276 q 600 475 611 438 l 392 199 q 462 187 421 187 z "},"ǿ":{"ha":924,"x_min":47,"x_max":877,"o":"m 766 675 q 849 550 821 624 q 877 381 877 476 q 826 166 877 255 q 682 31 776 77 q 462 -15 589 -15 q 268 19 353 -15 l 214 -51 l 113 28 l 158 88 q 76 212 104 139 q 47 380 47 285 q 96 595 47 507 q 238 729 144 683 q 462 774 331 774 q 655 742 572 774 l 709 813 l 810 733 l 766 675 m 462 573 q 350 528 387 573 q 313 381 313 484 q 323 288 313 327 l 531 561 q 462 573 502 573 m 462 187 q 574 231 537 187 q 611 379 611 276 q 600 475 611 438 l 392 199 q 462 187 421 187 m 332 851 l 503 1122 l 797 1122 l 586 851 l 332 851 z "},"õ":{"ha":924,"x_min":47,"x_max":877,"o":"m 462 -15 q 241 31 335 -15 q 98 165 148 76 q 47 380 47 254 q 96 595 47 507 q 238 729 144 683 q 462 774 331 774 q 686 729 593 774 q 828 595 779 683 q 877 381 877 507 q 826 166 877 255 q 682 31 776 77 q 462 -15 589 -15 m 462 190 q 570 233 534 190 q 606 379 606 277 q 570 526 606 482 q 462 569 534 569 q 355 526 390 569 q 319 381 319 483 q 354 234 319 278 q 462 190 390 190 m 579 876 q 518 885 547 876 q 450 911 490 894 q 388 935 411 928 q 338 943 364 943 q 263 928 297 943 q 192 881 228 914 l 192 1044 q 260 1086 224 1073 q 344 1100 297 1100 q 405 1091 376 1100 q 474 1065 434 1082 q 536 1040 513 1048 q 585 1033 560 1033 q 661 1047 627 1033 q 731 1094 695 1062 l 731 933 q 664 889 700 903 q 579 876 627 876 z "},"ṍ":{"ha":924,"x_min":47,"x_max":877,"o":"m 462 -15 q 241 31 335 -15 q 98 165 148 76 q 47 380 47 254 q 96 595 47 507 q 238 729 144 683 q 462 774 331 774 q 686 729 593 774 q 828 595 779 683 q 877 381 877 507 q 826 166 877 255 q 682 31 776 77 q 462 -15 589 -15 m 462 190 q 570 233 534 190 q 606 379 606 277 q 570 526 606 482 q 462 569 534 569 q 355 526 390 569 q 319 381 319 483 q 354 234 319 278 q 462 190 390 190 m 579 876 q 518 885 547 876 q 450 911 490 894 q 388 935 411 928 q 338 943 364 943 q 263 928 297 943 q 192 881 228 914 l 192 1044 q 260 1086 224 1073 q 344 1100 297 1100 q 405 1091 376 1100 q 474 1065 434 1082 q 536 1040 513 1048 q 585 1033 560 1033 q 661 1047 627 1033 q 731 1094 695 1062 l 731 933 q 664 889 700 903 q 579 876 627 876 m 337 1165 l 473 1381 l 760 1381 l 583 1165 l 337 1165 z "},"ṏ":{"ha":924,"x_min":47,"x_max":877,"o":"m 462 -15 q 241 31 335 -15 q 98 165 148 76 q 47 380 47 254 q 96 595 47 507 q 238 729 144 683 q 462 774 331 774 q 686 729 593 774 q 828 595 779 683 q 877 381 877 507 q 826 166 877 255 q 682 31 776 77 q 462 -15 589 -15 m 462 190 q 570 233 534 190 q 606 379 606 277 q 570 526 606 482 q 462 569 534 569 q 355 526 390 569 q 319 381 319 483 q 354 234 319 278 q 462 190 390 190 m 579 876 q 518 885 547 876 q 450 911 490 894 q 388 935 411 928 q 338 943 364 943 q 263 928 297 943 q 192 881 228 914 l 192 1044 q 260 1086 224 1073 q 344 1100 297 1100 q 405 1091 376 1100 q 474 1065 434 1082 q 536 1040 513 1048 q 585 1033 560 1033 q 661 1047 627 1033 q 731 1094 695 1062 l 731 933 q 664 889 700 903 q 579 876 627 876 m 275 1139 q 169 1173 206 1139 q 133 1269 133 1207 q 169 1364 133 1331 q 275 1398 206 1398 q 381 1364 344 1398 q 417 1269 417 1331 q 381 1173 417 1207 q 275 1139 344 1139 m 649 1139 q 543 1173 579 1139 q 507 1269 507 1207 q 543 1364 507 1331 q 649 1398 579 1398 q 754 1364 718 1398 q 790 1269 790 1331 q 754 1173 790 1207 q 649 1139 718 1139 z "},"ȭ":{"ha":924,"x_min":47,"x_max":877,"o":"m 462 -15 q 241 31 335 -15 q 98 165 148 76 q 47 380 47 254 q 96 595 47 507 q 238 729 144 683 q 462 774 331 774 q 686 729 593 774 q 828 595 779 683 q 877 381 877 507 q 826 166 877 255 q 682 31 776 77 q 462 -15 589 -15 m 462 190 q 570 233 534 190 q 606 379 606 277 q 570 526 606 482 q 462 569 534 569 q 355 526 390 569 q 319 381 319 483 q 354 234 319 278 q 462 190 390 190 m 579 876 q 518 885 547 876 q 450 911 490 894 q 388 935 411 928 q 338 943 364 943 q 263 928 297 943 q 192 881 228 914 l 192 1044 q 260 1086 224 1073 q 344 1100 297 1100 q 405 1091 376 1100 q 474 1065 434 1082 q 536 1040 513 1048 q 585 1033 560 1033 q 661 1047 627 1033 q 731 1094 695 1062 l 731 933 q 664 889 700 903 q 579 876 627 876 m 192 1192 l 192 1347 l 731 1347 l 731 1192 l 192 1192 z "},"œ":{"ha":1399,"x_min":47,"x_max":1360,"o":"m 1360 306 l 877 306 q 903 234 881 260 q 974 195 926 208 q 1108 183 1023 183 q 1313 205 1203 183 l 1313 9 q 1068 -15 1192 -15 q 864 11 948 -15 q 727 88 779 36 q 609 11 679 38 q 449 -15 539 -15 q 238 31 328 -15 q 97 166 147 77 q 47 380 47 254 q 95 595 47 506 q 234 729 144 683 q 449 774 324 774 q 740 661 644 774 q 856 745 788 715 q 1008 774 924 774 q 1199 727 1119 774 q 1319 589 1278 679 q 1360 372 1360 499 l 1360 306 m 992 608 q 906 572 935 608 q 876 454 878 536 l 1108 454 q 1078 572 1106 536 q 992 608 1050 608 m 462 190 q 569 233 534 190 q 605 379 605 277 q 569 526 605 482 q 462 569 533 569 q 355 526 390 569 q 319 381 319 483 q 354 234 319 278 q 462 190 390 190 z "},"p":{"ha":944,"x_min":81,"x_max":897,"o":"m 81 762 l 309 762 l 324 683 l 336 683 q 431 750 375 726 q 556 774 486 774 q 729 734 652 774 q 851 609 806 694 q 897 397 897 524 q 845 174 897 266 q 694 34 793 82 q 453 -15 594 -15 q 353 -9 412 -15 l 353 -306 l 81 -306 l 81 762 m 444 189 q 581 234 537 189 q 625 377 625 279 q 586 515 625 474 q 476 556 548 556 q 409 546 442 556 q 353 516 377 536 l 353 198 q 444 189 400 189 z "},"þ":{"ha":944,"x_min":81,"x_max":897,"o":"m 81 1122 l 353 1122 l 353 690 l 366 690 q 457 753 403 732 q 577 774 510 774 q 739 733 666 774 q 854 606 811 691 q 897 397 897 521 q 845 174 897 266 q 694 34 793 82 q 453 -15 594 -15 q 353 -9 412 -15 l 353 -306 l 81 -306 l 81 1122 m 444 189 q 581 234 537 189 q 625 377 625 279 q 586 515 625 474 q 474 556 547 556 q 409 547 440 556 q 353 517 377 538 l 353 198 q 444 189 400 189 z "},"q":{"ha":944,"x_min":47,"x_max":863,"o":"m 590 69 l 578 69 q 367 -15 500 -15 q 205 27 277 -15 q 90 153 133 69 q 47 361 47 238 q 166 669 47 563 q 522 774 285 774 q 700 762 608 774 q 863 728 792 750 l 863 -306 l 590 -306 l 590 69 m 469 204 q 590 238 541 204 l 590 562 q 497 572 547 572 q 364 526 408 572 q 319 382 319 480 q 357 245 319 286 q 469 204 396 204 z "},"r":{"ha":617,"x_min":81,"x_max":609,"o":"m 81 762 l 303 762 l 324 669 l 336 669 q 420 748 367 722 q 542 774 473 774 q 609 768 572 774 l 609 526 q 525 532 575 532 q 428 516 476 532 q 353 473 381 501 l 353 0 l 81 0 l 81 762 z "},"ŕ":{"ha":617,"x_min":81,"x_max":683,"o":"m 81 762 l 303 762 l 324 669 l 336 669 q 420 748 367 722 q 542 774 473 774 q 609 768 572 774 l 609 526 q 525 532 575 532 q 428 516 476 532 q 353 473 381 501 l 353 0 l 81 0 l 81 762 m 219 851 l 390 1122 l 683 1122 l 473 851 l 219 851 z "},"ř":{"ha":617,"x_min":57,"x_max":635,"o":"m 81 762 l 303 762 l 324 669 l 336 669 q 420 748 367 722 q 542 774 473 774 q 609 768 572 774 l 609 526 q 525 532 575 532 q 428 516 476 532 q 353 473 381 501 l 353 0 l 81 0 l 81 762 m 440 1122 l 635 1122 l 453 851 l 238 851 l 57 1122 l 252 1122 l 346 975 l 440 1122 z "},"ŗ":{"ha":617,"x_min":69,"x_max":609,"o":"m 81 762 l 303 762 l 324 669 l 336 669 q 420 748 367 722 q 542 774 473 774 q 609 768 572 774 l 609 526 q 525 532 575 532 q 428 516 476 532 q 353 473 381 501 l 353 0 l 81 0 l 81 762 m 217 -80 q 365 -194 365 -80 q 349 -278 365 -234 q 305 -353 332 -322 l 139 -353 q 180 -252 172 -294 q 96 -225 122 -247 q 69 -167 69 -203 q 217 -80 69 -80 z "},"ȑ":{"ha":617,"x_min":-32,"x_max":609,"o":"m 81 762 l 303 762 l 324 669 l 336 669 q 420 748 367 722 q 542 774 473 774 q 609 768 572 774 l 609 526 q 525 532 575 532 q 428 516 476 532 q 353 473 381 501 l 353 0 l 81 0 l 81 762 m 93 851 l -32 1122 l 178 1122 l 290 851 l 93 851 m 401 851 l 276 1122 l 487 1122 l 599 851 l 401 851 z "},"ṛ":{"ha":617,"x_min":76,"x_max":609,"o":"m 81 762 l 303 762 l 324 669 l 336 669 q 420 748 367 722 q 542 774 473 774 q 609 768 572 774 l 609 526 q 525 532 575 532 q 428 516 476 532 q 353 473 381 501 l 353 0 l 81 0 l 81 762 m 217 -330 q 112 -297 148 -330 q 76 -205 76 -263 q 112 -113 76 -147 q 217 -80 148 -80 q 323 -113 287 -80 q 359 -205 359 -147 q 323 -297 359 -263 q 217 -330 287 -330 z "},"ȓ":{"ha":617,"x_min":59,"x_max":633,"o":"m 81 762 l 303 762 l 324 669 l 336 669 q 420 748 367 722 q 542 774 473 774 q 609 768 572 774 l 609 526 q 525 532 575 532 q 428 516 476 532 q 353 473 381 501 l 353 0 l 81 0 l 81 762 m 59 871 q 140 1057 67 992 q 346 1122 213 1122 q 551 1057 477 1122 q 633 871 625 991 l 471 871 q 435 960 465 930 q 346 990 404 990 q 256 960 286 990 q 221 871 226 931 l 59 871 z "},"ṟ":{"ha":617,"x_min":-49,"x_max":609,"o":"m 81 762 l 303 762 l 324 669 l 336 669 q 420 748 367 722 q 542 774 473 774 q 609 768 572 774 l 609 526 q 525 532 575 532 q 428 516 476 532 q 353 473 381 501 l 353 0 l 81 0 l 81 762 m -49 -280 l -49 -126 l 483 -126 l 483 -280 l -49 -280 z "},"s":{"ha":757,"x_min":43,"x_max":722,"o":"m 343 -15 q 195 -6 267 -15 q 64 21 123 3 l 64 210 q 197 183 125 193 q 339 174 268 174 q 439 188 410 174 q 468 228 468 201 q 456 258 468 248 q 413 272 444 267 l 269 294 q 97 368 151 313 q 43 519 43 423 q 144 707 43 640 q 448 774 245 774 q 571 767 509 774 q 678 747 633 759 l 678 557 q 572 578 631 570 q 453 585 513 585 q 331 570 364 585 q 297 528 297 554 q 309 502 297 512 q 353 487 322 492 l 497 465 q 666 396 610 447 q 722 240 722 344 q 677 103 722 160 q 548 16 633 47 q 343 -15 463 -15 z "},"ś":{"ha":757,"x_min":43,"x_max":722,"o":"m 343 -15 q 195 -6 267 -15 q 64 21 123 3 l 64 210 q 197 183 125 193 q 339 174 268 174 q 439 188 410 174 q 468 228 468 201 q 456 258 468 248 q 413 272 444 267 l 269 294 q 97 368 151 313 q 43 519 43 423 q 144 707 43 640 q 448 774 245 774 q 571 767 509 774 q 678 747 633 759 l 678 557 q 572 578 631 570 q 453 585 513 585 q 331 570 364 585 q 297 528 297 554 q 309 502 297 512 q 353 487 322 492 l 497 465 q 666 396 610 447 q 722 240 722 344 q 677 103 722 160 q 548 16 633 47 q 343 -15 463 -15 m 257 851 l 428 1122 l 722 1122 l 511 851 l 257 851 z "},"ṥ":{"ha":757,"x_min":43,"x_max":722,"o":"m 343 -15 q 195 -6 267 -15 q 64 21 123 3 l 64 210 q 197 183 125 193 q 339 174 268 174 q 439 188 410 174 q 468 228 468 201 q 456 258 468 248 q 413 272 444 267 l 269 294 q 97 368 151 313 q 43 519 43 423 q 144 707 43 640 q 448 774 245 774 q 571 767 509 774 q 678 747 633 759 l 678 557 q 572 578 631 570 q 453 585 513 585 q 331 570 364 585 q 297 528 297 554 q 309 502 297 512 q 353 487 322 492 l 497 465 q 666 396 610 447 q 722 240 722 344 q 677 103 722 160 q 548 16 633 47 q 343 -15 463 -15 m 243 1094 q 145 1119 178 1094 q 113 1187 113 1143 q 145 1255 113 1231 q 243 1280 178 1280 q 341 1255 308 1280 q 373 1187 373 1231 q 340 1119 373 1143 q 243 1094 308 1094 m 257 851 l 428 1122 l 722 1122 l 511 851 l 257 851 z "},"š":{"ha":757,"x_min":43,"x_max":722,"o":"m 343 -15 q 195 -6 267 -15 q 64 21 123 3 l 64 210 q 197 183 125 193 q 339 174 268 174 q 439 188 410 174 q 468 228 468 201 q 456 258 468 248 q 413 272 444 267 l 269 294 q 97 368 151 313 q 43 519 43 423 q 144 707 43 640 q 448 774 245 774 q 571 767 509 774 q 678 747 633 759 l 678 557 q 572 578 631 570 q 453 585 513 585 q 331 570 364 585 q 297 528 297 554 q 309 502 297 512 q 353 487 322 492 l 497 465 q 666 396 610 447 q 722 240 722 344 q 677 103 722 160 q 548 16 633 47 q 343 -15 463 -15 m 478 1122 l 673 1122 l 492 851 l 276 851 l 95 1122 l 290 1122 l 384 975 l 478 1122 z "},"ṧ":{"ha":757,"x_min":43,"x_max":722,"o":"m 343 -15 q 195 -6 267 -15 q 64 21 123 3 l 64 210 q 197 183 125 193 q 339 174 268 174 q 439 188 410 174 q 468 228 468 201 q 456 258 468 248 q 413 272 444 267 l 269 294 q 97 368 151 313 q 43 519 43 423 q 144 707 43 640 q 448 774 245 774 q 571 767 509 774 q 678 747 633 759 l 678 557 q 572 578 631 570 q 453 585 513 585 q 331 570 364 585 q 297 528 297 554 q 309 502 297 512 q 353 487 322 492 l 497 465 q 666 396 610 447 q 722 240 722 344 q 677 103 722 160 q 548 16 633 47 q 343 -15 463 -15 m 384 1146 q 286 1170 319 1146 q 254 1239 254 1195 q 286 1307 254 1283 q 384 1331 319 1331 q 482 1307 449 1331 q 514 1239 514 1283 q 482 1170 514 1195 q 384 1146 449 1146 m 478 1122 l 673 1122 l 492 851 l 276 851 l 95 1122 l 290 1122 l 384 975 l 478 1122 z "},"ş":{"ha":757,"x_min":43,"x_max":722,"o":"m 722 240 q 652 76 722 140 q 454 -7 583 13 l 454 -56 q 543 -99 513 -67 q 574 -183 574 -132 q 525 -280 574 -245 q 381 -314 476 -314 q 245 -292 306 -314 l 245 -194 q 305 -210 272 -205 q 367 -216 339 -216 q 420 -206 403 -216 q 437 -171 437 -195 q 419 -136 437 -147 q 367 -125 401 -125 l 330 -125 l 330 -15 q 64 21 174 -12 l 64 210 q 197 183 125 193 q 339 174 268 174 q 439 188 410 174 q 468 228 468 201 q 456 258 468 248 q 413 272 444 267 l 269 294 q 97 368 151 313 q 43 519 43 423 q 144 707 43 640 q 448 774 245 774 q 571 767 509 774 q 678 747 633 759 l 678 557 q 572 578 631 570 q 453 585 513 585 q 331 570 364 585 q 297 528 297 554 q 309 502 297 512 q 353 487 322 492 l 497 465 q 666 396 610 447 q 722 240 722 344 z "},"ŝ":{"ha":757,"x_min":43,"x_max":722,"o":"m 343 -15 q 195 -6 267 -15 q 64 21 123 3 l 64 210 q 197 183 125 193 q 339 174 268 174 q 439 188 410 174 q 468 228 468 201 q 456 258 468 248 q 413 272 444 267 l 269 294 q 97 368 151 313 q 43 519 43 423 q 144 707 43 640 q 448 774 245 774 q 571 767 509 774 q 678 747 633 759 l 678 557 q 572 578 631 570 q 453 585 513 585 q 331 570 364 585 q 297 528 297 554 q 309 502 297 512 q 353 487 322 492 l 497 465 q 666 396 610 447 q 722 240 722 344 q 677 103 722 160 q 548 16 633 47 q 343 -15 463 -15 m 672 851 l 477 851 l 384 998 l 291 851 l 97 851 l 276 1122 l 492 1122 l 672 851 z "}}}
